SplineFontDB: 3.0
FontName: Distinguish-ExtraLight
FullName: Distinguish ExtraLight
FamilyName: Distinguish
Weight: ExtraLight
Copyright: Copyright 2015 Google Inc. All Rights Reserved.
Version: 2.000;GOOG;noto-source:20170915:90ef993387c0; ttfautohint (v1.7)
ItalicAngle: 0
UnderlinePosition: -125
UnderlineWidth: 50
Ascent: 800
Descent: 200
InvalidEm: 0
sfntRevision: 0x00020000
LayerCount: 2
Layer: 0 1 "Back" 1
Layer: 1 1 "Fore" 0
XUID: [1021 269 1684064080 4515862]
StyleMap: 0x0000
FSType: 0
OS2Version: 4
OS2_WeightWidthSlopeOnly: 1
OS2_UseTypoMetrics: 0
CreationTime: 1458096639
ModificationTime: 1515966756
PfmFamily: 17
TTFWeight: 200
TTFWidth: 5
LineGap: 0
VLineGap: 0
Panose: 2 11 3 2 4 5 4 2 2 4
OS2TypoAscent: 1069
OS2TypoAOffset: 0
OS2TypoDescent: -293
OS2TypoDOffset: 0
OS2TypoLinegap: 0
OS2WinAscent: 1069
OS2WinAOffset: 0
OS2WinDescent: 293
OS2WinDOffset: 0
HheadAscent: 1069
HheadAOffset: 0
HheadDescent: -293
HheadDOffset: 0
OS2SubXSize: 650
OS2SubYSize: 600
OS2SubXOff: 0
OS2SubYOff: 75
OS2SupXSize: 650
OS2SupYSize: 600
OS2SupXOff: 0
OS2SupYOff: 350
OS2StrikeYSize: 50
OS2StrikeYPos: 322
OS2CapHeight: 714
OS2XHeight: 536
OS2Vendor: 'GOOG'
OS2CodePages: 00000000.00000000
OS2UnicodeRanges: e00002ff.4000001f.08000029.00100000
Lookup: 1 0 0 "'aalt' Access All Alternates lookup 0" { "'aalt' Access All Alternates lookup 0 subtable"  } ['aalt' ('DFLT' <'dflt' > 'cyrl' <'dflt' > 'grek' <'dflt' > 'latn' <'CAT ' 'MAH ' 'MOL ' 'NAV ' 'ROM ' 'dflt' > ) ]
Lookup: 3 0 0 "'aalt' Access All Alternates lookup 1" { "'aalt' Access All Alternates lookup 1 subtable"  } ['aalt' ('DFLT' <'dflt' > 'cyrl' <'dflt' > 'grek' <'dflt' > 'latn' <'CAT ' 'MAH ' 'MOL ' 'NAV ' 'ROM ' 'dflt' > ) ]
Lookup: 4 0 0 "'ccmp' Glyph Composition/Decomposition lookup 2" { "'ccmp' Glyph Composition/Decomposition lookup 2 subtable"  } ['ccmp' ('DFLT' <'dflt' > 'cyrl' <'dflt' > 'grek' <'dflt' > 'latn' <'CAT ' 'MAH ' 'MOL ' 'NAV ' 'ROM ' 'dflt' > ) ]

StartChar: .notdef
Encoding: 65536 -1 0
Width: 600
Flags: W
LayerCount: 2
Fore
SplineSet
94 0 m 1,0,-1
 94 714 l 1,1,-1
 505 714 l 1,2,-1
 505 0 l 1,3,-1
 94 0 l 1,0,-1
145 51 m 1,4,-1
 454 51 l 1,5,-1
 454 663 l 1,6,-1
 145 663 l 1,7,-1
 145 51 l 1,4,-1
EndSplineSet
EndChar

StartChar: exclam
Encoding: 33 33 4
Width: 232
Flags: W
LayerCount: 2
Fore
SplineSet
133 179 m 1,0,-1
 101 179 l 1,1,-1
 95 714 l 1,2,-1
 139 714 l 1,3,-1
 133 179 l 1,0,-1
82 29 m 256,4,5
 82 46 82 46 90 57 c 128,-1,6
 98 68 98 68 115 68 c 0,7,8
 134 68 134 68 141.5 57 c 128,-1,9
 149 46 149 46 149 29 c 256,10,11
 149 12 149 12 141.5 1.5 c 128,-1,12
 134 -9 134 -9 115 -9 c 0,13,14
 98 -9 98 -9 90 1.5 c 128,-1,15
 82 12 82 12 82 29 c 256,4,5
EndSplineSet
Substitution2: "'smcp' Lowercase to Small Capitals lookup 34 subtable" exclam.sc
Substitution2: "'c2sc' Capitals to Small Capitals lookup 33 subtable" exclam.sc
EndChar

StartChar: quotedbl
Encoding: 34 34 5
Width: 338
Flags: W
LayerCount: 2
Fore
SplineSet
113 714 m 1,0,-1
 106 456 l 1,1,-1
 79 456 l 1,2,-1
 71 714 l 1,3,-1
 113 714 l 1,0,-1
266 714 m 1,4,-1
 259 456 l 1,5,-1
 232 456 l 1,6,-1
 225 714 l 1,7,-1
 266 714 l 1,4,-1
EndSplineSet
EndChar

StartChar: numbersign
Encoding: 35 35 6
Width: 646
Flags: W
LayerCount: 2
Fore
SplineSet
470 457 m 1,0,-1
 431 256 l 1,1,-1
 580 256 l 1,2,-1
 580 223 l 1,3,-1
 425 223 l 1,4,-1
 381 0 l 1,5,-1
 347 0 l 1,6,-1
 390 223 l 1,7,-1
 203 223 l 1,8,-1
 160 0 l 1,9,-1
 126 0 l 1,10,-1
 169 223 l 1,11,-1
 27 223 l 1,12,-1
 27 256 l 1,13,-1
 174 256 l 1,14,-1
 214 457 l 1,15,-1
 66 457 l 1,16,-1
 66 489 l 1,17,-1
 219 489 l 1,18,-1
 262 714 l 1,19,-1
 297 714 l 1,20,-1
 254 489 l 1,21,-1
 442 489 l 1,22,-1
 485 714 l 1,23,-1
 519 714 l 1,24,-1
 475 489 l 1,25,-1
 618 489 l 1,26,-1
 618 457 l 1,27,-1
 470 457 l 1,0,-1
209 256 m 1,28,-1
 396 256 l 1,29,-1
 435 457 l 1,30,-1
 248 457 l 1,31,-1
 209 256 l 1,28,-1
EndSplineSet
EndChar

StartChar: dollar
Encoding: 36 36 7
Width: 570
Flags: W
LayerCount: 2
Fore
SplineSet
253 -58 m 1,0,-1
 253 18 l 1,1,2
 192 19 192 19 145 28 c 128,-1,3
 98 37 98 37 66 48 c 1,4,-1
 66 88 l 1,5,6
 100 74 100 74 149.5 64 c 128,-1,7
 199 54 199 54 253 53 c 1,8,-1
 253 348 l 1,9,10
 198 367 198 367 155.5 389 c 128,-1,11
 113 411 113 411 88.5 444.5 c 128,-1,12
 64 478 64 478 64 530 c 0,13,14
 64 608 64 608 117 650 c 128,-1,15
 170 692 170 692 253 697 c 1,16,-1
 253 759 l 1,17,-1
 285 759 l 1,18,-1
 285 698 l 1,19,20
 328 696 328 696 369 687 c 128,-1,21
 410 678 410 678 450 660 c 1,22,-1
 436 627 l 1,23,24
 396 645 396 645 357.5 653 c 128,-1,25
 319 661 319 661 285 662 c 1,26,-1
 285 375 l 1,27,28
 343 355 343 355 386.5 333 c 128,-1,29
 430 311 430 311 454.5 278.5 c 128,-1,30
 479 246 479 246 479 193 c 0,31,32
 479 111 479 111 424.5 67.5 c 128,-1,33
 370 24 370 24 285 19 c 1,34,-1
 285 -58 l 1,35,-1
 253 -58 l 1,0,-1
253 387 m 1,36,-1
 253 662 l 1,37,38
 188 659 188 659 145.5 627 c 128,-1,39
 103 595 103 595 103 533 c 0,40,41
 103 490 103 490 123 463.5 c 128,-1,42
 143 437 143 437 177 419.5 c 128,-1,43
 211 402 211 402 253 387 c 1,36,-1
285 54 m 1,44,45
 354 58 354 58 397 92 c 128,-1,46
 440 126 440 126 440 192 c 0,47,48
 440 231 440 231 421.5 256.5 c 128,-1,49
 403 282 403 282 368.5 300 c 128,-1,50
 334 318 334 318 285 336 c 1,51,-1
 285 54 l 1,44,45
EndSplineSet
EndChar

StartChar: percent
Encoding: 37 37 8
Width: 801
Flags: W
LayerCount: 2
Fore
SplineSet
197 724 m 0,0,1
 267 724 267 724 301 666.5 c 128,-1,2
 335 609 335 609 335 501 c 0,3,4
 335 389 335 389 298.5 332.5 c 128,-1,5
 262 276 262 276 195 276 c 256,6,7
 128 276 128 276 92.5 333.5 c 128,-1,8
 57 391 57 391 57 501 c 256,9,10
 57 611 57 611 93.5 667.5 c 128,-1,11
 130 724 130 724 197 724 c 0,0,1
618 714 m 1,12,-1
 222 0 l 1,13,-1
 184 0 l 1,14,-1
 580 714 l 1,15,-1
 618 714 l 1,12,-1
197 691 m 0,16,17
 147 691 147 691 120 644 c 128,-1,18
 93 597 93 597 93 501 c 0,19,20
 93 309 93 309 195 309 c 0,21,22
 299 309 299 309 299 501 c 0,23,24
 299 594 299 594 274.5 642.5 c 128,-1,25
 250 691 250 691 197 691 c 0,16,17
605 438 m 0,26,27
 675 438 675 438 709.5 380.5 c 128,-1,28
 744 323 744 323 744 215 c 0,29,30
 744 103 744 103 707 46.5 c 128,-1,31
 670 -10 670 -10 603 -10 c 256,32,33
 536 -10 536 -10 500.5 47.5 c 128,-1,34
 465 105 465 105 465 215 c 256,35,36
 465 325 465 325 502 381.5 c 128,-1,37
 539 438 539 438 605 438 c 0,26,27
605 405 m 0,38,39
 556 405 556 405 529 358 c 128,-1,40
 502 311 502 311 502 215 c 0,41,42
 502 23 502 23 603 23 c 0,43,44
 707 23 707 23 707 215 c 0,45,46
 707 308 707 308 682.5 356.5 c 128,-1,47
 658 405 658 405 605 405 c 0,38,39
EndSplineSet
EndChar

StartChar: ampersand
Encoding: 38 38 9
Width: 708
Flags: W
LayerCount: 2
Fore
SplineSet
304 725 m 0,0,1
 374 725 374 725 418.5 686 c 128,-1,2
 463 647 463 647 463 579 c 0,3,4
 463 512 463 512 418 468 c 128,-1,5
 373 424 373 424 298 387 c 1,6,-1
 531 153 l 1,7,8
 560 188 560 188 582.5 234 c 128,-1,9
 605 280 605 280 617 334 c 1,10,-1
 657 334 l 1,11,12
 642 272 642 272 616 220.5 c 128,-1,13
 590 169 590 169 556 126 c 1,14,-1
 680 0 l 1,15,-1
 628 0 l 1,16,-1
 531 101 l 1,17,18
 484 52 484 52 426 21 c 128,-1,19
 368 -10 368 -10 280 -10 c 0,20,21
 182 -10 182 -10 121.5 39 c 128,-1,22
 61 88 61 88 61 180 c 0,23,24
 61 235 61 235 82 272.5 c 128,-1,25
 103 310 103 310 142.5 339 c 128,-1,26
 182 368 182 368 238 395 c 1,27,28
 190 444 190 444 162.5 483 c 128,-1,29
 135 522 135 522 135 575 c 0,30,31
 135 643 135 643 181.5 684 c 128,-1,32
 228 725 228 725 304 725 c 0,0,1
303 690 m 0,33,34
 243 690 243 690 208.5 659 c 128,-1,35
 174 628 174 628 174 575 c 0,36,37
 174 531 174 531 199 495 c 128,-1,38
 224 459 224 459 271 412 c 1,39,40
 344 445 344 445 384 483.5 c 128,-1,41
 424 522 424 522 424 579 c 0,42,43
 424 631 424 631 391 660.5 c 128,-1,44
 358 690 358 690 303 690 c 0,33,34
263 370 m 1,45,46
 211 344 211 344 175 319.5 c 128,-1,47
 139 295 139 295 120 262.5 c 128,-1,48
 101 230 101 230 101 181 c 0,49,50
 101 108 101 108 150.5 67 c 128,-1,51
 200 26 200 26 281 26 c 0,52,53
 360 26 360 26 411.5 53 c 128,-1,54
 463 80 463 80 506 125 c 1,55,-1
 263 370 l 1,45,46
EndSplineSet
Substitution2: "'smcp' Lowercase to Small Capitals lookup 34 subtable" ampersand.sc
Substitution2: "'c2sc' Capitals to Small Capitals lookup 33 subtable" ampersand.sc
EndChar

StartChar: quotesingle
Encoding: 39 39 10
Width: 183
Flags: W
LayerCount: 2
Fore
SplineSet
113 714 m 1,0,-1
 106 456 l 1,1,-1
 79 456 l 1,2,-1
 71 714 l 1,3,-1
 113 714 l 1,0,-1
EndSplineSet
EndChar

StartChar: parenleft
Encoding: 40 40 11
Width: 264
Flags: W
LayerCount: 2
Fore
SplineSet
42 274 m 0,0,1
 42 404 42 404 79.5 517.5 c 128,-1,2
 117 631 117 631 187 714 c 1,3,-1
 230 714 l 1,4,5
 154 625 154 625 117.5 512.5 c 128,-1,6
 81 400 81 400 81 275 c 0,7,8
 81 152 81 152 118.5 42 c 128,-1,9
 156 -68 156 -68 230 -158 c 1,10,-1
 187 -158 l 1,11,12
 117 -73 117 -73 79.5 36 c 128,-1,13
 42 145 42 145 42 274 c 0,0,1
EndSplineSet
Substitution2: "'smcp' Lowercase to Small Capitals lookup 34 subtable" parenleft.sc
Substitution2: "'c2sc' Capitals to Small Capitals lookup 33 subtable" parenleft.sc
Substitution2: "'sups' Superscript lookup 19 subtable" uni207D
Substitution2: "'subs' Subscript lookup 18 subtable" uni208D
EndChar

StartChar: parenright
Encoding: 41 41 12
Width: 264
Flags: W
LayerCount: 2
Fore
SplineSet
223 280 m 256,0,1
 223 150 223 150 185.5 37 c 128,-1,2
 148 -76 148 -76 78 -158 c 1,3,-1
 35 -158 l 1,4,5
 111 -69 111 -69 147.5 43.5 c 128,-1,6
 184 156 184 156 184 280 c 0,7,8
 184 403 184 403 146.5 513.5 c 128,-1,9
 109 624 109 624 35 714 c 1,10,-1
 78 714 l 1,11,12
 148 628 148 628 185.5 519 c 128,-1,13
 223 410 223 410 223 280 c 256,0,1
EndSplineSet
Substitution2: "'smcp' Lowercase to Small Capitals lookup 34 subtable" parenright.sc
Substitution2: "'c2sc' Capitals to Small Capitals lookup 33 subtable" parenright.sc
Substitution2: "'sups' Superscript lookup 19 subtable" uni207E
Substitution2: "'subs' Subscript lookup 18 subtable" uni208E
EndChar

StartChar: asterisk
Encoding: 42 42 13
Width: 551
Flags: W
LayerCount: 2
Fore
SplineSet
294 758 m 1,0,-1
 285 555 l 1,1,-1
 479 621 l 1,2,-1
 488 581 l 1,3,-1
 295 533 l 1,4,-1
 418 371 l 1,5,-1
 382 347 l 1,6,-1
 273 518 l 1,7,-1
 166 348 l 1,8,-1
 129 371 l 1,9,-1
 252 533 l 1,10,-1
 58 581 l 1,11,-1
 68 621 l 1,12,-1
 261 555 l 1,13,-1
 252 758 l 1,14,-1
 294 758 l 1,0,-1
EndSplineSet
EndChar

StartChar: plus
Encoding: 43 43 14
Width: 570
Flags: W
LayerCount: 2
Fore
SplineSet
302 370 m 1,0,-1
 516 370 l 1,1,-1
 516 336 l 1,2,-1
 302 336 l 1,3,-1
 302 121 l 1,4,-1
 268 121 l 1,5,-1
 268 336 l 1,6,-1
 54 336 l 1,7,-1
 54 370 l 1,8,-1
 268 370 l 1,9,-1
 268 585 l 1,10,-1
 302 585 l 1,11,-1
 302 370 l 1,0,-1
EndSplineSet
Substitution2: "'sups' Superscript lookup 19 subtable" uni207A
Substitution2: "'subs' Subscript lookup 18 subtable" uni208A
EndChar

StartChar: comma
Encoding: 44 44 15
Width: 200
Flags: W
LayerCount: 2
Fore
SplineSet
135 116 m 1,0,-1
 139 104 l 1,1,2
 127 49 127 49 109 -13.5 c 128,-1,3
 91 -76 91 -76 69 -129 c 1,4,-1
 39 -129 l 1,5,6
 78 7 78 7 93 116 c 1,7,-1
 135 116 l 1,0,-1
EndSplineSet
EndChar

StartChar: hyphen
Encoding: 45 45 16
Width: 322
Flags: W
LayerCount: 2
Fore
SplineSet
40 253 m 1,0,-1
 40 289 l 1,1,-1
 282 289 l 1,2,-1
 282 253 l 1,3,-1
 40 253 l 1,0,-1
EndSplineSet
EndChar

StartChar: period
Encoding: 46 46 17
Width: 230
Flags: W
LayerCount: 2
Fore
SplineSet
82 29 m 256,0,1
 82 46 82 46 90 57 c 128,-1,2
 98 68 98 68 115 68 c 0,3,4
 134 68 134 68 141.5 57 c 128,-1,5
 149 46 149 46 149 29 c 256,6,7
 149 12 149 12 141.5 1.5 c 128,-1,8
 134 -9 134 -9 115 -9 c 0,9,10
 98 -9 98 -9 90 1.5 c 128,-1,11
 82 12 82 12 82 29 c 256,0,1
EndSplineSet
EndChar

StartChar: slash
Encoding: 47 47 18
Width: 332
Flags: W
LayerCount: 2
Fore
SplineSet
320 714 m 1,0,-1
 52 0 l 1,1,-1
 12 0 l 1,2,-1
 280 714 l 1,3,-1
 320 714 l 1,0,-1
EndSplineSet
Substitution2: "'frac' Diagonal Fractions lookup 22 subtable" fraction
EndChar

StartChar: zero
Encoding: 48 48 19
Width: 570
Flags: W
LayerCount: 2
Fore
SplineSet
253 360 m 132,-1,1
 253 377 253 377 261 388 c 132,-1,2
 269 399 269 399 286 399 c 4,3,4
 305 399 305 399 312.5 388 c 132,-1,5
 320 377 320 377 320 360 c 132,-1,6
 320 343 320 343 312.5 332.5 c 132,-1,7
 305 322 305 322 286 322 c 4,8,9
 269 322 269 322 261 332.5 c 132,-1,0
 253 343 253 343 253 360 c 132,-1,1
510 360 m 0,10,11
 510 178 510 178 455 84 c 128,-1,12
 400 -10 400 -10 285 -10 c 0,13,14
 176 -10 176 -10 117.5 82.5 c 128,-1,15
 59 175 59 175 59 360 c 0,16,17
 59 466 59 466 81 548.5 c 128,-1,18
 103 631 103 631 153 678 c 128,-1,19
 203 725 203 725 286 725 c 0,20,21
 370 725 370 725 419 679 c 128,-1,22
 468 633 468 633 489 550.5 c 128,-1,23
 510 468 510 468 510 360 c 0,10,11
99 360 m 0,24,25
 99 190 99 190 144.5 107.5 c 128,-1,26
 190 25 190 25 285 25 c 0,27,28
 383 25 383 25 427 107.5 c 128,-1,29
 471 190 471 190 471 360 c 0,30,31
 471 461 471 461 454.5 535 c 128,-1,32
 438 609 438 609 398 649.5 c 128,-1,33
 358 690 358 690 286 690 c 0,34,35
 215 690 215 690 174 648.5 c 128,-1,36
 133 607 133 607 116 532.5 c 128,-1,37
 99 458 99 458 99 360 c 0,24,25
EndSplineSet
Substitution2: "'zero' Slashed Zero lookup 37 subtable" zero.slash
Substitution2: "'case' Case-Sensitive Forms lookup 35 subtable" zero.lf
Substitution2: "'onum' Oldstyle Figures lookup 32 subtable" zero.tosf
Substitution2: "'pnum' Proportional Numbers lookup 30 subtable" zero.lf
Substitution2: "'frac' Diagonal Fractions lookup 23 subtable" zero.numr
Substitution2: "'dnom' Denominators lookup 21 subtable" zero.dnom
Substitution2: "'numr' Numerators lookup 20 subtable" zero.numr
Substitution2: "'sups' Superscript lookup 19 subtable" uni2070
Substitution2: "'subs' Subscript lookup 18 subtable" uni2080
EndChar

StartChar: one
Encoding: 49 49 20
Width: 570
Flags: W
LayerCount: 2
Fore
SplineSet
327 0 m 1,0,-1
 289 0 l 1,1,-1
 289 550 l 2,2,3
 289 593 289 593 289.5 621.5 c 128,-1,4
 290 650 290 650 291 672 c 1,5,6
 278 661 278 661 266 651 c 128,-1,7
 254 641 254 641 235 627 c 2,8,-1
 121 542 l 1,9,-1
 99 570 l 1,10,-1
 294 714 l 1,11,-1
 327 714 l 1,12,-1
 327 0 l 1,0,-1
EndSplineSet
Substitution2: "'case' Case-Sensitive Forms lookup 35 subtable" one.lf
Substitution2: "'onum' Oldstyle Figures lookup 32 subtable" one.tosf
Substitution2: "'pnum' Proportional Numbers lookup 30 subtable" one.lf
Substitution2: "'frac' Diagonal Fractions lookup 23 subtable" one.numr
Substitution2: "'dnom' Denominators lookup 21 subtable" one.dnom
Substitution2: "'numr' Numerators lookup 20 subtable" one.numr
Substitution2: "'sups' Superscript lookup 19 subtable" uni00B9
Substitution2: "'subs' Subscript lookup 18 subtable" uni2081
EndChar

StartChar: two
Encoding: 50 50 21
Width: 570
Flags: W
LayerCount: 2
Fore
SplineSet
497 0 m 1,0,-1
 57 0 l 1,1,-1
 57 33 l 1,2,-1
 273 260 l 2,3,4
 322 312 322 312 356 354.5 c 128,-1,5
 390 397 390 397 407.5 440 c 128,-1,6
 425 483 425 483 425 537 c 0,7,8
 425 608 425 608 383.5 648.5 c 128,-1,9
 342 689 342 689 269 689 c 0,10,11
 177 689 177 689 97 624 c 1,12,-1
 75 652 l 1,13,14
 120 689 120 689 171 706.5 c 128,-1,15
 222 724 222 724 269 724 c 0,16,17
 358 724 358 724 411.5 673 c 128,-1,18
 465 622 465 622 465 538 c 0,19,20
 465 479 465 479 445.5 431.5 c 128,-1,21
 426 384 426 384 390 339 c 128,-1,22
 354 294 354 294 304 243 c 2,23,-1
 108 38 l 1,24,-1
 108 36 l 1,25,-1
 497 36 l 1,26,-1
 497 0 l 1,0,-1
EndSplineSet
Substitution2: "'case' Case-Sensitive Forms lookup 35 subtable" two.lf
Substitution2: "'onum' Oldstyle Figures lookup 32 subtable" two.tosf
Substitution2: "'pnum' Proportional Numbers lookup 30 subtable" two.lf
Substitution2: "'frac' Diagonal Fractions lookup 23 subtable" two.numr
Substitution2: "'dnom' Denominators lookup 21 subtable" two.dnom
Substitution2: "'numr' Numerators lookup 20 subtable" two.numr
Substitution2: "'sups' Superscript lookup 19 subtable" uni00B2
Substitution2: "'subs' Subscript lookup 18 subtable" uni2082
EndChar

StartChar: three
Encoding: 51 51 22
Width: 570
Flags: W
LayerCount: 2
Fore
SplineSet
475 550 m 0,0,1
 475 480 475 480 432 433.5 c 128,-1,2
 389 387 389 387 323 375 c 1,3,-1
 323 373 l 1,4,5
 407 362 407 362 452 317.5 c 128,-1,6
 497 273 497 273 497 196 c 0,7,8
 497 106 497 106 433.5 48 c 128,-1,9
 370 -10 370 -10 246 -10 c 0,10,11
 188 -10 188 -10 137 1 c 128,-1,12
 86 12 86 12 47 31 c 1,13,-1
 47 70 l 1,14,15
 86 50 86 50 139 37.5 c 128,-1,16
 192 25 192 25 246 25 c 0,17,18
 352 25 352 25 404 71.5 c 128,-1,19
 456 118 456 118 456 196 c 0,20,21
 456 253 456 253 428.5 287.5 c 128,-1,22
 401 322 401 322 351.5 337.5 c 128,-1,23
 302 353 302 353 236 353 c 2,24,-1
 156 353 l 1,25,-1
 156 388 l 1,26,-1
 236 388 l 2,27,28
 290 388 290 388 335 405.5 c 128,-1,29
 380 423 380 423 407.5 458.5 c 128,-1,30
 435 494 435 494 435 549 c 0,31,32
 435 620 435 620 390.5 654.5 c 128,-1,33
 346 689 346 689 273 689 c 0,34,35
 217 689 217 689 168.5 672 c 128,-1,36
 120 655 120 655 74 621 c 1,37,-1
 54 650 l 1,38,39
 97 683 97 683 151.5 703.5 c 128,-1,40
 206 724 206 724 273 724 c 0,41,42
 365 724 365 724 420 678 c 128,-1,43
 475 632 475 632 475 550 c 0,0,1
EndSplineSet
Substitution2: "'case' Case-Sensitive Forms lookup 35 subtable" three.lf
Substitution2: "'onum' Oldstyle Figures lookup 32 subtable" three.tosf
Substitution2: "'pnum' Proportional Numbers lookup 30 subtable" three.lf
Substitution2: "'frac' Diagonal Fractions lookup 23 subtable" three.numr
Substitution2: "'dnom' Denominators lookup 21 subtable" three.dnom
Substitution2: "'numr' Numerators lookup 20 subtable" three.numr
Substitution2: "'sups' Superscript lookup 19 subtable" uni00B3
Substitution2: "'subs' Subscript lookup 18 subtable" uni2083
EndChar

StartChar: four
Encoding: 52 52 23
Width: 570
Flags: W
LayerCount: 2
Fore
SplineSet
558 188 m 1,0,-1
 430 188 l 1,1,-1
 430 0 l 1,2,-1
 392 0 l 1,3,-1
 392 188 l 1,4,-1
 24 188 l 1,5,-1
 24 217 l 1,6,-1
 390 718 l 1,7,-1
 430 718 l 1,8,-1
 430 223 l 1,9,-1
 558 223 l 1,10,-1
 558 188 l 1,0,-1
392 223 m 1,11,-1
 392 512 l 2,12,13
 392 554 392 554 392.5 580.5 c 128,-1,14
 393 607 393 607 393.5 627.5 c 128,-1,15
 394 648 394 648 394 673 c 1,16,-1
 392 673 l 1,17,18
 376 648 376 648 364 629 c 128,-1,19
 352 610 352 610 332 583 c 2,20,-1
 70 223 l 1,21,-1
 392 223 l 1,11,-1
EndSplineSet
Substitution2: "'case' Case-Sensitive Forms lookup 35 subtable" four.lf
Substitution2: "'onum' Oldstyle Figures lookup 32 subtable" four.tosf
Substitution2: "'pnum' Proportional Numbers lookup 30 subtable" four.lf
Substitution2: "'frac' Diagonal Fractions lookup 23 subtable" four.numr
Substitution2: "'dnom' Denominators lookup 21 subtable" four.dnom
Substitution2: "'numr' Numerators lookup 20 subtable" four.numr
Substitution2: "'sups' Superscript lookup 19 subtable" uni2074
Substitution2: "'subs' Subscript lookup 18 subtable" uni2084
EndChar

StartChar: five
Encoding: 53 53 24
Width: 570
Flags: W
LayerCount: 2
Fore
SplineSet
274 428 m 0,0,1
 382 428 382 428 444.5 374 c 128,-1,2
 507 320 507 320 507 219 c 0,3,4
 507 148 507 148 475.5 96.5 c 128,-1,5
 444 45 444 45 386.5 17.5 c 128,-1,6
 329 -10 329 -10 252 -10 c 0,7,8
 195 -10 195 -10 149.5 1.5 c 128,-1,9
 104 13 104 13 72 31 c 1,10,-1
 72 72 l 1,11,12
 106 52 106 52 152.5 38.5 c 128,-1,13
 199 25 199 25 252 25 c 0,14,15
 350 25 350 25 408.5 75.5 c 128,-1,16
 467 126 467 126 467 217 c 0,17,18
 467 300 467 300 417 346.5 c 128,-1,19
 367 393 367 393 268 393 c 0,20,21
 225 393 225 393 188.5 387.5 c 128,-1,22
 152 382 152 382 118 372 c 1,23,-1
 94 390 l 1,24,-1
 124 714 l 1,25,-1
 463 714 l 1,26,-1
 463 678 l 1,27,-1
 157 678 l 1,28,-1
 134 410 l 1,29,30
 157 415 157 415 191.5 421.5 c 128,-1,31
 226 428 226 428 274 428 c 0,0,1
EndSplineSet
Substitution2: "'case' Case-Sensitive Forms lookup 35 subtable" five.lf
Substitution2: "'onum' Oldstyle Figures lookup 32 subtable" five.tosf
Substitution2: "'pnum' Proportional Numbers lookup 30 subtable" five.lf
Substitution2: "'frac' Diagonal Fractions lookup 23 subtable" five.numr
Substitution2: "'dnom' Denominators lookup 21 subtable" five.dnom
Substitution2: "'numr' Numerators lookup 20 subtable" five.numr
Substitution2: "'sups' Superscript lookup 19 subtable" uni2075
Substitution2: "'subs' Subscript lookup 18 subtable" uni2085
EndChar

StartChar: six
Encoding: 54 54 25
Width: 570
Flags: W
LayerCount: 2
Fore
SplineSet
65 303 m 0,0,1
 65 517 65 517 146 621.5 c 128,-1,2
 227 726 227 726 370 726 c 0,3,4
 398 726 398 726 422 722.5 c 128,-1,5
 446 719 446 719 466 713 c 1,6,-1
 466 677 l 1,7,8
 448 683 448 683 423 687 c 128,-1,9
 398 691 398 691 370 691 c 0,10,11
 248 691 248 691 178 603.5 c 128,-1,12
 108 516 108 516 103 330 c 1,13,-1
 106 330 l 1,14,15
 120 357 120 357 146 382.5 c 128,-1,16
 172 408 172 408 212.5 424.5 c 128,-1,17
 253 441 253 441 307 441 c 0,18,19
 404 441 404 441 459.5 383 c 128,-1,20
 515 325 515 325 515 226 c 0,21,22
 515 156 515 156 489.5 102.5 c 128,-1,23
 464 49 464 49 415.5 19.5 c 128,-1,24
 367 -10 367 -10 299 -10 c 0,25,26
 238 -10 238 -10 193.5 15.5 c 128,-1,27
 149 41 149 41 120.5 85 c 128,-1,28
 92 129 92 129 78.5 185 c 128,-1,29
 65 241 65 241 65 303 c 0,0,1
299 25 m 0,30,31
 384 25 384 25 430 78 c 128,-1,32
 476 131 476 131 476 226 c 0,33,34
 476 310 476 310 433 358.5 c 128,-1,35
 390 407 390 407 303 407 c 0,36,37
 243 407 243 407 199.5 383 c 128,-1,38
 156 359 156 359 132.5 324 c 128,-1,39
 109 289 109 289 109 256 c 0,40,41
 109 226 109 226 118 186.5 c 128,-1,42
 127 147 127 147 148 110 c 128,-1,43
 169 73 169 73 206 49 c 128,-1,44
 243 25 243 25 299 25 c 0,30,31
EndSplineSet
Substitution2: "'case' Case-Sensitive Forms lookup 35 subtable" six.lf
Substitution2: "'onum' Oldstyle Figures lookup 32 subtable" six.tosf
Substitution2: "'pnum' Proportional Numbers lookup 30 subtable" six.lf
Substitution2: "'frac' Diagonal Fractions lookup 23 subtable" six.numr
Substitution2: "'dnom' Denominators lookup 21 subtable" six.dnom
Substitution2: "'numr' Numerators lookup 20 subtable" six.numr
Substitution2: "'sups' Superscript lookup 19 subtable" uni2076
Substitution2: "'subs' Subscript lookup 18 subtable" uni2086
EndChar

StartChar: seven
Encoding: 55 55 26
Width: 570
Flags: W
LayerCount: 2
Fore
SplineSet
173 0 m 1,0,-1
 470 678 l 1,1,-1
 55 678 l 1,2,-1
 55 714 l 1,3,-1
 513 714 l 1,4,-1
 513 687 l 1,5,-1
 216 0 l 1,6,-1
 173 0 l 1,0,-1
EndSplineSet
Substitution2: "'case' Case-Sensitive Forms lookup 35 subtable" seven.lf
Substitution2: "'onum' Oldstyle Figures lookup 32 subtable" seven.tosf
Substitution2: "'pnum' Proportional Numbers lookup 30 subtable" seven.lf
Substitution2: "'frac' Diagonal Fractions lookup 23 subtable" seven.numr
Substitution2: "'dnom' Denominators lookup 21 subtable" seven.dnom
Substitution2: "'numr' Numerators lookup 20 subtable" seven.numr
Substitution2: "'sups' Superscript lookup 19 subtable" uni2077
Substitution2: "'subs' Subscript lookup 18 subtable" uni2087
EndChar

StartChar: eight
Encoding: 56 56 27
Width: 570
Flags: W
LayerCount: 2
Fore
SplineSet
283 724 m 0,0,1
 374 724 374 724 428.5 680.5 c 128,-1,2
 483 637 483 637 483 559 c 0,3,4
 483 494 483 494 439 452.5 c 128,-1,5
 395 411 395 411 324 381 c 1,6,7
 408 351 408 351 457.5 304.5 c 128,-1,8
 507 258 507 258 507 182 c 0,9,10
 507 121 507 121 477 78 c 128,-1,11
 447 35 447 35 396 12.5 c 128,-1,12
 345 -10 345 -10 281 -10 c 0,13,14
 215 -10 215 -10 165.5 13 c 128,-1,15
 116 36 116 36 88.5 78 c 128,-1,16
 61 120 61 120 61 176 c 0,17,18
 61 256 61 256 110.5 303.5 c 128,-1,19
 160 351 160 351 240 379 c 1,20,21
 197 397 197 397 161.5 420 c 128,-1,22
 126 443 126 443 105 476 c 128,-1,23
 84 509 84 509 84 558 c 0,24,25
 84 609 84 609 109.5 646.5 c 128,-1,26
 135 684 135 684 180 704 c 128,-1,27
 225 724 225 724 283 724 c 0,0,1
283 690 m 0,28,29
 213 690 213 690 168 655.5 c 128,-1,30
 123 621 123 621 123 557 c 0,31,32
 123 495 123 495 168.5 459.5 c 128,-1,33
 214 424 214 424 287 398 c 1,34,35
 363 429 363 429 403.5 464.5 c 128,-1,36
 444 500 444 500 444 559 c 0,37,38
 444 624 444 624 401 657 c 128,-1,39
 358 690 358 690 283 690 c 0,28,29
100 176 m 0,40,41
 100 106 100 106 149 65 c 128,-1,42
 198 24 198 24 280 24 c 0,43,44
 363 24 363 24 415.5 65 c 128,-1,45
 468 106 468 106 468 182 c 0,46,47
 468 244 468 244 426 284 c 128,-1,48
 384 324 384 324 304 353 c 2,49,-1
 279 362 l 1,50,51
 228 344 228 344 187.5 320 c 128,-1,52
 147 296 147 296 123.5 261 c 128,-1,53
 100 226 100 226 100 176 c 0,40,41
EndSplineSet
Substitution2: "'case' Case-Sensitive Forms lookup 35 subtable" eight.lf
Substitution2: "'onum' Oldstyle Figures lookup 32 subtable" eight.tosf
Substitution2: "'pnum' Proportional Numbers lookup 30 subtable" eight.lf
Substitution2: "'frac' Diagonal Fractions lookup 23 subtable" eight.numr
Substitution2: "'dnom' Denominators lookup 21 subtable" eight.dnom
Substitution2: "'numr' Numerators lookup 20 subtable" eight.numr
Substitution2: "'sups' Superscript lookup 19 subtable" uni2078
Substitution2: "'subs' Subscript lookup 18 subtable" uni2088
EndChar

StartChar: nine
Encoding: 57 57 28
Width: 570
Flags: W
LayerCount: 2
Fore
SplineSet
504 412 m 0,0,1
 504 198 504 198 423 93 c 128,-1,2
 342 -12 342 -12 199 -12 c 0,3,4
 172 -12 172 -12 143 -8.5 c 128,-1,5
 114 -5 114 -5 95 1 c 1,6,-1
 95 38 l 1,7,8
 113 32 113 32 141 27.5 c 128,-1,9
 169 23 169 23 199 23 c 0,10,11
 320 23 320 23 391 111.5 c 128,-1,12
 462 200 462 200 466 385 c 1,13,-1
 463 385 l 1,14,15
 450 358 450 358 423 332 c 128,-1,16
 396 306 396 306 356 289.5 c 128,-1,17
 316 273 316 273 261 273 c 0,18,19
 163 273 163 273 108.5 331.5 c 128,-1,20
 54 390 54 390 54 489 c 0,21,22
 54 595 54 595 111 659.5 c 128,-1,23
 168 724 168 724 271 724 c 0,24,25
 354 724 354 724 405 681 c 128,-1,26
 456 638 456 638 480 567 c 128,-1,27
 504 496 504 496 504 412 c 0,0,1
271 689 m 0,28,29
 186 689 186 689 139.5 636.5 c 128,-1,30
 93 584 93 584 93 490 c 0,31,32
 93 405 93 405 136 356 c 128,-1,33
 179 307 179 307 266 307 c 0,34,35
 326 307 326 307 369.5 331.5 c 128,-1,36
 413 356 413 356 436.5 391 c 128,-1,37
 460 426 460 426 460 460 c 0,38,39
 460 490 460 490 451.5 528.5 c 128,-1,40
 443 567 443 567 422 604 c 128,-1,41
 401 641 401 641 364 665 c 128,-1,42
 327 689 327 689 271 689 c 0,28,29
EndSplineSet
Substitution2: "'case' Case-Sensitive Forms lookup 35 subtable" nine.lf
Substitution2: "'onum' Oldstyle Figures lookup 32 subtable" nine.tosf
Substitution2: "'pnum' Proportional Numbers lookup 30 subtable" nine.lf
Substitution2: "'frac' Diagonal Fractions lookup 23 subtable" nine.numr
Substitution2: "'dnom' Denominators lookup 21 subtable" nine.dnom
Substitution2: "'numr' Numerators lookup 20 subtable" nine.numr
Substitution2: "'sups' Superscript lookup 19 subtable" uni2079
Substitution2: "'subs' Subscript lookup 18 subtable" uni2089
EndChar

StartChar: colon
Encoding: 58 58 29
Width: 230
Flags: W
LayerCount: 2
Fore
SplineSet
82 497 m 256,0,1
 82 514 82 514 90 525 c 128,-1,2
 98 536 98 536 115 536 c 0,3,4
 134 536 134 536 141.5 525 c 128,-1,5
 149 514 149 514 149 497 c 256,6,7
 149 480 149 480 141.5 469.5 c 128,-1,8
 134 459 134 459 115 459 c 0,9,10
 98 459 98 459 90 469.5 c 128,-1,11
 82 480 82 480 82 497 c 256,0,1
82 29 m 256,12,13
 82 46 82 46 90 57 c 128,-1,14
 98 68 98 68 115 68 c 0,15,16
 134 68 134 68 141.5 57 c 128,-1,17
 149 46 149 46 149 29 c 256,18,19
 149 12 149 12 141.5 1.5 c 128,-1,20
 134 -9 134 -9 115 -9 c 0,21,22
 98 -9 98 -9 90 1.5 c 128,-1,23
 82 12 82 12 82 29 c 256,12,13
EndSplineSet
EndChar

StartChar: semicolon
Encoding: 59 59 30
Width: 230
Flags: W
LayerCount: 2
Fore
SplineSet
82 497 m 256,0,1
 82 514 82 514 89.5 525 c 128,-1,2
 97 536 97 536 114 536 c 0,3,4
 134 536 134 536 141.5 525 c 128,-1,5
 149 514 149 514 149 497 c 256,6,7
 149 480 149 480 141.5 469.5 c 128,-1,8
 134 459 134 459 114 459 c 0,9,10
 97 459 97 459 89.5 469.5 c 128,-1,11
 82 480 82 480 82 497 c 256,0,1
133 116 m 1,12,-1
 137 104 l 1,13,14
 125 49 125 49 107 -14 c 128,-1,15
 89 -77 89 -77 68 -129 c 1,16,-1
 37 -129 l 1,17,18
 57 -59 57 -59 70.5 0.5 c 128,-1,19
 84 60 84 60 92 116 c 1,20,-1
 133 116 l 1,12,-1
EndSplineSet
EndChar

StartChar: less
Encoding: 60 60 31
Width: 570
Flags: W
LayerCount: 2
Fore
SplineSet
515 134 m 1,0,-1
 55 347 l 1,1,-1
 55 371 l 1,2,-1
 515 590 l 1,3,-1
 515 554 l 1,4,-1
 102 360 l 1,5,-1
 515 170 l 1,6,-1
 515 134 l 1,0,-1
EndSplineSet
EndChar

StartChar: equal
Encoding: 61 61 32
Width: 570
Flags: W
LayerCount: 2
Fore
SplineSet
55 438 m 1,0,-1
 55 471 l 1,1,-1
 515 471 l 1,2,-1
 515 438 l 1,3,-1
 55 438 l 1,0,-1
55 235 m 1,4,-1
 55 268 l 1,5,-1
 515 268 l 1,6,-1
 515 235 l 1,7,-1
 55 235 l 1,4,-1
EndSplineSet
Substitution2: "'sups' Superscript lookup 19 subtable" uni207C
Substitution2: "'subs' Subscript lookup 18 subtable" uni208C
EndChar

StartChar: greater
Encoding: 62 62 33
Width: 570
Flags: W
LayerCount: 2
Fore
SplineSet
55 170 m 1,0,-1
 468 360 l 1,1,-1
 55 554 l 1,2,-1
 55 590 l 1,3,-1
 515 371 l 1,4,-1
 515 347 l 1,5,-1
 55 134 l 1,6,-1
 55 170 l 1,0,-1
EndSplineSet
EndChar

StartChar: question
Encoding: 63 63 34
Width: 417
Flags: W
LayerCount: 2
Fore
SplineSet
143 179 m 1,0,-1
 143 195 l 2,1,2
 143 242 143 242 150 273 c 128,-1,3
 157 304 157 304 175.5 327.5 c 128,-1,4
 194 351 194 351 228 376 c 0,5,6
 264 403 264 403 289.5 427.5 c 128,-1,7
 315 452 315 452 328.5 481 c 128,-1,8
 342 510 342 510 342 553 c 0,9,10
 342 622 342 622 300 655 c 128,-1,11
 258 688 258 688 191 688 c 0,12,13
 152 688 152 688 117.5 679 c 128,-1,14
 83 670 83 670 47 653 c 1,15,-1
 33 688 l 1,16,17
 76 707 76 707 112 715.5 c 128,-1,18
 148 724 148 724 192 724 c 0,19,20
 278 724 278 724 329.5 681 c 128,-1,21
 381 638 381 638 381 553 c 0,22,23
 381 504 381 504 365 469.5 c 128,-1,24
 349 435 349 435 319.5 407.5 c 128,-1,25
 290 380 290 380 252 352 c 0,26,27
 224 332 224 332 208 311 c 128,-1,28
 192 290 192 290 184.5 262 c 128,-1,29
 177 234 177 234 177 192 c 2,30,-1
 177 179 l 1,31,-1
 143 179 l 1,0,-1
130 29 m 256,32,33
 130 46 130 46 137.5 57 c 128,-1,34
 145 68 145 68 162 68 c 0,35,36
 182 68 182 68 189 57 c 128,-1,37
 196 46 196 46 196 29 c 256,38,39
 196 12 196 12 189 1.5 c 128,-1,40
 182 -9 182 -9 162 -9 c 0,41,42
 145 -9 145 -9 137.5 1.5 c 128,-1,43
 130 12 130 12 130 29 c 256,32,33
EndSplineSet
Substitution2: "'smcp' Lowercase to Small Capitals lookup 34 subtable" question.sc
Substitution2: "'c2sc' Capitals to Small Capitals lookup 33 subtable" question.sc
EndChar

StartChar: at
Encoding: 64 64 35
Width: 882
Flags: W
LayerCount: 2
Fore
SplineSet
829 352 m 0,0,1
 829 285 829 285 811.5 229.5 c 128,-1,2
 794 174 794 174 759 140.5 c 128,-1,3
 724 107 724 107 670 107 c 0,4,5
 624 107 624 107 596 134 c 128,-1,6
 568 161 568 161 565 209 c 1,7,-1
 564 209 l 1,8,9
 542 156 542 156 502 131.5 c 128,-1,10
 462 107 462 107 412 107 c 0,11,12
 338 107 338 107 298 153.5 c 128,-1,13
 258 200 258 200 258 286 c 0,14,15
 258 350 258 350 284.5 400.5 c 128,-1,16
 311 451 311 451 358.5 480 c 128,-1,17
 406 509 406 509 470 509 c 0,18,19
 508 509 508 509 541.5 503.5 c 128,-1,20
 575 498 575 498 603 488 c 1,21,-1
 595 331 l 2,22,23
 594 313 594 313 593 291 c 128,-1,24
 592 269 592 269 592 248 c 0,25,26
 592 195 592 195 611 167.5 c 128,-1,27
 630 140 630 140 671 140 c 256,28,29
 712 140 712 140 739.5 167.5 c 128,-1,30
 767 195 767 195 780 243 c 128,-1,31
 793 291 793 291 793 352 c 0,32,33
 793 450 793 450 755 522.5 c 128,-1,34
 717 595 717 595 645 634.5 c 128,-1,35
 573 674 573 674 470 674 c 0,36,37
 356 674 356 674 270.5 628 c 128,-1,38
 185 582 185 582 137 494.5 c 128,-1,39
 89 407 89 407 89 284 c 0,40,41
 89 176 89 176 128 98 c 128,-1,42
 167 20 167 20 240.5 -22 c 128,-1,43
 314 -64 314 -64 418 -64 c 0,44,45
 470 -64 470 -64 523 -53 c 128,-1,46
 576 -42 576 -42 622 -23 c 1,47,-1
 622 -59 l 1,48,49
 579 -77 579 -77 527.5 -87.5 c 128,-1,50
 476 -98 476 -98 418 -98 c 0,51,52
 304 -98 304 -98 222.5 -51.5 c 128,-1,53
 141 -5 141 -5 97 80.5 c 128,-1,54
 53 166 53 166 53 283 c 0,55,56
 53 417 53 417 105.5 512 c 128,-1,57
 158 607 158 607 252 657.5 c 128,-1,58
 346 708 346 708 470 708 c 0,59,60
 580 708 580 708 660.5 664.5 c 128,-1,61
 741 621 741 621 785 541.5 c 128,-1,62
 829 462 829 462 829 352 c 0,0,1
295 286 m 0,63,64
 295 216 295 216 325 178 c 128,-1,65
 355 140 355 140 415 140 c 0,66,67
 549 140 549 140 559 317 c 2,68,-1
 567 462 l 1,69,70
 547 469 547 469 523 472.5 c 128,-1,71
 499 476 499 476 470 476 c 0,72,73
 390 476 390 476 342.5 423.5 c 128,-1,74
 295 371 295 371 295 286 c 0,63,64
EndSplineSet
EndChar

StartChar: A
Encoding: 65 65 36
Width: 590
GlyphClass: 2
Flags: W
AnchorPoint: "Anchor-3" 549 714 basechar 0
AnchorPoint: "Anchor-2" 295 714 basechar 0
AnchorPoint: "Anchor-0" 296 0 basechar 0
LayerCount: 2
Fore
SplineSet
548 0 m 1,0,-1
 448 261 l 1,1,-1
 143 261 l 1,2,-1
 41 0 l 1,3,-1
 0 0 l 1,4,-1
 281 716 l 1,5,-1
 318 716 l 1,6,-1
 589 0 l 1,7,-1
 548 0 l 1,0,-1
434 297 m 1,8,-1
 330 578 l 2,9,10
 325 594 325 594 316 619 c 128,-1,11
 307 644 307 644 298 670 c 1,12,13
 290 646 290 646 281 622 c 128,-1,14
 272 598 272 598 265 578 c 2,15,-1
 157 297 l 1,16,-1
 434 297 l 1,8,-1
EndSplineSet
Substitution2: "'c2sc' Capitals to Small Capitals lookup 33 subtable" a.sc
Substitution2: "Single Substitution lookup 28 subtable" ordfeminine
EndChar

StartChar: B
Encoding: 66 66 37
Width: 621
GlyphClass: 2
Flags: W
AnchorPoint: "Anchor-3" 601 714 basechar 0
AnchorPoint: "Anchor-2" 310 714 basechar 0
AnchorPoint: "Anchor-0" 309 0 basechar 0
LayerCount: 2
Fore
SplineSet
102 714 m 1,0,-1
 295 714 l 2,1,2
 427 714 427 714 486.5 672 c 128,-1,3
 546 630 546 630 546 541 c 0,4,5
 546 480 546 480 510 434.5 c 128,-1,6
 474 389 474 389 406 377 c 1,7,-1
 406 375 l 1,8,9
 490 362 490 362 527.5 318 c 128,-1,10
 565 274 565 274 565 203 c 0,11,12
 565 131 565 131 532.5 86 c 128,-1,13
 500 41 500 41 443 20.5 c 128,-1,14
 386 0 386 0 312 0 c 2,15,-1
 102 0 l 1,16,-1
 102 714 l 1,0,-1
141 392 m 1,17,-1
 306 392 l 2,18,19
 409 392 409 392 457 429 c 128,-1,20
 505 466 505 466 505 538 c 0,21,22
 505 613 505 613 455 645.5 c 128,-1,23
 405 678 405 678 294 678 c 2,24,-1
 141 678 l 1,25,-1
 141 392 l 1,17,-1
141 357 m 1,26,-1
 141 35 l 1,27,-1
 315 35 l 2,28,29
 416 35 416 35 470 76.5 c 128,-1,30
 524 118 524 118 524 204 c 0,31,32
 524 289 524 289 467.5 323 c 128,-1,33
 411 357 411 357 305 357 c 2,34,-1
 141 357 l 1,26,-1
EndSplineSet
Substitution2: "'c2sc' Capitals to Small Capitals lookup 33 subtable" b.sc
EndChar

StartChar: C
Encoding: 67 67 38
Width: 618
GlyphClass: 2
Flags: W
AnchorPoint: "Anchor-3" 598 714 basechar 0
AnchorPoint: "Anchor-2" 386 714 basechar 0
AnchorPoint: "Anchor-0" 368 0 basechar 0
LayerCount: 2
Fore
SplineSet
405 688 m 0,0,1
 309 688 309 688 241.5 646 c 128,-1,2
 174 604 174 604 138.5 529.5 c 128,-1,3
 103 455 103 455 103 359 c 0,4,5
 103 258 103 258 135 183.5 c 128,-1,6
 167 109 167 109 230.5 67.5 c 128,-1,7
 294 26 294 26 389 26 c 0,8,9
 444 26 444 26 489 34 c 128,-1,10
 534 42 534 42 571 55 c 1,11,-1
 571 21 l 1,12,13
 536 8 536 8 491 -1 c 128,-1,14
 446 -10 446 -10 387 -10 c 0,15,16
 280 -10 280 -10 208 36 c 128,-1,17
 136 82 136 82 99.5 165.5 c 128,-1,18
 63 249 63 249 63 360 c 0,19,20
 63 464 63 464 103.5 546.5 c 128,-1,21
 144 629 144 629 220.5 676.5 c 128,-1,22
 297 724 297 724 405 724 c 0,23,24
 503 724 503 724 587 686 c 1,25,-1
 571 651 l 1,26,27
 530 672 530 672 488.5 680 c 128,-1,28
 447 688 447 688 405 688 c 0,0,1
EndSplineSet
Substitution2: "'c2sc' Capitals to Small Capitals lookup 33 subtable" c.sc
EndChar

StartChar: D
Encoding: 68 68 39
Width: 700
GlyphClass: 2
Flags: W
AnchorPoint: "Anchor-3" 680 714 basechar 0
AnchorPoint: "Anchor-2" 349 714 basechar 0
AnchorPoint: "Anchor-1" 350 357 basechar 0
AnchorPoint: "Anchor-0" 345 0 basechar 0
LayerCount: 2
Fore
SplineSet
636 364 m 0,0,1
 636 185 636 185 543 92.5 c 128,-1,2
 450 0 450 0 265 0 c 2,3,-1
 102 0 l 1,4,-1
 102 714 l 1,5,-1
 288 714 l 2,6,7
 461 714 461 714 548.5 624 c 128,-1,8
 636 534 636 534 636 364 c 0,0,1
596 363 m 0,9,10
 596 518 596 518 519 598 c 128,-1,11
 442 678 442 678 277 678 c 2,12,-1
 141 678 l 1,13,-1
 141 36 l 1,14,-1
 265 36 l 2,15,16
 596 36 596 36 596 363 c 0,9,10
EndSplineSet
Substitution2: "'c2sc' Capitals to Small Capitals lookup 33 subtable" d.sc
EndChar

StartChar: E
Encoding: 69 69 40
Width: 551
GlyphClass: 2
Flags: W
AnchorPoint: "Anchor-3" 531 714 basechar 0
AnchorPoint: "Anchor-2" 305 714 basechar 0
AnchorPoint: "Anchor-0" 296 0 basechar 0
LayerCount: 2
Fore
SplineSet
490 0 m 1,0,-1
 102 0 l 1,1,-1
 102 714 l 1,2,-1
 490 714 l 1,3,-1
 490 678 l 1,4,-1
 141 678 l 1,5,-1
 141 394 l 1,6,-1
 470 394 l 1,7,-1
 470 358 l 1,8,-1
 141 358 l 1,9,-1
 141 36 l 1,10,-1
 490 36 l 1,11,-1
 490 0 l 1,0,-1
EndSplineSet
Substitution2: "'c2sc' Capitals to Small Capitals lookup 33 subtable" e.sc
EndChar

StartChar: F
Encoding: 70 70 41
Width: 497
GlyphClass: 2
Flags: W
AnchorPoint: "Anchor-3" 477 714 basechar 0
AnchorPoint: "Anchor-2" 296 714 basechar 0
AnchorPoint: "Anchor-0" 249 0 basechar 0
LayerCount: 2
Fore
SplineSet
141 0 m 1,0,-1
 102 0 l 1,1,-1
 102 714 l 1,2,-1
 490 714 l 1,3,-1
 490 678 l 1,4,-1
 141 678 l 1,5,-1
 141 360 l 1,6,-1
 471 360 l 1,7,-1
 471 324 l 1,8,-1
 141 324 l 1,9,-1
 141 0 l 1,0,-1
EndSplineSet
Substitution2: "'c2sc' Capitals to Small Capitals lookup 33 subtable" f.sc
EndChar

StartChar: G
Encoding: 71 71 42
Width: 722
GlyphClass: 2
Flags: W
AnchorPoint: "Anchor-3" 702 714 basechar 0
AnchorPoint: "Anchor-2" 409 714 basechar 0
AnchorPoint: "Anchor-0" 400 0 basechar 0
LayerCount: 2
Fore
SplineSet
375 355 m 1,0,-1
 642 355 l 1,1,-1
 642 34 l 1,2,3
 592 12 592 12 534 1 c 128,-1,4
 476 -10 476 -10 414 -10 c 0,5,6
 242 -10 242 -10 152.5 85.5 c 128,-1,7
 63 181 63 181 63 355 c 0,8,9
 63 462 63 462 106.5 546 c 128,-1,10
 150 630 150 630 231 678 c 128,-1,11
 312 726 312 726 425 726 c 0,12,13
 542 726 542 726 634 682 c 1,14,-1
 617 646 l 1,15,16
 569 669 569 669 520.5 679.5 c 128,-1,17
 472 690 472 690 424 690 c 0,18,19
 324 690 324 690 252 647 c 128,-1,20
 180 604 180 604 141.5 528.5 c 128,-1,21
 103 453 103 453 103 356 c 0,22,23
 103 186 103 186 187.5 106 c 128,-1,24
 272 26 272 26 420 26 c 0,25,26
 476 26 476 26 521 34.5 c 128,-1,27
 566 43 566 43 603 57 c 1,28,-1
 603 319 l 1,29,-1
 375 319 l 1,30,-1
 375 355 l 1,0,-1
EndSplineSet
Substitution2: "'c2sc' Capitals to Small Capitals lookup 33 subtable" g.sc
EndChar

StartChar: H
Encoding: 72 72 43
Width: 713
GlyphClass: 2
Flags: W
AnchorPoint: "Anchor-3" 693 714 basechar 0
AnchorPoint: "Anchor-2" 357 714 basechar 0
AnchorPoint: "Anchor-1" 357 357 basechar 0
AnchorPoint: "Anchor-0" 356 0 basechar 0
LayerCount: 2
Fore
SplineSet
611 0 m 1,0,-1
 572 0 l 1,1,-1
 572 357 l 1,2,-1
 141 357 l 1,3,-1
 141 0 l 1,4,-1
 102 0 l 1,5,-1
 102 714 l 1,6,-1
 141 714 l 1,7,-1
 141 393 l 1,8,-1
 572 393 l 1,9,-1
 572 714 l 1,10,-1
 611 714 l 1,11,-1
 611 0 l 1,0,-1
EndSplineSet
Substitution2: "'c2sc' Capitals to Small Capitals lookup 33 subtable" h.sc
EndChar

StartChar: I
Encoding: 73 73 44
Width: 294
GlyphClass: 2
Flags: W
AnchorPoint: "Anchor-3" 274 714 basechar 0
AnchorPoint: "Anchor-2" 148 714 basechar 0
AnchorPoint: "Anchor-0" 148 0 basechar 0
LayerCount: 2
Fore
SplineSet
238 0 m 1,0,-1
 57 0 l 1,1,-1
 57 26 l 1,2,-1
 128 33 l 1,3,-1
 128 680 l 1,4,-1
 57 688 l 1,5,-1
 57 714 l 1,6,-1
 238 714 l 1,7,-1
 238 688 l 1,8,-1
 167 680 l 1,9,-1
 167 33 l 1,10,-1
 238 26 l 1,11,-1
 238 0 l 1,0,-1
EndSplineSet
Substitution2: "'c2sc' Capitals to Small Capitals lookup 33 subtable" i.sc
EndChar

StartChar: J
Encoding: 74 74 45
Width: 240
GlyphClass: 2
Flags: W
AnchorPoint: "Anchor-3" 220 714 basechar 0
AnchorPoint: "Anchor-2" 123 714 basechar 0
AnchorPoint: "Anchor-0" -16 -165 basechar 0
LayerCount: 2
Fore
SplineSet
-16 -177 m 0,0,1
 -43 -177 -43 -177 -62 -173.5 c 128,-1,2
 -81 -170 -81 -170 -94 -165 c 1,3,-1
 -94 -127 l 1,4,5
 -63 -140 -63 -140 -16 -140 c 0,6,7
 48 -140 48 -140 75.5 -101.5 c 128,-1,8
 103 -63 103 -63 103 5 c 2,9,-1
 103 714 l 1,10,-1
 142 714 l 1,11,-1
 142 4 l 2,12,13
 142 -76 142 -76 105 -126.5 c 128,-1,14
 68 -177 68 -177 -16 -177 c 0,0,1
EndSplineSet
Substitution2: "'c2sc' Capitals to Small Capitals lookup 33 subtable" j.sc
EndChar

StartChar: K
Encoding: 75 75 46
Width: 570
GlyphClass: 2
Flags: W
AnchorPoint: "Anchor-3" 550 714 basechar 0
AnchorPoint: "Anchor-2" 291 714 basechar 0
AnchorPoint: "Anchor-0" 289 0 basechar 0
LayerCount: 2
Fore
SplineSet
570 0 m 1,0,-1
 522 0 l 1,1,-1
 239 386 l 1,2,-1
 141 290 l 1,3,-1
 141 0 l 1,4,-1
 102 0 l 1,5,-1
 102 714 l 1,6,-1
 141 714 l 1,7,-1
 141 332 l 1,8,9
 156 348 156 348 172.5 365.5 c 128,-1,10
 189 383 189 383 206 401 c 2,11,-1
 512 714 l 1,12,-1
 563 714 l 1,13,-1
 268 414 l 1,14,-1
 570 0 l 1,0,-1
EndSplineSet
Substitution2: "'c2sc' Capitals to Small Capitals lookup 33 subtable" k.sc
EndChar

StartChar: L
Encoding: 76 76 47
Width: 510
GlyphClass: 2
Flags: W
AnchorPoint: "Anchor-3" 429 714 basechar 0
AnchorPoint: "Anchor-2" 121 714 basechar 0
AnchorPoint: "Anchor-1" 255 357 basechar 0
AnchorPoint: "Anchor-0" 286 0 basechar 0
LayerCount: 2
Fore
SplineSet
102 0 m 1,0,-1
 102 714 l 1,1,-1
 141 714 l 1,2,-1
 141 36 l 1,3,-1
 489 36 l 1,4,-1
 489 0 l 1,5,-1
 102 0 l 1,0,-1
EndSplineSet
Substitution2: "'c2sc' Capitals to Small Capitals lookup 33 subtable" l.sc
EndChar

StartChar: M
Encoding: 77 77 48
Width: 851
GlyphClass: 2
Flags: W
AnchorPoint: "Anchor-3" 831 714 basechar 0
AnchorPoint: "Anchor-2" 426 714 basechar 0
AnchorPoint: "Anchor-0" 425 0 basechar 0
LayerCount: 2
Fore
SplineSet
409 0 m 1,0,-1
 140 668 l 1,1,-1
 137 668 l 1,2,3
 138 642 138 642 138.5 617 c 128,-1,4
 139 592 139 592 139 563 c 2,5,-1
 139 0 l 1,6,-1
 102 0 l 1,7,-1
 102 714 l 1,8,-1
 162 714 l 1,9,-1
 424 64 l 1,10,-1
 427 64 l 1,11,-1
 690 714 l 1,12,-1
 749 714 l 1,13,-1
 749 0 l 1,14,-1
 710 0 l 1,15,-1
 710 569 l 2,16,17
 710 592 710 592 710.5 616.5 c 128,-1,18
 711 641 711 641 712 667 c 1,19,-1
 710 667 l 1,20,-1
 440 0 l 1,21,-1
 409 0 l 1,0,-1
EndSplineSet
Substitution2: "'c2sc' Capitals to Small Capitals lookup 33 subtable" m.sc
EndChar

StartChar: N
Encoding: 78 78 49
Width: 711
GlyphClass: 2
Flags: W
AnchorPoint: "Anchor-3" 691 714 basechar 0
AnchorPoint: "Anchor-2" 355 714 basechar 0
AnchorPoint: "Anchor-0" 355 0 basechar 0
LayerCount: 2
Fore
SplineSet
608 0 m 1,0,-1
 572 0 l 1,1,-1
 139 642 l 1,2,-1
 137 642 l 1,3,4
 138 601 138 601 138.5 562.5 c 128,-1,5
 139 524 139 524 139 481 c 2,6,-1
 139 0 l 1,7,-1
 102 0 l 1,8,-1
 102 714 l 1,9,-1
 139 714 l 1,10,-1
 570 74 l 1,11,-1
 572 74 l 1,12,13
 571 108 571 108 570.5 151 c 128,-1,14
 570 194 570 194 570 231 c 2,15,-1
 570 714 l 1,16,-1
 608 714 l 1,17,-1
 608 0 l 1,0,-1
EndSplineSet
Substitution2: "'c2sc' Capitals to Small Capitals lookup 33 subtable" n.sc
EndChar

StartChar: O
Encoding: 79 79 50
Width: 759
GlyphClass: 2
Flags: W
AnchorPoint: "Anchor-3" 739 714 basechar 0
AnchorPoint: "Anchor-2" 380 714 basechar 0
AnchorPoint: "Anchor-1" 380 357 basechar 0
AnchorPoint: "Anchor-0" 380 0 basechar 0
LayerCount: 2
Fore
SplineSet
696 358 m 0,0,1
 696 250 696 250 661 167 c 128,-1,2
 626 84 626 84 555.5 37 c 128,-1,3
 485 -10 485 -10 379 -10 c 0,4,5
 274 -10 274 -10 203.5 37 c 128,-1,6
 133 84 133 84 98 167.5 c 128,-1,7
 63 251 63 251 63 359 c 256,8,9
 63 467 63 467 99.5 549.5 c 128,-1,10
 136 632 136 632 208 678.5 c 128,-1,11
 280 725 280 725 384 725 c 0,12,13
 534 725 534 725 615 627.5 c 128,-1,14
 696 530 696 530 696 358 c 0,0,1
103 359 m 0,15,16
 103 261 103 261 133 186 c 128,-1,17
 163 111 163 111 224.5 68.5 c 128,-1,18
 286 26 286 26 380 26 c 256,19,20
 474 26 474 26 535 68 c 128,-1,21
 596 110 596 110 625.5 184.5 c 128,-1,22
 655 259 655 259 655 358 c 0,23,24
 655 515 655 515 585.5 602 c 128,-1,25
 516 689 516 689 384 689 c 0,26,27
 290 689 290 689 227.5 646.5 c 128,-1,28
 165 604 165 604 134 530 c 128,-1,29
 103 456 103 456 103 359 c 0,15,16
EndSplineSet
Substitution2: "'c2sc' Capitals to Small Capitals lookup 33 subtable" o.sc
Substitution2: "Single Substitution lookup 28 subtable" ordmasculine
EndChar

StartChar: P
Encoding: 80 80 51
Width: 580
GlyphClass: 2
Flags: W
AnchorPoint: "Anchor-3" 560 714 basechar 0
AnchorPoint: "Anchor-2" 293 714 basechar 0
AnchorPoint: "Anchor-0" 290 0 basechar 0
LayerCount: 2
Fore
SplineSet
273 714 m 2,0,1
 397 714 397 714 460.5 667 c 128,-1,2
 524 620 524 620 524 516 c 0,3,4
 524 405 524 405 455 352.5 c 128,-1,5
 386 300 386 300 259 300 c 2,6,-1
 141 300 l 1,7,-1
 141 0 l 1,8,-1
 102 0 l 1,9,-1
 102 714 l 1,10,-1
 273 714 l 2,0,1
268 678 m 2,11,-1
 141 678 l 1,12,-1
 141 335 l 1,13,-1
 255 335 l 2,14,15
 324 335 324 335 375.5 351 c 128,-1,16
 427 367 427 367 455 406.5 c 128,-1,17
 483 446 483 446 483 514 c 0,18,19
 483 600 483 600 430.5 639 c 128,-1,20
 378 678 378 678 268 678 c 2,11,-1
EndSplineSet
Substitution2: "'c2sc' Capitals to Small Capitals lookup 33 subtable" p.sc
EndChar

StartChar: Q
Encoding: 81 81 52
Width: 759
GlyphClass: 2
Flags: W
AnchorPoint: "Anchor-3" 739 714 basechar 0
AnchorPoint: "Anchor-2" 380 714 basechar 0
AnchorPoint: "Anchor-0" 380 -170 basechar 0
LayerCount: 2
Fore
SplineSet
696 358 m 0,0,1
 696 264 696 264 669.5 188.5 c 128,-1,2
 643 113 643 113 589.5 63.5 c 128,-1,3
 536 14 536 14 457 -2 c 1,4,-1
 605 -170 l 1,5,-1
 550 -170 l 1,6,-1
 414 -8 l 1,7,8
 405 -9 405 -9 396.5 -9.5 c 128,-1,9
 388 -10 388 -10 379 -10 c 0,10,11
 274 -10 274 -10 203.5 37 c 128,-1,12
 133 84 133 84 98 167.5 c 128,-1,13
 63 251 63 251 63 359 c 256,14,15
 63 467 63 467 99.5 549.5 c 128,-1,16
 136 632 136 632 208 678.5 c 128,-1,17
 280 725 280 725 384 725 c 0,18,19
 534 725 534 725 615 627.5 c 128,-1,20
 696 530 696 530 696 358 c 0,0,1
103 359 m 0,21,22
 103 261 103 261 133 186 c 128,-1,23
 163 111 163 111 224.5 68.5 c 128,-1,24
 286 26 286 26 380 26 c 256,25,26
 474 26 474 26 535 68 c 128,-1,27
 596 110 596 110 625.5 184.5 c 128,-1,28
 655 259 655 259 655 358 c 0,29,30
 655 515 655 515 585.5 602 c 128,-1,31
 516 689 516 689 384 689 c 0,32,33
 290 689 290 689 227.5 646.5 c 128,-1,34
 165 604 165 604 134 530 c 128,-1,35
 103 456 103 456 103 359 c 0,21,22
EndSplineSet
Substitution2: "'c2sc' Capitals to Small Capitals lookup 33 subtable" q.sc
EndChar

StartChar: R
Encoding: 82 82 53
Width: 586
GlyphClass: 2
Flags: W
AnchorPoint: "Anchor-3" 566 714 basechar 0
AnchorPoint: "Anchor-2" 293 714 basechar 0
AnchorPoint: "Anchor-0" 303 0 basechar 0
LayerCount: 2
Fore
SplineSet
268 714 m 2,0,1
 352 714 352 714 409 696.5 c 128,-1,2
 466 679 466 679 495 637 c 128,-1,3
 524 595 524 595 524 522 c 0,4,5
 524 442 524 442 480.5 394 c 128,-1,6
 437 346 437 346 366 326 c 1,7,-1
 562 0 l 1,8,-1
 515 0 l 1,9,-1
 327 315 l 1,10,-1
 141 315 l 1,11,-1
 141 0 l 1,12,-1
 102 0 l 1,13,-1
 102 714 l 1,14,-1
 268 714 l 2,0,1
264 678 m 2,15,-1
 141 678 l 1,16,-1
 141 350 l 1,17,-1
 292 350 l 2,18,19
 379 350 379 350 431 394 c 128,-1,20
 483 438 483 438 483 521 c 0,21,22
 483 611 483 611 429 644.5 c 128,-1,23
 375 678 375 678 264 678 c 2,15,-1
EndSplineSet
Substitution2: "'c2sc' Capitals to Small Capitals lookup 33 subtable" r.sc
EndChar

StartChar: S
Encoding: 83 83 54
Width: 544
GlyphClass: 2
Flags: W
AnchorPoint: "Anchor-3" 524 714 basechar 0
AnchorPoint: "Anchor-2" 275 714 basechar 0
AnchorPoint: "Anchor-0" 269 0 basechar 0
LayerCount: 2
Fore
SplineSet
492 182 m 0,0,1
 492 118 492 118 459.5 75.5 c 128,-1,2
 427 33 427 33 372 11.5 c 128,-1,3
 317 -10 317 -10 249 -10 c 0,4,5
 182 -10 182 -10 136 -1 c 128,-1,6
 90 8 90 8 55 20 c 1,7,-1
 55 61 l 1,8,9
 94 46 94 46 143 36 c 128,-1,10
 192 26 192 26 252 26 c 0,11,12
 308 26 308 26 353 42.5 c 128,-1,13
 398 59 398 59 425 93.5 c 128,-1,14
 452 128 452 128 452 181 c 0,15,16
 452 228 452 228 429.5 257.5 c 128,-1,17
 407 287 407 287 364 307.5 c 128,-1,18
 321 328 321 328 259 348 c 0,19,20
 200 367 200 367 156 390 c 128,-1,21
 112 413 112 413 87.5 449 c 128,-1,22
 63 485 63 485 63 544 c 256,23,24
 63 603 63 603 93.5 643 c 128,-1,25
 124 683 124 683 175 703.5 c 128,-1,26
 226 724 226 724 290 724 c 0,27,28
 389 724 389 724 474 686 c 1,29,-1
 459 652 l 1,30,31
 415 672 415 672 372 680 c 128,-1,32
 329 688 329 688 288 688 c 0,33,34
 237 688 237 688 195 672.5 c 128,-1,35
 153 657 153 657 128 625.5 c 128,-1,36
 103 594 103 594 103 545 c 0,37,38
 103 494 103 494 126 464 c 128,-1,39
 149 434 149 434 189.5 415 c 128,-1,40
 230 396 230 396 283 379 c 0,41,42
 346 358 346 358 393 335 c 128,-1,43
 440 312 440 312 466 276 c 128,-1,44
 492 240 492 240 492 182 c 0,0,1
EndSplineSet
Substitution2: "'c2sc' Capitals to Small Capitals lookup 33 subtable" s.sc
EndChar

StartChar: T
Encoding: 84 84 55
Width: 515
GlyphClass: 2
Flags: W
AnchorPoint: "Anchor-3" 495 714 basechar 0
AnchorPoint: "Anchor-2" 258 714 basechar 0
AnchorPoint: "Anchor-1" 258 357 basechar 0
AnchorPoint: "Anchor-0" 258 0 basechar 0
LayerCount: 2
Fore
SplineSet
277 0 m 1,0,-1
 238 0 l 1,1,-1
 238 678 l 1,2,-1
 4 678 l 1,3,-1
 4 714 l 1,4,-1
 512 714 l 1,5,-1
 512 678 l 1,6,-1
 277 678 l 1,7,-1
 277 0 l 1,0,-1
EndSplineSet
Substitution2: "'c2sc' Capitals to Small Capitals lookup 33 subtable" t.sc
EndChar

StartChar: U
Encoding: 85 85 56
Width: 716
GlyphClass: 2
Flags: W
AnchorPoint: "Anchor-3" 696 714 basechar 0
AnchorPoint: "Anchor-2" 358 714 basechar 0
AnchorPoint: "Anchor-0" 358 0 basechar 0
LayerCount: 2
Fore
SplineSet
622 714 m 1,0,-1
 622 252 l 2,1,2
 622 123 622 123 550 56.5 c 128,-1,3
 478 -10 478 -10 356 -10 c 0,4,5
 231 -10 231 -10 162.5 58 c 128,-1,6
 94 126 94 126 94 254 c 2,7,-1
 94 714 l 1,8,-1
 133 714 l 1,9,-1
 133 255 l 2,10,11
 133 142 133 142 191.5 84 c 128,-1,12
 250 26 250 26 358 26 c 0,13,14
 463 26 463 26 523.5 82.5 c 128,-1,15
 584 139 584 139 584 246 c 2,16,-1
 584 714 l 1,17,-1
 622 714 l 1,0,-1
EndSplineSet
Substitution2: "'c2sc' Capitals to Small Capitals lookup 33 subtable" u.sc
EndChar

StartChar: V
Encoding: 86 86 57
Width: 571
GlyphClass: 2
Flags: W
AnchorPoint: "Anchor-3" 551 714 basechar 0
AnchorPoint: "Anchor-2" 286 714 basechar 0
AnchorPoint: "Anchor-0" 285 0 basechar 0
LayerCount: 2
Fore
SplineSet
571 714 m 1,0,-1
 304 0 l 1,1,-1
 266 0 l 1,2,-1
 0 714 l 1,3,-1
 41 714 l 1,4,-1
 246 166 l 2,5,6
 258 134 258 134 268 104.5 c 128,-1,7
 278 75 278 75 286 50 c 1,8,9
 293 75 293 75 302.5 102.5 c 128,-1,10
 312 130 312 130 325 166 c 2,11,-1
 529 714 l 1,12,-1
 571 714 l 1,0,-1
EndSplineSet
Substitution2: "'c2sc' Capitals to Small Capitals lookup 33 subtable" v.sc
EndChar

StartChar: W
Encoding: 87 87 58
Width: 881
GlyphClass: 2
Flags: W
AnchorPoint: "Anchor-3" 861 714 basechar 0
AnchorPoint: "Anchor-2" 441 714 basechar 0
AnchorPoint: "Anchor-0" 440 0 basechar 0
LayerCount: 2
Fore
SplineSet
855 714 m 1,0,-1
 658 0 l 1,1,-1
 621 0 l 1,2,-1
 464 559 l 2,3,4
 456 590 456 590 449 613.5 c 128,-1,5
 442 637 442 637 437 662 c 1,6,7
 433 639 433 639 428.5 618.5 c 128,-1,8
 424 598 424 598 417 576 c 2,9,-1
 260 0 l 1,10,-1
 223 0 l 1,11,-1
 29 714 l 1,12,-1
 69 714 l 1,13,-1
 210 192 l 2,14,15
 220 153 220 153 228 123.5 c 128,-1,16
 236 94 236 94 242 63 c 1,17,18
 249 94 249 94 256.5 124.5 c 128,-1,19
 264 155 264 155 275 194 c 2,20,-1
 419 714 l 1,21,-1
 458 714 l 1,22,-1
 606 191 l 2,23,24
 618 150 618 150 625 120.5 c 128,-1,25
 632 91 632 91 639 60 c 1,26,27
 645 92 645 92 651.5 121 c 128,-1,28
 658 150 658 150 669 191 c 2,29,-1
 814 714 l 1,30,-1
 855 714 l 1,0,-1
EndSplineSet
Substitution2: "'c2sc' Capitals to Small Capitals lookup 33 subtable" w.sc
EndChar

StartChar: X
Encoding: 88 88 59
Width: 525
GlyphClass: 2
Flags: W
AnchorPoint: "Anchor-3" 505 714 basechar 0
AnchorPoint: "Anchor-2" 263 714 basechar 0
AnchorPoint: "Anchor-0" 263 0 basechar 0
LayerCount: 2
Fore
SplineSet
526 0 m 1,0,-1
 481 0 l 1,1,-1
 263 342 l 1,2,-1
 42 0 l 1,3,-1
 -2 0 l 1,4,-1
 239 370 l 1,5,-1
 21 714 l 1,6,-1
 66 714 l 1,7,-1
 265 399 l 1,8,-1
 464 714 l 1,9,-1
 508 714 l 1,10,-1
 288 371 l 1,11,-1
 526 0 l 1,0,-1
EndSplineSet
Substitution2: "'c2sc' Capitals to Small Capitals lookup 33 subtable" x.sc
EndChar

StartChar: Y
Encoding: 89 89 60
Width: 517
GlyphClass: 2
Flags: W
AnchorPoint: "Anchor-3" 497 714 basechar 0
AnchorPoint: "Anchor-2" 259 714 basechar 0
AnchorPoint: "Anchor-0" 259 0 basechar 0
LayerCount: 2
Fore
SplineSet
259 314 m 1,0,-1
 474 714 l 1,1,-1
 517 714 l 1,2,-1
 279 275 l 1,3,-1
 279 0 l 1,4,-1
 240 0 l 1,5,-1
 240 271 l 1,6,-1
 0 714 l 1,7,-1
 44 714 l 1,8,-1
 259 314 l 1,0,-1
EndSplineSet
Substitution2: "'c2sc' Capitals to Small Capitals lookup 33 subtable" y.sc
EndChar

StartChar: Z
Encoding: 90 90 61
Width: 577
GlyphClass: 2
Flags: W
AnchorPoint: "Anchor-3" 557 714 basechar 0
AnchorPoint: "Anchor-2" 289 714 basechar 0
AnchorPoint: "Anchor-0" 291 0 basechar 0
LayerCount: 2
Fore
SplineSet
537 0 m 1,0,-1
 36 0 l 1,1,-1
 36 28 l 1,2,-1
 474 678 l 1,3,-1
 61 678 l 1,4,-1
 61 714 l 1,5,-1
 525 714 l 1,6,-1
 525 686 l 1,7,-1
 88 36 l 1,8,-1
 537 36 l 1,9,-1
 537 0 l 1,0,-1
EndSplineSet
Substitution2: "'c2sc' Capitals to Small Capitals lookup 33 subtable" z.sc
EndChar

StartChar: bracketleft
Encoding: 91 91 62
Width: 316
Flags: W
LayerCount: 2
Fore
SplineSet
291 -158 m 1,0,-1
 86 -158 l 1,1,-1
 86 714 l 1,2,-1
 291 714 l 1,3,-1
 291 679 l 1,4,-1
 124 679 l 1,5,-1
 124 -123 l 1,6,-1
 291 -123 l 1,7,-1
 291 -158 l 1,0,-1
EndSplineSet
Substitution2: "'smcp' Lowercase to Small Capitals lookup 34 subtable" bracketleft.sc
Substitution2: "'c2sc' Capitals to Small Capitals lookup 33 subtable" bracketleft.sc
EndChar

StartChar: backslash
Encoding: 92 92 63
Width: 332
Flags: W
LayerCount: 2
Fore
SplineSet
52 714 m 1,0,-1
 320 0 l 1,1,-1
 280 0 l 1,2,-1
 12 714 l 1,3,-1
 52 714 l 1,0,-1
EndSplineSet
EndChar

StartChar: bracketright
Encoding: 93 93 64
Width: 316
Flags: W
LayerCount: 2
Fore
SplineSet
25 -123 m 1,0,-1
 192 -123 l 1,1,-1
 192 679 l 1,2,-1
 25 679 l 1,3,-1
 25 714 l 1,4,-1
 230 714 l 1,5,-1
 230 -158 l 1,6,-1
 25 -158 l 1,7,-1
 25 -123 l 1,0,-1
EndSplineSet
Substitution2: "'smcp' Lowercase to Small Capitals lookup 34 subtable" bracketright.sc
Substitution2: "'c2sc' Capitals to Small Capitals lookup 33 subtable" bracketright.sc
EndChar

StartChar: asciicircum
Encoding: 94 94 65
Width: 570
Flags: W
LayerCount: 2
Fore
SplineSet
44 276 m 1,0,-1
 276 719 l 1,1,-1
 304 719 l 1,2,-1
 526 276 l 1,3,-1
 487 276 l 1,4,-1
 289 674 l 1,5,-1
 83 276 l 1,6,-1
 44 276 l 1,0,-1
EndSplineSet
EndChar

StartChar: underscore
Encoding: 95 95 66
Width: 402
Flags: W
LayerCount: 2
Fore
SplineSet
404 -124 m 1,0,-1
 -2 -124 l 1,1,-1
 -2 -91 l 1,2,-1
 404 -91 l 1,3,-1
 404 -124 l 1,0,-1
EndSplineSet
EndChar

StartChar: grave
Encoding: 96 96 67
Width: 256
Flags: W
LayerCount: 2
Fore
SplineSet
85 766 m 1,0,1
 99 744 99 744 121.5 716 c 128,-1,2
 144 688 144 688 169 660.5 c 128,-1,3
 194 633 194 633 216 613 c 1,4,-1
 216 606 l 1,5,-1
 187 606 l 1,6,7
 161 627 161 627 133.5 654.5 c 128,-1,8
 106 682 106 682 81 709 c 128,-1,9
 56 736 56 736 40 758 c 1,10,-1
 40 766 l 1,11,-1
 85 766 l 1,0,1
EndSplineSet
EndChar

StartChar: a
Encoding: 97 97 68
Width: 521
GlyphClass: 2
Flags: W
AnchorPoint: "Anchor-3" 495 530 basechar 0
AnchorPoint: "Anchor-2" 261 530 basechar 0
AnchorPoint: "Anchor-0" 261 0 basechar 0
LayerCount: 2
Fore
SplineSet
269 539 m 0,0,1
 354 539 354 539 396.5 494.5 c 128,-1,2
 439 450 439 450 439 353 c 2,3,-1
 439 0 l 1,4,-1
 408 0 l 1,5,-1
 401 98 l 1,6,-1
 399 98 l 1,7,8
 375 52 375 52 331.5 21 c 128,-1,9
 288 -10 288 -10 209 -10 c 0,10,11
 131 -10 131 -10 89.5 28 c 128,-1,12
 48 66 48 66 48 133 c 0,13,14
 48 212 48 212 113.5 252.5 c 128,-1,15
 179 293 179 293 300 299 c 2,16,-1
 400 305 l 1,17,-1
 400 345 l 2,18,19
 400 430 400 430 367 467 c 128,-1,20
 334 504 334 504 268 504 c 0,21,22
 228 504 228 504 190 494 c 128,-1,23
 152 484 152 484 111 464 c 1,24,-1
 99 498 l 1,25,26
 137 516 137 516 180 527.5 c 128,-1,27
 223 539 223 539 269 539 c 0,0,1
400 272 m 1,28,-1
 304 268 l 2,29,30
 202 263 202 263 145 231 c 128,-1,31
 88 199 88 199 88 133 c 0,32,33
 88 81 88 81 121 52.5 c 128,-1,34
 154 24 154 24 213 24 c 0,35,36
 307 24 307 24 353 77 c 128,-1,37
 399 130 399 130 400 219 c 2,38,-1
 400 272 l 1,28,-1
EndSplineSet
Substitution2: "'smcp' Lowercase to Small Capitals lookup 34 subtable" a.sc
Substitution2: "Single Substitution lookup 28 subtable" ordfeminine
EndChar

StartChar: b
Encoding: 98 98 69
Width: 590
GlyphClass: 2
Flags: W
AnchorPoint: "Anchor-3" 529 760 basechar 0
AnchorPoint: "Anchor-2" 301 760 basechar 0
AnchorPoint: "Anchor-0" 298 0 basechar 0
LayerCount: 2
Fore
SplineSet
127 760 m 1,0,-1
 127 535 l 2,1,2
 127 510 127 510 126 475.5 c 128,-1,3
 125 441 125 441 124 418 c 1,4,-1
 127 418 l 1,5,6
 144 470 144 470 194 505 c 128,-1,7
 244 540 244 540 317 540 c 0,8,9
 420 540 420 540 475.5 470.5 c 128,-1,10
 531 401 531 401 531 266 c 0,11,12
 531 187 531 187 506.5 124.5 c 128,-1,13
 482 62 482 62 432 26 c 128,-1,14
 382 -10 382 -10 304 -10 c 0,15,16
 234 -10 234 -10 191 20 c 128,-1,17
 148 50 148 50 128 97 c 1,18,-1
 125 97 l 1,19,-1
 119 0 l 1,20,-1
 88 0 l 1,21,-1
 88 760 l 1,22,-1
 127 760 l 1,0,-1
314 505 m 0,23,24
 216 505 216 505 171.5 442 c 128,-1,25
 127 379 127 379 127 265 c 2,26,-1
 127 256 l 2,27,28
 127 144 127 144 169 84.5 c 128,-1,29
 211 25 211 25 301 25 c 0,30,31
 395 25 395 25 443 88 c 128,-1,32
 491 151 491 151 491 267 c 0,33,34
 491 505 491 505 314 505 c 0,23,24
EndSplineSet
Substitution2: "'smcp' Lowercase to Small Capitals lookup 34 subtable" b.sc
EndChar

StartChar: c
Encoding: 99 99 70
Width: 474
GlyphClass: 2
Flags: W
AnchorPoint: "Anchor-3" 454 530 basechar 0
AnchorPoint: "Anchor-2" 302 530 basechar 0
AnchorPoint: "Anchor-0" 293 0 basechar 0
LayerCount: 2
Fore
SplineSet
302 -10 m 0,0,1
 220 -10 220 -10 166 24 c 128,-1,2
 112 58 112 58 85 119.5 c 128,-1,3
 58 181 58 181 58 262 c 0,4,5
 58 346 58 346 89.5 408.5 c 128,-1,6
 121 471 121 471 179 505.5 c 128,-1,7
 237 540 237 540 316 540 c 0,8,9
 354 540 354 540 385 533.5 c 128,-1,10
 416 527 416 527 443 515 c 1,11,-1
 434 480 l 1,12,13
 405 493 405 493 374.5 498.5 c 128,-1,14
 344 504 344 504 316 504 c 0,15,16
 247 504 247 504 198.5 473.5 c 128,-1,17
 150 443 150 443 124 388.5 c 128,-1,18
 98 334 98 334 98 262 c 0,19,20
 98 194 98 194 119.5 140.5 c 128,-1,21
 141 87 141 87 185.5 56 c 128,-1,22
 230 25 230 25 301 25 c 0,23,24
 338 25 338 25 373.5 32.5 c 128,-1,25
 409 40 409 40 438 52 c 1,26,-1
 438 17 l 1,27,28
 412 6 412 6 378 -2 c 128,-1,29
 344 -10 344 -10 302 -10 c 0,0,1
EndSplineSet
Substitution2: "'smcp' Lowercase to Small Capitals lookup 34 subtable" c.sc
EndChar

StartChar: d
Encoding: 100 100 71
Width: 590
GlyphClass: 2
Flags: W
AnchorPoint: "Anchor-3" 561 760 basechar 0
AnchorPoint: "Anchor-2" 289 760 basechar 0
AnchorPoint: "Anchor-1" 295 265 basechar 0
AnchorPoint: "Anchor-0" 292 0 basechar 0
LayerCount: 2
Fore
SplineSet
281 -10 m 0,0,1
 170 -10 170 -10 114 58 c 128,-1,2
 58 126 58 126 58 257 c 0,3,4
 58 394 58 394 118 467 c 128,-1,5
 178 540 178 540 288 540 c 0,6,7
 358 540 358 540 401 506.5 c 128,-1,8
 444 473 444 473 463 425 c 1,9,-1
 466 425 l 1,10,11
 464 454 464 454 463.5 485 c 128,-1,12
 463 516 463 516 463 544 c 2,13,-1
 463 760 l 1,14,-1
 501 760 l 1,15,-1
 501 0 l 1,16,-1
 469 0 l 1,17,-1
 465 105 l 1,18,-1
 463 105 l 1,19,20
 444 58 444 58 400.5 24 c 128,-1,21
 357 -10 357 -10 281 -10 c 0,0,1
284 25 m 0,22,23
 381 25 381 25 422 86.5 c 128,-1,24
 463 148 463 148 463 260 c 2,25,-1
 463 266 l 2,26,27
 463 382 463 382 421 443.5 c 128,-1,28
 379 505 379 505 290 505 c 0,29,30
 197 505 197 505 147.5 442 c 128,-1,31
 98 379 98 379 98 256 c 0,32,33
 98 25 98 25 284 25 c 0,22,23
EndSplineSet
Substitution2: "'smcp' Lowercase to Small Capitals lookup 34 subtable" d.sc
EndChar

StartChar: e
Encoding: 101 101 72
Width: 545
GlyphClass: 2
Flags: W
AnchorPoint: "Anchor-3" 525 530 basechar 0
AnchorPoint: "Anchor-2" 273 530 basechar 0
AnchorPoint: "Anchor-0" 276 0 basechar 0
LayerCount: 2
Fore
SplineSet
288 540 m 0,0,1
 356 540 356 540 399.5 507.5 c 128,-1,2
 443 475 443 475 464.5 419.5 c 128,-1,3
 486 364 486 364 486 294 c 2,4,-1
 486 263 l 1,5,-1
 98 263 l 1,6,7
 97 148 97 148 149.5 86.5 c 128,-1,8
 202 25 202 25 300 25 c 0,9,10
 349 25 349 25 384 32.5 c 128,-1,11
 419 40 419 40 465 61 c 1,12,-1
 465 23 l 1,13,14
 426 6 426 6 387 -2 c 128,-1,15
 348 -10 348 -10 299 -10 c 0,16,17
 218 -10 218 -10 164.5 24 c 128,-1,18
 111 58 111 58 84.5 119 c 128,-1,19
 58 180 58 180 58 260 c 0,20,21
 58 337 58 337 84 400.5 c 128,-1,22
 110 464 110 464 161 502 c 128,-1,23
 212 540 212 540 288 540 c 0,0,1
288 505 m 256,24,25
 208 505 208 505 158 451.5 c 128,-1,26
 108 398 108 398 99 297 c 1,27,-1
 446 297 l 1,28,29
 446 390 446 390 407 447.5 c 128,-1,30
 368 505 368 505 288 505 c 256,24,25
EndSplineSet
Substitution2: "'smcp' Lowercase to Small Capitals lookup 34 subtable" e.sc
EndChar

StartChar: f
Encoding: 102 102 73
Width: 288
GlyphClass: 2
Flags: W
AnchorPoint: "Anchor-3" 335 765 basechar 0
AnchorPoint: "Anchor-2" 224 765 basechar 0
AnchorPoint: "Anchor-0" 131 0 basechar 0
LayerCount: 2
Fore
SplineSet
273 496 m 1,0,-1
 151 496 l 1,1,-1
 151 0 l 1,2,-1
 112 0 l 1,3,-1
 112 496 l 1,4,-1
 12 496 l 1,5,-1
 12 522 l 1,6,-1
 112 530 l 1,7,-1
 112 596 l 2,8,9
 112 679 112 679 148 722 c 128,-1,10
 184 765 184 765 262 765 c 0,11,12
 288 765 288 765 309 761 c 128,-1,13
 330 757 330 757 349 752 c 1,14,-1
 341 717 l 1,15,16
 323 724 323 724 302.5 727 c 128,-1,17
 282 730 282 730 262 730 c 0,18,19
 203 730 203 730 177 699 c 128,-1,20
 151 668 151 668 151 596 c 2,21,-1
 151 530 l 1,22,-1
 273 530 l 1,23,-1
 273 496 l 1,0,-1
EndSplineSet
Substitution2: "'smcp' Lowercase to Small Capitals lookup 34 subtable" f.sc
EndChar

StartChar: g
Encoding: 103 103 74
Width: 590
GlyphClass: 2
Flags: W
AnchorPoint: "Anchor-3" 561 530 basechar 0
AnchorPoint: "Anchor-2" 293 530 basechar 0
AnchorPoint: "Anchor-0" 293 -240 basechar 0
LayerCount: 2
Fore
SplineSet
287 540 m 0,0,1
 355 540 355 540 395.5 513 c 128,-1,2
 436 486 436 486 459 443 c 1,3,-1
 462 443 l 1,4,-1
 468 530 l 1,5,-1
 500 530 l 1,6,-1
 500 -22 l 2,7,8
 500 -121 500 -121 448.5 -180.5 c 128,-1,9
 397 -240 397 -240 276 -240 c 0,10,11
 216 -240 216 -240 171 -229.5 c 128,-1,12
 126 -219 126 -219 89 -204 c 1,13,-1
 89 -163 l 1,14,15
 126 -181 126 -181 173.5 -193 c 128,-1,16
 221 -205 221 -205 277 -205 c 0,17,18
 376 -205 376 -205 418.5 -155.5 c 128,-1,19
 461 -106 461 -106 461 -23 c 2,20,-1
 461 15 l 2,21,22
 461 40 461 40 461.5 61 c 128,-1,23
 462 82 462 82 464 108 c 1,24,-1
 461 108 l 1,25,26
 420 -10 420 -10 276 -10 c 0,27,28
 173 -10 173 -10 115.5 58.5 c 128,-1,29
 58 127 58 127 58 258 c 0,30,31
 58 388 58 388 116 464 c 128,-1,32
 174 540 174 540 287 540 c 0,0,1
289 505 m 0,33,34
 192 505 192 505 145 439.5 c 128,-1,35
 98 374 98 374 98 258 c 0,36,37
 98 144 98 144 144.5 84.5 c 128,-1,38
 191 25 191 25 279 25 c 0,39,40
 352 25 352 25 391.5 56.5 c 128,-1,41
 431 88 431 88 446.5 138.5 c 128,-1,42
 462 189 462 189 462 246 c 2,43,-1
 462 289 l 2,44,45
 462 354 462 354 446 402.5 c 128,-1,46
 430 451 430 451 392 478 c 128,-1,47
 354 505 354 505 289 505 c 0,33,34
EndSplineSet
Substitution2: "'smcp' Lowercase to Small Capitals lookup 34 subtable" g.sc
EndChar

StartChar: h
Encoding: 104 104 75
Width: 582
GlyphClass: 2
Flags: W
AnchorPoint: "Anchor-3" 549 760 basechar 0
AnchorPoint: "Anchor-2" 108 760 basechar 0
AnchorPoint: "Anchor-1" 291 265 basechar 0
AnchorPoint: "Anchor-0" 292 0 basechar 0
LayerCount: 2
Fore
SplineSet
128 760 m 1,0,-1
 128 504 l 2,1,2
 128 482 128 482 127 464.5 c 128,-1,3
 126 447 126 447 125 426 c 1,4,-1
 128 426 l 1,5,6
 145 472 145 472 191.5 505.5 c 128,-1,7
 238 539 238 539 316 539 c 0,8,9
 404 539 404 539 451.5 492.5 c 128,-1,10
 499 446 499 446 499 347 c 2,11,-1
 499 0 l 1,12,-1
 460 0 l 1,13,-1
 460 345 l 2,14,15
 460 428 460 428 422 466.5 c 128,-1,16
 384 505 384 505 313 505 c 0,17,18
 226 505 226 505 177 453.5 c 128,-1,19
 128 402 128 402 128 297 c 2,20,-1
 128 0 l 1,21,-1
 89 0 l 1,22,-1
 89 760 l 1,23,-1
 128 760 l 1,0,-1
EndSplineSet
Substitution2: "'smcp' Lowercase to Small Capitals lookup 34 subtable" h.sc
Substitution2: "'subs' Subscript lookup 18 subtable" uni2095
EndChar

StartChar: i
Encoding: 105 105 76
Width: 217
GlyphClass: 2
Flags: W
AnchorPoint: "Anchor-3" 197 724 basechar 0
AnchorPoint: "Anchor-2" 109 724 basechar 0
AnchorPoint: "Anchor-0" 109 0 basechar 0
LayerCount: 2
Fore
SplineSet
108 724 m 0,0,1
 127 724 127 724 133.5 714 c 128,-1,2
 140 704 140 704 140 688 c 256,3,4
 140 672 140 672 133.5 662 c 128,-1,5
 127 652 127 652 108 652 c 0,6,7
 92 652 92 652 85 662 c 128,-1,8
 78 672 78 672 78 688 c 256,9,10
 78 704 78 704 85 714 c 128,-1,11
 92 724 92 724 108 724 c 0,0,1
128 530 m 1,12,-1
 128 0 l 1,13,-1
 89 0 l 1,14,-1
 89 530 l 1,15,-1
 128 530 l 1,12,-1
EndSplineSet
Substitution2: "'smcp' Lowercase to Small Capitals lookup 34 subtable" i.sc
Substitution2: "Single Substitution lookup 5 subtable" dotlessi
Substitution2: "Single Substitution lookup 4 subtable" dotlessi
EndChar

StartChar: j
Encoding: 106 106 77
Width: 217
GlyphClass: 2
Flags: W
AnchorPoint: "Anchor-3" 197 724 basechar 0
AnchorPoint: "Anchor-2" 109 724 basechar 0
AnchorPoint: "Anchor-0" 13 -240 basechar 0
LayerCount: 2
Fore
SplineSet
78 688 m 256,0,1
 78 704 78 704 85 714 c 128,-1,2
 92 724 92 724 108 724 c 0,3,4
 127 724 127 724 133.5 714 c 128,-1,5
 140 704 140 704 140 688 c 256,6,7
 140 672 140 672 133.5 662 c 128,-1,8
 127 652 127 652 108 652 c 0,9,10
 92 652 92 652 85 662 c 128,-1,11
 78 672 78 672 78 688 c 256,0,1
13 -240 m 0,12,13
 -7 -240 -7 -240 -23 -237 c 128,-1,14
 -39 -234 -39 -234 -51 -230 c 1,15,-1
 -51 -194 l 1,16,17
 -36 -201 -36 -201 -20.5 -203 c 128,-1,18
 -5 -205 -5 -205 11 -205 c 0,19,20
 89 -205 89 -205 89 -109 c 2,21,-1
 89 530 l 1,22,-1
 128 530 l 1,23,-1
 128 -112 l 2,24,25
 128 -176 128 -176 95.5 -208 c 128,-1,26
 63 -240 63 -240 13 -240 c 0,12,13
EndSplineSet
Substitution2: "'smcp' Lowercase to Small Capitals lookup 34 subtable" j.sc
Substitution2: "Single Substitution lookup 5 subtable" uni0237
Substitution2: "Single Substitution lookup 4 subtable" uni0237
EndChar

StartChar: k
Encoding: 107 107 78
Width: 470
GlyphClass: 2
Flags: W
AnchorPoint: "Anchor-3" 453 760 basechar 0
AnchorPoint: "Anchor-2" 109 760 basechar 0
AnchorPoint: "Anchor-0" 235 0 basechar 0
LayerCount: 2
Fore
SplineSet
127 760 m 1,0,-1
 127 381 l 2,1,2
 127 339 127 339 127 299.5 c 128,-1,3
 127 260 127 260 126 218 c 1,4,5
 142 236 142 236 155.5 252 c 128,-1,6
 169 268 169 268 185 286 c 2,7,-1
 405 530 l 1,8,-1
 453 530 l 1,9,-1
 246 302 l 1,10,-1
 472 0 l 1,11,-1
 426 0 l 1,12,-1
 219 276 l 1,13,-1
 127 177 l 1,14,-1
 127 0 l 1,15,-1
 89 0 l 1,16,-1
 89 760 l 1,17,-1
 127 760 l 1,0,-1
EndSplineSet
Substitution2: "'smcp' Lowercase to Small Capitals lookup 34 subtable" k.sc
Substitution2: "'subs' Subscript lookup 18 subtable" uni2096
EndChar

StartChar: l
Encoding: 108 108 79
Width: 248
GlyphClass: 2
Flags: W
AnchorPoint: "Anchor-2" 109 760 basechar 0
AnchorPoint: "Anchor-0" 109 -3 basechar 0
LayerCount: 2
Fore
SplineSet
202 -3 m 0,0,1
 144 -3 144 -3 117 29 c 128,-1,2
 90 61 90 61 90 131 c 2,3,-1
 90 760 l 1,4,-1
 128 760 l 1,5,-1
 128 139 l 2,6,7
 128 80 128 80 145 56 c 128,-1,8
 162 32 162 32 206 32 c 0,9,10
 210 32 210 32 224 34.5 c 128,-1,11
 238 37 238 37 248 40 c 1,12,-1
 248 6 l 1,13,14
 239 3 239 3 225 0 c 128,-1,15
 211 -3 211 -3 202 -3 c 0,0,1
EndSplineSet
Substitution2: "'smcp' Lowercase to Small Capitals lookup 34 subtable" l.sc
Substitution2: "'subs' Subscript lookup 18 subtable" uni2097
EndChar

StartChar: m
Encoding: 109 109 80
Width: 869
GlyphClass: 2
Flags: W
AnchorPoint: "Anchor-3" 843 530 basechar 0
AnchorPoint: "Anchor-2" 437 530 basechar 0
AnchorPoint: "Anchor-0" 438 0 basechar 0
LayerCount: 2
Fore
SplineSet
626 540 m 0,0,1
 698 540 698 540 742.5 496 c 128,-1,2
 787 452 787 452 787 359 c 2,3,-1
 787 0 l 1,4,-1
 749 0 l 1,5,-1
 749 357 l 2,6,7
 749 434 749 434 713.5 469.5 c 128,-1,8
 678 505 678 505 623 505 c 0,9,10
 547 505 547 505 502 460.5 c 128,-1,11
 457 416 457 416 457 319 c 2,12,-1
 457 0 l 1,13,-1
 419 0 l 1,14,-1
 419 357 l 2,15,16
 419 434 419 434 383.5 469.5 c 128,-1,17
 348 505 348 505 293 505 c 0,18,19
 221 505 221 505 174.5 460 c 128,-1,20
 128 415 128 415 128 315 c 2,21,-1
 128 0 l 1,22,-1
 89 0 l 1,23,-1
 89 530 l 1,24,-1
 120 530 l 1,25,-1
 126 438 l 1,26,-1
 129 438 l 1,27,28
 146 476 146 476 186 508 c 128,-1,29
 226 540 226 540 296 540 c 0,30,31
 352 540 352 540 391.5 513 c 128,-1,32
 431 486 431 486 446 434 c 1,33,-1
 448 434 l 1,34,35
 469 483 469 483 513.5 511.5 c 128,-1,36
 558 540 558 540 626 540 c 0,0,1
EndSplineSet
Substitution2: "'smcp' Lowercase to Small Capitals lookup 34 subtable" m.sc
Substitution2: "'subs' Subscript lookup 18 subtable" uni2098
EndChar

StartChar: n
Encoding: 110 110 81
Width: 582
GlyphClass: 2
Flags: W
AnchorPoint: "Anchor-3" 555 530 basechar 0
AnchorPoint: "Anchor-2" 291 530 basechar 0
AnchorPoint: "Anchor-0" 291 0 basechar 0
LayerCount: 2
Fore
SplineSet
316 540 m 0,0,1
 404 540 404 540 451.5 493 c 128,-1,2
 499 446 499 446 499 347 c 2,3,-1
 499 0 l 1,4,-1
 460 0 l 1,5,-1
 460 345 l 2,6,7
 460 428 460 428 422 466.5 c 128,-1,8
 384 505 384 505 313 505 c 0,9,10
 226 505 226 505 177 453.5 c 128,-1,11
 128 402 128 402 128 297 c 2,12,-1
 128 0 l 1,13,-1
 89 0 l 1,14,-1
 89 530 l 1,15,-1
 120 530 l 1,16,-1
 126 426 l 1,17,-1
 129 426 l 1,18,19
 148 471 148 471 193.5 505.5 c 128,-1,20
 239 540 239 540 316 540 c 0,0,1
EndSplineSet
Substitution2: "'smcp' Lowercase to Small Capitals lookup 34 subtable" n.sc
Substitution2: "'sups' Superscript lookup 19 subtable" nsuperior
Substitution2: "'subs' Subscript lookup 18 subtable" uni2099
EndChar

StartChar: o
Encoding: 111 111 82
Width: 581
GlyphClass: 2
Flags: W
AnchorPoint: "Anchor-3" 559 530 basechar 0
AnchorPoint: "Anchor-2" 291 530 basechar 0
AnchorPoint: "Anchor-1" 291 265 basechar 0
AnchorPoint: "Anchor-0" 291 0 basechar 0
LayerCount: 2
Fore
SplineSet
522 265 m 0,0,1
 522 185 522 185 496 123 c 128,-1,2
 470 61 470 61 418.5 25.5 c 128,-1,3
 367 -10 367 -10 289 -10 c 0,4,5
 214 -10 214 -10 162.5 25 c 128,-1,6
 111 60 111 60 84.5 122 c 128,-1,7
 58 184 58 184 58 265 c 0,8,9
 58 392 58 392 120.5 466 c 128,-1,10
 183 540 183 540 294 540 c 0,11,12
 372 540 372 540 422.5 504 c 128,-1,13
 473 468 473 468 497.5 406 c 128,-1,14
 522 344 522 344 522 265 c 0,0,1
98 265 m 0,15,16
 98 158 98 158 145 91.5 c 128,-1,17
 192 25 192 25 289 25 c 0,18,19
 356 25 356 25 398.5 55.5 c 128,-1,20
 441 86 441 86 461.5 140 c 128,-1,21
 482 194 482 194 482 265 c 0,22,23
 482 333 482 333 463 387.5 c 128,-1,24
 444 442 444 442 403 473.5 c 128,-1,25
 362 505 362 505 294 505 c 0,26,27
 199 505 199 505 148.5 441.5 c 128,-1,28
 98 378 98 378 98 265 c 0,15,16
EndSplineSet
Substitution2: "'smcp' Lowercase to Small Capitals lookup 34 subtable" o.sc
Substitution2: "Single Substitution lookup 28 subtable" ordmasculine
EndChar

StartChar: p
Encoding: 112 112 83
Width: 590
GlyphClass: 2
Flags: W
AnchorPoint: "Anchor-3" 567 530 basechar 0
AnchorPoint: "Anchor-2" 300 530 basechar 0
AnchorPoint: "Anchor-0" 109 -234 basechar 0
LayerCount: 2
Fore
SplineSet
318 540 m 0,0,1
 422 540 422 540 477.5 471 c 128,-1,2
 533 402 533 402 533 269 c 0,3,4
 533 135 533 135 474 62.5 c 128,-1,5
 415 -10 415 -10 310 -10 c 0,6,7
 235 -10 235 -10 190.5 24 c 128,-1,8
 146 58 146 58 128 106 c 1,9,-1
 126 106 l 1,10,11
 128 76 128 76 128 44.5 c 128,-1,12
 128 13 128 13 128 -16 c 2,13,-1
 128 -234 l 1,14,-1
 90 -234 l 1,15,-1
 90 530 l 1,16,-1
 122 530 l 1,17,-1
 126 414 l 1,18,-1
 128 414 l 1,19,20
 140 447 140 447 164.5 475.5 c 128,-1,21
 189 504 189 504 227.5 522 c 128,-1,22
 266 540 266 540 318 540 c 0,0,1
315 505 m 0,23,24
 222 505 222 505 175.5 443.5 c 128,-1,25
 129 382 129 382 128 269 c 2,26,-1
 128 263 l 2,27,28
 128 142 128 142 175 83.5 c 128,-1,29
 222 25 222 25 308 25 c 0,30,31
 396 25 396 25 444.5 87.5 c 128,-1,32
 493 150 493 150 493 269 c 0,33,34
 493 505 493 505 315 505 c 0,23,24
EndSplineSet
Substitution2: "'smcp' Lowercase to Small Capitals lookup 34 subtable" p.sc
Substitution2: "'subs' Subscript lookup 18 subtable" uni209A
EndChar

StartChar: q
Encoding: 113 113 84
Width: 590
GlyphClass: 2
Flags: W
AnchorPoint: "Anchor-3" 561 530 basechar 0
AnchorPoint: "Anchor-2" 295 530 basechar 0
AnchorPoint: "Anchor-0" 480 -234 basechar 0
LayerCount: 2
Fore
SplineSet
460 -234 m 1,0,-1
 460 0 l 2,1,2
 460 23 460 23 461 56 c 128,-1,3
 462 89 462 89 463 112 c 1,4,-1
 460 112 l 1,5,6
 442 59 442 59 393 24 c 128,-1,7
 344 -11 344 -11 270 -11 c 0,8,9
 166 -11 166 -11 111 59 c 128,-1,10
 56 129 56 129 56 263 c 0,11,12
 56 342 56 342 80.5 405 c 128,-1,13
 105 468 105 468 155.5 504 c 128,-1,14
 206 540 206 540 283 540 c 0,15,16
 353 540 353 540 396.5 508 c 128,-1,17
 440 476 440 476 459 432 c 1,18,-1
 461 432 l 1,19,-1
 467 530 l 1,20,-1
 499 530 l 1,21,-1
 499 -234 l 1,22,-1
 460 -234 l 1,0,-1
273 24 m 0,23,24
 370 24 370 24 415 87 c 128,-1,25
 460 150 460 150 461 262 c 2,26,-1
 461 273 l 2,27,28
 461 386 461 386 418.5 445.5 c 128,-1,29
 376 505 376 505 286 505 c 0,30,31
 192 505 192 505 144 441.5 c 128,-1,32
 96 378 96 378 96 263 c 0,33,34
 96 145 96 145 140 84.5 c 128,-1,35
 184 24 184 24 273 24 c 0,23,24
EndSplineSet
Substitution2: "'smcp' Lowercase to Small Capitals lookup 34 subtable" q.sc
EndChar

StartChar: r
Encoding: 114 114 85
Width: 383
GlyphClass: 2
Flags: W
AnchorPoint: "Anchor-3" 363 530 basechar 0
AnchorPoint: "Anchor-2" 199 530 basechar 0
AnchorPoint: "Anchor-0" 108 0 basechar 0
LayerCount: 2
Fore
SplineSet
290 538 m 0,0,1
 312 538 312 538 331 535 c 128,-1,2
 350 532 350 532 367 528 c 1,3,-1
 360 492 l 1,4,5
 327 502 327 502 288 502 c 0,6,7
 209 502 209 502 168.5 446 c 128,-1,8
 128 390 128 390 128 295 c 2,9,-1
 128 0 l 1,10,-1
 90 0 l 1,11,-1
 90 530 l 1,12,-1
 124 530 l 1,13,-1
 127 429 l 1,14,-1
 130 429 l 1,15,16
 146 475 146 475 187 506.5 c 128,-1,17
 228 538 228 538 290 538 c 0,0,1
EndSplineSet
Substitution2: "'smcp' Lowercase to Small Capitals lookup 34 subtable" r.sc
EndChar

StartChar: s
Encoding: 115 115 86
Width: 462
GlyphClass: 2
Flags: W
AnchorPoint: "Anchor-3" 438 530 basechar 0
AnchorPoint: "Anchor-2" 231 530 basechar 0
AnchorPoint: "Anchor-0" 231 0 basechar 0
LayerCount: 2
Fore
SplineSet
416 137 m 0,0,1
 416 68 416 68 364.5 29 c 128,-1,2
 313 -10 313 -10 214 -10 c 0,3,4
 159 -10 159 -10 114.5 0 c 128,-1,5
 70 10 70 10 42 24 c 1,6,-1
 42 64 l 1,7,8
 80 45 80 45 124 34.5 c 128,-1,9
 168 24 168 24 215 24 c 0,10,11
 300 24 300 24 338.5 53.5 c 128,-1,12
 377 83 377 83 377 135 c 0,13,14
 377 170 377 170 357.5 192 c 128,-1,15
 338 214 338 214 303 229 c 128,-1,16
 268 244 268 244 223 258 c 0,17,18
 175 274 175 274 137 289.5 c 128,-1,19
 99 305 99 305 77 331.5 c 128,-1,20
 55 358 55 358 55 406 c 0,21,22
 55 469 55 469 105.5 504.5 c 128,-1,23
 156 540 156 540 241 540 c 0,24,25
 288 540 288 540 329 531 c 128,-1,26
 370 522 370 522 403 508 c 1,27,-1
 388 474 l 1,28,29
 360 488 360 488 319.5 496.5 c 128,-1,30
 279 505 279 505 240 505 c 0,31,32
 171 505 171 505 132.5 480.5 c 128,-1,33
 94 456 94 456 94 407 c 0,34,35
 94 370 94 370 113 350 c 128,-1,36
 132 330 132 330 165 317 c 128,-1,37
 198 304 198 304 241 290 c 0,38,39
 286 275 286 275 326 258.5 c 128,-1,40
 366 242 366 242 391 214 c 128,-1,41
 416 186 416 186 416 137 c 0,0,1
EndSplineSet
Substitution2: "'smcp' Lowercase to Small Capitals lookup 34 subtable" s.sc
Substitution2: "'subs' Subscript lookup 18 subtable" uni209B
EndChar

StartChar: t
Encoding: 116 116 87
Width: 328
GlyphClass: 2
Flags: W
AnchorPoint: "Anchor-3" 306 659 basechar 0
AnchorPoint: "Anchor-2" 118 659 basechar 0
AnchorPoint: "Anchor-1" 164 265 basechar 0
AnchorPoint: "Anchor-0" 196 0 basechar 0
LayerCount: 2
Fore
SplineSet
223 25 m 0,0,1
 246 25 246 25 265.5 28.5 c 128,-1,2
 285 32 285 32 301 37 c 1,3,-1
 301 4 l 1,4,5
 284 -2 284 -2 265 -6 c 128,-1,6
 246 -10 246 -10 220 -10 c 0,7,8
 151 -10 151 -10 121 29 c 128,-1,9
 91 68 91 68 91 143 c 2,10,-1
 91 496 l 1,11,-1
 11 496 l 1,12,-1
 11 522 l 1,13,-1
 91 531 l 1,14,-1
 102 659 l 1,15,-1
 130 659 l 1,16,-1
 130 530 l 1,17,-1
 298 530 l 1,18,-1
 298 496 l 1,19,-1
 130 496 l 1,20,-1
 130 146 l 2,21,22
 130 88 130 88 150.5 56.5 c 128,-1,23
 171 25 171 25 223 25 c 0,0,1
EndSplineSet
Substitution2: "'smcp' Lowercase to Small Capitals lookup 34 subtable" t.sc
Substitution2: "'subs' Subscript lookup 18 subtable" uni209C
EndChar

StartChar: u
Encoding: 117 117 88
Width: 582
GlyphClass: 2
Flags: W
AnchorPoint: "Anchor-3" 555 530 basechar 0
AnchorPoint: "Anchor-2" 291 530 basechar 0
AnchorPoint: "Anchor-0" 288 0 basechar 0
LayerCount: 2
Fore
SplineSet
492 530 m 1,0,-1
 492 0 l 1,1,-1
 460 0 l 1,2,-1
 454 103 l 1,3,-1
 452 103 l 1,4,5
 433 58 433 58 387.5 24 c 128,-1,6
 342 -10 342 -10 264 -10 c 0,7,8
 81 -10 81 -10 81 183 c 2,9,-1
 81 530 l 1,10,-1
 120 530 l 1,11,-1
 120 187 l 2,12,13
 120 104 120 104 158 64.5 c 128,-1,14
 196 25 196 25 267 25 c 0,15,16
 354 25 354 25 403.5 76 c 128,-1,17
 453 127 453 127 453 232 c 2,18,-1
 453 530 l 1,19,-1
 492 530 l 1,0,-1
EndSplineSet
Substitution2: "'smcp' Lowercase to Small Capitals lookup 34 subtable" u.sc
EndChar

StartChar: v
Encoding: 118 118 89
Width: 446
GlyphClass: 2
Flags: W
AnchorPoint: "Anchor-3" 426 530 basechar 0
AnchorPoint: "Anchor-2" 223 530 basechar 0
AnchorPoint: "Anchor-0" 223 0 basechar 0
LayerCount: 2
Fore
SplineSet
204 0 m 1,0,-1
 0 530 l 1,1,-1
 41 530 l 1,2,-1
 183 155 l 2,3,4
 196 122 196 122 205 96 c 128,-1,5
 214 70 214 70 222 45 c 1,6,-1
 224 45 l 1,7,8
 232 70 232 70 241 96.5 c 128,-1,9
 250 123 250 123 263 155 c 2,10,-1
 405 530 l 1,11,-1
 446 530 l 1,12,-1
 242 0 l 1,13,-1
 204 0 l 1,0,-1
EndSplineSet
Substitution2: "'smcp' Lowercase to Small Capitals lookup 34 subtable" v.sc
EndChar

StartChar: w
Encoding: 119 119 90
Width: 706
GlyphClass: 2
Flags: W
AnchorPoint: "Anchor-3" 686 530 basechar 0
AnchorPoint: "Anchor-2" 353 530 basechar 0
AnchorPoint: "Anchor-0" 353 0 basechar 0
LayerCount: 2
Fore
SplineSet
509 -1 m 1,0,-1
 390 371 l 2,1,2
 381 400 381 400 374 424 c 128,-1,3
 367 448 367 448 360 474 c 1,4,-1
 357 474 l 1,5,6
 350 448 350 448 343 423 c 128,-1,7
 336 398 336 398 327 371 c 2,8,-1
 205 -1 l 1,9,-1
 167 -1 l 1,10,-1
 15 529 l 1,11,-1
 57 529 l 1,12,-1
 155 175 l 2,13,14
 168 130 168 130 175 103 c 128,-1,15
 182 76 182 76 186 51 c 1,16,-1
 189 51 l 1,17,18
 194 75 194 75 201.5 101.5 c 128,-1,19
 209 128 209 128 223 172 c 2,20,-1
 342 529 l 1,21,-1
 378 529 l 1,22,-1
 492 173 l 2,23,24
 503 136 503 136 512 106 c 128,-1,25
 521 76 521 76 526 51 c 1,26,-1
 529 51 l 1,27,28
 532 75 532 75 539 103.5 c 128,-1,29
 546 132 546 132 557 175 c 2,30,-1
 652 529 l 1,31,-1
 691 529 l 1,32,-1
 548 -1 l 1,33,-1
 509 -1 l 1,0,-1
EndSplineSet
Substitution2: "'smcp' Lowercase to Small Capitals lookup 34 subtable" w.sc
EndChar

StartChar: x
Encoding: 120 120 91
Width: 489
GlyphClass: 2
Flags: W
AnchorPoint: "Anchor-3" 469 530 basechar 0
AnchorPoint: "Anchor-2" 245 530 basechar 0
AnchorPoint: "Anchor-0" 245 0 basechar 0
LayerCount: 2
Fore
SplineSet
218 272 m 1,0,-1
 33 530 l 1,1,-1
 79 530 l 1,2,-1
 242 299 l 1,3,-1
 404 530 l 1,4,-1
 450 530 l 1,5,-1
 267 272 l 1,6,-1
 462 0 l 1,7,-1
 416 0 l 1,8,-1
 242 245 l 1,9,-1
 69 0 l 1,10,-1
 24 0 l 1,11,-1
 218 272 l 1,0,-1
EndSplineSet
Substitution2: "'smcp' Lowercase to Small Capitals lookup 34 subtable" x.sc
EndChar

StartChar: y
Encoding: 121 121 92
Width: 445
GlyphClass: 2
Flags: W
AnchorPoint: "Anchor-3" 425 530 basechar 0
AnchorPoint: "Anchor-2" 222 530 basechar 0
AnchorPoint: "Anchor-0" 59 -242 basechar 0
LayerCount: 2
Fore
SplineSet
0 530 m 1,0,-1
 41 530 l 1,1,-1
 174 184 l 2,2,3
 191 138 191 138 203.5 104 c 128,-1,4
 216 70 216 70 223 47 c 1,5,-1
 225 47 l 1,6,7
 232 70 232 70 244 103.5 c 128,-1,8
 256 137 256 137 273 181 c 2,9,-1
 405 530 l 1,10,-1
 446 530 l 1,11,-1
 201 -107 l 2,12,13
 176 -174 176 -174 143 -208 c 128,-1,14
 110 -242 110 -242 55 -242 c 0,15,16
 26 -242 26 -242 -3 -233 c 1,17,-1
 -3 -198 l 1,18,19
 10 -202 10 -202 23 -205 c 128,-1,20
 36 -208 36 -208 52 -208 c 0,21,22
 92 -208 92 -208 117.5 -182 c 128,-1,23
 143 -156 143 -156 166 -96 c 2,24,-1
 204 4 l 1,25,-1
 0 530 l 1,0,-1
EndSplineSet
Substitution2: "'smcp' Lowercase to Small Capitals lookup 34 subtable" y.sc
EndChar

StartChar: z
Encoding: 122 122 93
Width: 459
GlyphClass: 2
Flags: W
AnchorPoint: "Anchor-3" 435 530 basechar 0
AnchorPoint: "Anchor-2" 229 530 basechar 0
AnchorPoint: "Anchor-0" 231 0 basechar 0
LayerCount: 2
Fore
SplineSet
416 0 m 1,0,-1
 41 0 l 1,1,-1
 41 25 l 1,2,-1
 367 496 l 1,3,-1
 66 496 l 1,4,-1
 66 530 l 1,5,-1
 417 530 l 1,6,-1
 417 504 l 1,7,-1
 90 34 l 1,8,-1
 416 34 l 1,9,-1
 416 0 l 1,0,-1
EndSplineSet
Substitution2: "'smcp' Lowercase to Small Capitals lookup 34 subtable" z.sc
EndChar

StartChar: braceleft
Encoding: 123 123 94
Width: 346
Flags: W
LayerCount: 2
Fore
SplineSet
310 -158 m 1,0,1
 226 -158 226 -158 182.5 -122 c 128,-1,2
 139 -86 139 -86 139 -18 c 2,3,-1
 139 148 l 2,4,5
 139 208 139 208 112.5 234.5 c 128,-1,6
 86 261 86 261 26 261 c 1,7,-1
 26 295 l 1,8,9
 86 295 86 295 112.5 320.5 c 128,-1,10
 139 346 139 346 139 408 c 2,11,-1
 139 574 l 2,12,13
 139 642 139 642 183 678 c 128,-1,14
 227 714 227 714 310 714 c 1,15,-1
 310 679 l 1,16,17
 242 679 242 679 210 652.5 c 128,-1,18
 178 626 178 626 178 568 c 2,19,-1
 178 404 l 2,20,21
 178 353 178 353 159 320.5 c 128,-1,22
 140 288 140 288 93 280 c 1,23,-1
 93 277 l 1,24,25
 140 268 140 268 159 235.5 c 128,-1,26
 178 203 178 203 178 152 c 2,27,-1
 178 -15 l 2,28,29
 178 -71 178 -71 210 -97 c 128,-1,30
 242 -123 242 -123 310 -123 c 1,31,-1
 310 -158 l 1,0,1
EndSplineSet
Substitution2: "'smcp' Lowercase to Small Capitals lookup 34 subtable" braceleft.sc
Substitution2: "'c2sc' Capitals to Small Capitals lookup 33 subtable" braceleft.sc
EndChar

StartChar: bar
Encoding: 124 124 95
Width: 538
Flags: W
LayerCount: 2
Fore
SplineSet
250 762 m 1,0,-1
 285 762 l 1,1,-1
 285 -249 l 1,2,-1
 250 -249 l 1,3,-1
 250 762 l 1,0,-1
EndSplineSet
EndChar

StartChar: braceright
Encoding: 125 125 96
Width: 346
Flags: W
LayerCount: 2
Fore
SplineSet
35 -158 m 1,0,-1
 35 -123 l 1,1,2
 102 -123 102 -123 134.5 -97 c 128,-1,3
 167 -71 167 -71 167 -14 c 2,4,-1
 167 152 l 2,5,6
 167 203 167 203 186.5 235.5 c 128,-1,7
 206 268 206 268 252 277 c 1,8,-1
 252 279 l 1,9,10
 206 288 206 288 186.5 320.5 c 128,-1,11
 167 353 167 353 167 404 c 2,12,-1
 167 568 l 2,13,14
 167 626 167 626 134.5 652.5 c 128,-1,15
 102 679 102 679 35 679 c 1,16,-1
 35 714 l 1,17,18
 119 714 119 714 162.5 678 c 128,-1,19
 206 642 206 642 206 574 c 2,20,-1
 206 408 l 2,21,22
 206 346 206 346 232.5 320.5 c 128,-1,23
 259 295 259 295 319 295 c 1,24,-1
 319 261 l 1,25,26
 259 261 259 261 232.5 234.5 c 128,-1,27
 206 208 206 208 206 148 c 2,28,-1
 206 -18 l 2,29,30
 206 -86 206 -86 162 -122 c 128,-1,31
 118 -158 118 -158 35 -158 c 1,0,-1
EndSplineSet
Substitution2: "'smcp' Lowercase to Small Capitals lookup 34 subtable" braceright.sc
Substitution2: "'c2sc' Capitals to Small Capitals lookup 33 subtable" braceright.sc
EndChar

StartChar: asciitilde
Encoding: 126 126 97
Width: 570
Flags: W
LayerCount: 2
Fore
SplineSet
279 337 m 0,0,1
 250 351 250 351 227 359.5 c 128,-1,2
 204 368 204 368 171 368 c 0,3,4
 142 368 142 368 112.5 354 c 128,-1,5
 83 340 83 340 55 312 c 1,6,-1
 55 352 l 1,7,8
 78 374 78 374 108.5 387.5 c 128,-1,9
 139 401 139 401 172 401 c 0,10,11
 212 401 212 401 238 392.5 c 128,-1,12
 264 384 264 384 296 368 c 0,13,14
 325 354 325 354 348.5 346 c 128,-1,15
 372 338 372 338 401 338 c 0,16,17
 429 338 429 338 457.5 350.5 c 128,-1,18
 486 363 486 363 515 393 c 1,19,-1
 515 355 l 1,20,21
 496 333 496 333 466 319 c 128,-1,22
 436 305 436 305 400 305 c 0,23,24
 366 305 366 305 339 313 c 128,-1,25
 312 321 312 321 279 337 c 0,0,1
EndSplineSet
EndChar

StartChar: exclamdown
Encoding: 161 161 99
Width: 232
Flags: W
LayerCount: 2
Fore
SplineSet
149 500 m 256,0,1
 149 483 149 483 141 472 c 128,-1,2
 133 461 133 461 116 461 c 0,3,4
 96 461 96 461 89 472 c 128,-1,5
 82 483 82 483 82 500 c 256,6,7
 82 517 82 517 89 527.5 c 128,-1,8
 96 538 96 538 116 538 c 0,9,10
 133 538 133 538 141 527.5 c 128,-1,11
 149 517 149 517 149 500 c 256,0,1
99 349 m 1,12,-1
 130 349 l 1,13,-1
 137 -185 l 1,14,-1
 93 -185 l 1,15,-1
 99 349 l 1,12,-1
EndSplineSet
Substitution2: "'smcp' Lowercase to Small Capitals lookup 34 subtable" exclamdown.sc
Substitution2: "'c2sc' Capitals to Small Capitals lookup 33 subtable" exclamdown.sc
EndChar

StartChar: cent
Encoding: 162 162 100
Width: 570
Flags: W
LayerCount: 2
Fore
SplineSet
341 724 m 1,0,-1
 341 639 l 1,1,2
 380 639 380 639 411 633 c 128,-1,3
 442 627 442 627 471 614 c 1,4,-1
 462 579 l 1,5,6
 433 592 433 592 402.5 598 c 128,-1,7
 372 604 372 604 344 604 c 0,8,9
 276 604 276 604 227 573.5 c 128,-1,10
 178 543 178 543 152 488.5 c 128,-1,11
 126 434 126 434 126 361 c 0,12,13
 126 293 126 293 147.5 239.5 c 128,-1,14
 169 186 169 186 214 155.5 c 128,-1,15
 259 125 259 125 330 125 c 0,16,17
 368 125 368 125 402.5 132.5 c 128,-1,18
 437 140 437 140 466 152 c 1,19,-1
 466 116 l 1,20,21
 442 106 442 106 410.5 98 c 128,-1,22
 379 90 379 90 341 89 c 1,23,-1
 341 -10 l 1,24,-1
 307 -10 l 1,25,-1
 307 90 l 1,26,27
 194 97 194 97 140 170.5 c 128,-1,28
 86 244 86 244 86 361 c 0,29,30
 86 479 86 479 145 552.5 c 128,-1,31
 204 626 204 626 307 637 c 1,32,-1
 307 724 l 1,33,-1
 341 724 l 1,0,-1
EndSplineSet
EndChar

StartChar: sterling
Encoding: 163 163 101
Width: 570
Flags: W
LayerCount: 2
Fore
SplineSet
342 723 m 0,0,1
 391 723 391 723 428 714 c 128,-1,2
 465 705 465 705 495 692 c 1,3,-1
 482 657 l 1,4,5
 449 671 449 671 416.5 679.5 c 128,-1,6
 384 688 384 688 342 688 c 0,7,8
 269 688 269 688 233 646 c 128,-1,9
 197 604 197 604 197 515 c 2,10,-1
 197 365 l 1,11,-1
 397 365 l 1,12,-1
 397 332 l 1,13,-1
 197 332 l 1,14,-1
 197 194 l 2,15,16
 197 126 197 126 174.5 89.5 c 128,-1,17
 152 53 152 53 119 36 c 1,18,-1
 521 36 l 1,19,-1
 521 0 l 1,20,-1
 40 0 l 1,21,-1
 40 33 l 1,22,23
 97 44 97 44 127.5 82.5 c 128,-1,24
 158 121 158 121 158 193 c 2,25,-1
 158 332 l 1,26,-1
 53 332 l 1,27,-1
 53 365 l 1,28,-1
 158 365 l 1,29,-1
 158 520 l 2,30,31
 158 620 158 620 206 671.5 c 128,-1,32
 254 723 254 723 342 723 c 0,0,1
EndSplineSet
EndChar

StartChar: currency
Encoding: 164 164 102
Width: 570
Flags: W
LayerCount: 2
Fore
SplineSet
85 354 m 0,0,1
 85 425 85 425 132 483 c 1,2,-1
 57 559 l 1,3,-1
 79 581 l 1,4,-1
 155 506 l 1,5,6
 182 530 182 530 216 542 c 128,-1,7
 250 554 250 554 284 554 c 0,8,9
 319 554 319 554 353 542 c 128,-1,10
 387 530 387 530 414 506 c 1,11,-1
 489 580 l 1,12,-1
 511 558 l 1,13,-1
 437 483 l 1,14,15
 460 456 460 456 472 422 c 128,-1,16
 484 388 484 388 484 354 c 0,17,18
 484 280 484 280 437 224 c 1,19,-1
 512 149 l 1,20,-1
 489 126 l 1,21,-1
 414 202 l 1,22,23
 387 178 387 178 353 166 c 128,-1,24
 319 154 319 154 284 154 c 0,25,26
 250 154 250 154 216 166 c 128,-1,27
 182 178 182 178 155 202 c 1,28,-1
 79 127 l 1,29,-1
 58 149 l 1,30,-1
 132 224 l 1,31,32
 85 282 85 282 85 354 c 0,0,1
116 354 m 0,33,34
 116 306 116 306 139 268 c 128,-1,35
 162 230 162 230 200 207.5 c 128,-1,36
 238 185 238 185 284 185 c 256,37,38
 330 185 330 185 368.5 208 c 128,-1,39
 407 231 407 231 430 269.5 c 128,-1,40
 453 308 453 308 453 355 c 0,41,42
 453 401 453 401 430 439 c 128,-1,43
 407 477 407 477 369 500 c 128,-1,44
 331 523 331 523 285 523 c 0,45,46
 238 523 238 523 200 500.5 c 128,-1,47
 162 478 162 478 139 439.5 c 128,-1,48
 116 401 116 401 116 354 c 0,33,34
EndSplineSet
EndChar

StartChar: yen
Encoding: 165 165 103
Width: 570
Flags: W
LayerCount: 2
Fore
SplineSet
286 342 m 1,0,-1
 504 714 l 1,1,-1
 547 714 l 1,2,-1
 316 326 l 1,3,-1
 475 326 l 1,4,-1
 475 293 l 1,5,-1
 305 293 l 1,6,-1
 305 188 l 1,7,-1
 475 188 l 1,8,-1
 475 155 l 1,9,-1
 305 155 l 1,10,-1
 305 0 l 1,11,-1
 267 0 l 1,12,-1
 267 155 l 1,13,-1
 96 155 l 1,14,-1
 96 188 l 1,15,-1
 267 188 l 1,16,-1
 267 293 l 1,17,-1
 96 293 l 1,18,-1
 96 326 l 1,19,-1
 254 326 l 1,20,-1
 23 714 l 1,21,-1
 66 714 l 1,22,-1
 286 342 l 1,0,-1
EndSplineSet
EndChar

StartChar: brokenbar
Encoding: 166 166 104
Width: 538
Flags: W
LayerCount: 2
Fore
SplineSet
250 762 m 1,0,-1
 285 762 l 1,1,-1
 285 392 l 1,2,-1
 250 392 l 1,3,-1
 250 762 l 1,0,-1
250 122 m 1,4,-1
 285 122 l 1,5,-1
 285 -249 l 1,6,-1
 250 -249 l 1,7,-1
 250 122 l 1,4,-1
EndSplineSet
EndChar

StartChar: section
Encoding: 167 167 105
Width: 517
Flags: W
LayerCount: 2
Fore
SplineSet
79 395 m 0,0,1
 79 444 79 444 108 475 c 128,-1,2
 137 506 137 506 181 522 c 1,3,4
 138 538 138 538 111 563 c 128,-1,5
 84 588 84 588 84 634 c 0,6,7
 84 693 84 693 132 726.5 c 128,-1,8
 180 760 180 760 264 760 c 0,9,10
 311 760 311 760 350 752 c 128,-1,11
 389 744 389 744 421 730 c 1,12,-1
 407 697 l 1,13,14
 378 710 378 710 340.5 718.5 c 128,-1,15
 303 727 303 727 263 727 c 0,16,17
 195 727 195 727 158.5 703.5 c 128,-1,18
 122 680 122 680 122 634 c 0,19,20
 122 603 122 603 140 585.5 c 128,-1,21
 158 568 158 568 190 556 c 128,-1,22
 222 544 222 544 263 530 c 0,23,24
 308 516 308 516 346.5 499.5 c 128,-1,25
 385 483 385 483 409 455.5 c 128,-1,26
 433 428 433 428 433 381 c 0,27,28
 433 333 433 333 407.5 298.5 c 128,-1,29
 382 264 382 264 344 245 c 1,30,31
 381 228 381 228 404.5 203 c 128,-1,32
 428 178 428 178 428 134 c 0,33,34
 428 72 428 72 378.5 35 c 128,-1,35
 329 -2 329 -2 232 -2 c 0,36,37
 179 -2 179 -2 135.5 8 c 128,-1,38
 92 18 92 18 64 31 c 1,39,-1
 64 70 l 1,40,41
 101 52 101 52 144 41.5 c 128,-1,42
 187 31 187 31 233 31 c 0,43,44
 317 31 317 31 353.5 59.5 c 128,-1,45
 390 88 390 88 390 133 c 0,46,47
 390 180 390 180 349 203 c 128,-1,48
 308 226 308 226 241 247 c 0,49,50
 195 262 195 262 158.5 278 c 128,-1,51
 122 294 122 294 100.5 321 c 128,-1,52
 79 348 79 348 79 395 c 0,0,1
115 397 m 0,53,54
 115 360 115 360 133 339 c 128,-1,55
 151 318 151 318 183.5 304.5 c 128,-1,56
 216 291 216 291 258 277 c 2,57,-1
 310 260 l 1,58,59
 348 276 348 276 372 306.5 c 128,-1,60
 396 337 396 337 396 379 c 0,61,62
 396 430 396 430 352.5 457 c 128,-1,63
 309 484 309 484 223 507 c 1,64,65
 178 495 178 495 146.5 469 c 128,-1,66
 115 443 115 443 115 397 c 0,53,54
EndSplineSet
EndChar

StartChar: dieresis
Encoding: 168 168 106
Width: 576
Flags: W
LayerCount: 2
Fore
SplineSet
166 679 m 0,0,1
 166 693 166 693 172.5 703 c 128,-1,2
 179 713 179 713 194 713 c 0,3,4
 210 713 210 713 216.5 703 c 128,-1,5
 223 693 223 693 223 679 c 0,6,7
 223 663 223 663 216.5 653.5 c 128,-1,8
 210 644 210 644 194 644 c 0,9,10
 179 644 179 644 172.5 653.5 c 128,-1,11
 166 663 166 663 166 679 c 0,0,1
351 679 m 0,12,13
 351 693 351 693 358 703 c 128,-1,14
 365 713 365 713 379 713 c 0,15,16
 396 713 396 713 402 703 c 128,-1,17
 408 693 408 693 408 679 c 0,18,19
 408 663 408 663 402 653.5 c 128,-1,20
 396 644 396 644 379 644 c 0,21,22
 365 644 365 644 358 653.5 c 128,-1,23
 351 663 351 663 351 679 c 0,12,13
EndSplineSet
EndChar

StartChar: copyright
Encoding: 169 169 107
Width: 832
Flags: W
LayerCount: 2
Fore
SplineSet
416 -8 m 0,0,1
 336 -8 336 -8 269 20 c 128,-1,2
 202 48 202 48 153 98 c 128,-1,3
 104 148 104 148 77 214.5 c 128,-1,4
 50 281 50 281 50 357 c 0,5,6
 50 435 50 435 78.5 501.5 c 128,-1,7
 107 568 107 568 157.5 617.5 c 128,-1,8
 208 667 208 667 274 694.5 c 128,-1,9
 340 722 340 722 416 722 c 0,10,11
 495 722 495 722 562 692.5 c 128,-1,12
 629 663 629 663 678 612 c 128,-1,13
 727 561 727 561 754.5 495.5 c 128,-1,14
 782 430 782 430 782 357 c 0,15,16
 782 281 782 281 753.5 214.5 c 128,-1,17
 725 148 725 148 675 98 c 128,-1,18
 625 48 625 48 558.5 20 c 128,-1,19
 492 -8 492 -8 416 -8 c 0,0,1
416 22 m 0,20,21
 487 22 487 22 548 48.5 c 128,-1,22
 609 75 609 75 654.5 121.5 c 128,-1,23
 700 168 700 168 725 228.5 c 128,-1,24
 750 289 750 289 750 357 c 256,25,26
 750 425 750 425 725 485.5 c 128,-1,27
 700 546 700 546 655 592.5 c 128,-1,28
 610 639 610 639 549 665.5 c 128,-1,29
 488 692 488 692 416 692 c 0,30,31
 345 692 345 692 284.5 666.5 c 128,-1,32
 224 641 224 641 178.5 595 c 128,-1,33
 133 549 133 549 107.5 488.5 c 128,-1,34
 82 428 82 428 82 357 c 0,35,36
 82 288 82 288 106 227.5 c 128,-1,37
 130 167 130 167 174.5 121 c 128,-1,38
 219 75 219 75 280 48.5 c 128,-1,39
 341 22 341 22 416 22 c 0,20,21
434 141 m 0,40,41
 340 141 340 141 285.5 195.5 c 128,-1,42
 231 250 231 250 231 356 c 0,43,44
 231 422 231 422 257 471 c 128,-1,45
 283 520 283 520 329.5 547 c 128,-1,46
 376 574 376 574 438 574 c 0,47,48
 479 574 479 574 508.5 566.5 c 128,-1,49
 538 559 538 559 564 547 c 1,50,-1
 549 516 l 1,51,52
 526 527 526 527 499 533.5 c 128,-1,53
 472 540 472 540 438 540 c 0,54,55
 362 540 362 540 315 490.5 c 128,-1,56
 268 441 268 441 268 356 c 0,57,58
 268 266 268 266 314.5 220 c 128,-1,59
 361 174 361 174 435 174 c 0,60,61
 468 174 468 174 493.5 179 c 128,-1,62
 519 184 519 184 548 195 c 1,63,-1
 548 163 l 1,64,65
 522 152 522 152 495 146.5 c 128,-1,66
 468 141 468 141 434 141 c 0,40,41
EndSplineSet
EndChar

StartChar: ordfeminine
Encoding: 170 170 108
Width: 329
Flags: W
LayerCount: 2
Fore
SplineSet
171 722 m 0,0,1
 276 722 276 722 276 619 c 2,2,-1
 276 399 l 1,3,-1
 248 399 l 1,4,-1
 243 445 l 1,5,6
 230 424 230 424 204 409.5 c 128,-1,7
 178 395 178 395 141 395 c 0,8,9
 94 395 94 395 66.5 417.5 c 128,-1,10
 39 440 39 440 39 485 c 0,11,12
 39 533 39 533 77.5 557.5 c 128,-1,13
 116 582 116 582 196 585 c 2,14,-1
 243 587 l 1,15,-1
 243 617 l 2,16,17
 243 656 243 656 223.5 674 c 128,-1,18
 204 692 204 692 169 692 c 0,19,20
 144 692 144 692 120.5 685.5 c 128,-1,21
 97 679 97 679 74 666 c 1,22,-1
 62 695 l 1,23,24
 85 707 85 707 113 714.5 c 128,-1,25
 141 722 141 722 171 722 c 0,0,1
243 558 m 1,26,-1
 196 556 l 2,27,28
 132 554 132 554 103 538 c 128,-1,29
 74 522 74 522 74 485 c 0,30,31
 74 425 74 425 145 425 c 0,32,33
 194 425 194 425 218.5 452 c 128,-1,34
 243 479 243 479 243 526 c 2,35,-1
 243 558 l 1,26,-1
EndSplineSet
EndChar

StartChar: guillemotleft
Encoding: 171 171 109
Width: 413
Flags: W
LayerCount: 2
Fore
SplineSet
29 282 m 1,0,-1
 184 472 l 1,1,-1
 210 455 l 1,2,-1
 72 276 l 1,3,-1
 210 97 l 1,4,-1
 184 81 l 1,5,-1
 29 269 l 1,6,-1
 29 282 l 1,0,-1
204 282 m 1,7,-1
 359 472 l 1,8,-1
 385 455 l 1,9,-1
 247 276 l 1,10,-1
 385 97 l 1,11,-1
 359 81 l 1,12,-1
 204 269 l 1,13,-1
 204 282 l 1,7,-1
EndSplineSet
EndChar

StartChar: logicalnot
Encoding: 172 172 110
Width: 570
Flags: W
LayerCount: 2
Fore
SplineSet
502 370 m 1,0,-1
 502 131 l 1,1,-1
 469 131 l 1,2,-1
 469 336 l 1,3,-1
 54 336 l 1,4,-1
 54 370 l 1,5,-1
 502 370 l 1,0,-1
EndSplineSet
EndChar

StartChar: registered
Encoding: 174 174 112
Width: 832
Flags: W
LayerCount: 2
Fore
SplineSet
416 -8 m 0,0,1
 336 -8 336 -8 269 20 c 128,-1,2
 202 48 202 48 153 98 c 128,-1,3
 104 148 104 148 77 214.5 c 128,-1,4
 50 281 50 281 50 357 c 0,5,6
 50 435 50 435 78.5 501.5 c 128,-1,7
 107 568 107 568 157.5 617.5 c 128,-1,8
 208 667 208 667 274 694.5 c 128,-1,9
 340 722 340 722 416 722 c 0,10,11
 495 722 495 722 562 692.5 c 128,-1,12
 629 663 629 663 678 612 c 128,-1,13
 727 561 727 561 754.5 495.5 c 128,-1,14
 782 430 782 430 782 357 c 0,15,16
 782 281 782 281 753.5 214.5 c 128,-1,17
 725 148 725 148 675 98 c 128,-1,18
 625 48 625 48 558.5 20 c 128,-1,19
 492 -8 492 -8 416 -8 c 0,0,1
416 22 m 0,20,21
 487 22 487 22 548 48.5 c 128,-1,22
 609 75 609 75 654.5 121.5 c 128,-1,23
 700 168 700 168 725 228.5 c 128,-1,24
 750 289 750 289 750 357 c 256,25,26
 750 425 750 425 725 485.5 c 128,-1,27
 700 546 700 546 655 592.5 c 128,-1,28
 610 639 610 639 549 665.5 c 128,-1,29
 488 692 488 692 416 692 c 0,30,31
 345 692 345 692 284.5 666.5 c 128,-1,32
 224 641 224 641 178.5 595 c 128,-1,33
 133 549 133 549 107.5 488.5 c 128,-1,34
 82 428 82 428 82 357 c 0,35,36
 82 288 82 288 106 227.5 c 128,-1,37
 130 167 130 167 174.5 121 c 128,-1,38
 219 75 219 75 280 48.5 c 128,-1,39
 341 22 341 22 416 22 c 0,20,21
294 142 m 1,40,-1
 294 570 l 1,41,-1
 414 570 l 2,42,43
 480 570 480 570 519 541 c 128,-1,44
 558 512 558 512 558 448 c 0,45,46
 558 400 558 400 532 371 c 128,-1,47
 506 342 506 342 468 330 c 1,48,-1
 582 142 l 1,49,-1
 539 142 l 1,50,-1
 432 321 l 1,51,-1
 330 321 l 1,52,-1
 330 142 l 1,53,-1
 294 142 l 1,40,-1
329 351 m 1,54,-1
 411 351 l 2,55,56
 459 351 459 351 491 374.5 c 128,-1,57
 523 398 523 398 523 448 c 0,58,59
 523 496 523 496 492.5 517 c 128,-1,60
 462 538 462 538 412 538 c 2,61,-1
 329 538 l 1,62,-1
 329 351 l 1,54,-1
EndSplineSet
EndChar

StartChar: overscore
Encoding: 175 175 113
Width: 500
Flags: W
LayerCount: 2
Fore
SplineSet
503 760 m 1,0,-1
 -3 760 l 1,1,-1
 -3 793 l 1,2,-1
 503 793 l 1,3,-1
 503 760 l 1,0,-1
EndSplineSet
Substitution2: "'smcp' Lowercase to Small Capitals lookup 34 subtable" overscore.sc
Substitution2: "'c2sc' Capitals to Small Capitals lookup 33 subtable" overscore.sc
EndChar

StartChar: degree
Encoding: 176 176 114
Width: 428
Flags: W
LayerCount: 2
Fore
SplineSet
214 436 m 0,0,1
 152 436 152 436 110 475.5 c 128,-1,2
 68 515 68 515 68 580 c 256,3,4
 68 645 68 645 109.5 684.5 c 128,-1,5
 151 724 151 724 214 724 c 256,6,7
 277 724 277 724 318.5 684 c 128,-1,8
 360 644 360 644 360 580 c 0,9,10
 360 515 360 515 318.5 475.5 c 128,-1,11
 277 436 277 436 214 436 c 0,0,1
213 468 m 0,12,13
 264 468 264 468 295 499.5 c 128,-1,14
 326 531 326 531 326 580 c 0,15,16
 326 631 326 631 294.5 661.5 c 128,-1,17
 263 692 263 692 213 692 c 0,18,19
 161 692 161 692 131.5 661.5 c 128,-1,20
 102 631 102 631 102 580 c 0,21,22
 102 531 102 531 131.5 499.5 c 128,-1,23
 161 468 161 468 213 468 c 0,12,13
EndSplineSet
EndChar

StartChar: plusminus
Encoding: 177 177 115
Width: 570
Flags: W
LayerCount: 2
Fore
SplineSet
302 371 m 1,0,-1
 516 371 l 1,1,-1
 516 337 l 1,2,-1
 302 337 l 1,3,-1
 302 122 l 1,4,-1
 268 122 l 1,5,-1
 268 337 l 1,6,-1
 54 337 l 1,7,-1
 54 371 l 1,8,-1
 268 371 l 1,9,-1
 268 586 l 1,10,-1
 302 586 l 1,11,-1
 302 371 l 1,0,-1
54 0 m 1,12,-1
 54 34 l 1,13,-1
 516 34 l 1,14,-1
 516 0 l 1,15,-1
 54 0 l 1,12,-1
EndSplineSet
EndChar

StartChar: uni00B2
Encoding: 178 178 116
Width: 332
Flags: W
LayerCount: 2
Fore
SplineSet
307 416 m 1,0,-1
 26 416 l 1,1,-1
 26 444 l 1,2,-1
 148 567 l 2,3,4
 204 623 204 623 233 659.5 c 128,-1,5
 262 696 262 696 262 739 c 0,6,7
 262 776 262 776 238 799.5 c 128,-1,8
 214 823 214 823 169 823 c 0,9,10
 138 823 138 823 111.5 812.5 c 128,-1,11
 85 802 85 802 58 781 c 1,12,-1
 40 807 l 1,13,14
 68 830 68 830 100 842.5 c 128,-1,15
 132 855 132 855 169 855 c 0,16,17
 230 855 230 855 263.5 822.5 c 128,-1,18
 297 790 297 790 297 740 c 0,19,20
 297 706 297 706 282 677 c 128,-1,21
 267 648 267 648 239 618 c 128,-1,22
 211 588 211 588 172 548 c 2,23,-1
 74 449 l 1,24,-1
 307 449 l 1,25,-1
 307 416 l 1,0,-1
EndSplineSet
EndChar

StartChar: uni00B3
Encoding: 179 179 117
Width: 332
Flags: W
LayerCount: 2
Fore
SplineSet
169 851 m 0,0,1
 228 851 228 851 262.5 823.5 c 128,-1,2
 297 796 297 796 297 746 c 0,3,4
 297 705 297 705 275.5 678 c 128,-1,5
 254 651 254 651 221 643 c 1,6,-1
 221 641 l 1,7,8
 262 633 262 633 284.5 607 c 128,-1,9
 307 581 307 581 307 539 c 0,10,11
 307 479 307 479 266.5 445 c 128,-1,12
 226 411 226 411 150 411 c 0,13,14
 115 411 115 411 82.5 418 c 128,-1,15
 50 425 50 425 24 437 c 1,16,-1
 24 472 l 1,17,18
 55 458 55 458 86 450.5 c 128,-1,19
 117 443 117 443 151 443 c 0,20,21
 210 443 210 443 240.5 468.5 c 128,-1,22
 271 494 271 494 271 539 c 0,23,24
 271 583 271 583 241.5 603.5 c 128,-1,25
 212 624 212 624 153 624 c 2,26,-1
 88 624 l 1,27,-1
 88 655 l 1,28,-1
 153 655 l 2,29,30
 206 655 206 655 233.5 678.5 c 128,-1,31
 261 702 261 702 261 745 c 0,32,33
 261 780 261 780 236.5 800 c 128,-1,34
 212 820 212 820 169 820 c 0,35,36
 133 820 133 820 104.5 809.5 c 128,-1,37
 76 799 76 799 47 782 c 1,38,-1
 32 809 l 1,39,40
 60 828 60 828 93.5 839.5 c 128,-1,41
 127 851 127 851 169 851 c 0,0,1
EndSplineSet
EndChar

StartChar: acute
Encoding: 180 180 118
Width: 256
Flags: W
LayerCount: 2
Fore
SplineSet
216 766 m 1,0,-1
 216 758 l 1,1,2
 200 736 200 736 175 709 c 128,-1,3
 150 682 150 682 122 654.5 c 128,-1,4
 94 627 94 627 69 606 c 1,5,-1
 40 606 l 1,6,-1
 40 613 l 1,7,8
 61 633 61 633 86 660.5 c 128,-1,9
 111 688 111 688 133.5 716 c 128,-1,10
 156 744 156 744 170 766 c 1,11,-1
 216 766 l 1,0,-1
EndSplineSet
EndChar

StartChar: uni00B5
Encoding: 181 181 119
Width: 589
Flags: W
LayerCount: 2
Fore
SplineSet
499 530 m 1,0,-1
 499 0 l 1,1,-1
 466 0 l 1,2,-1
 461 90 l 1,3,-1
 458 90 l 1,4,5
 444 62 444 62 423.5 39.5 c 128,-1,6
 403 17 403 17 369.5 3.5 c 128,-1,7
 336 -10 336 -10 283 -10 c 0,8,9
 222 -10 222 -10 184.5 10 c 128,-1,10
 147 30 147 30 128 64 c 1,11,-1
 126 64 l 1,12,13
 126 44 126 44 126.5 19 c 128,-1,14
 127 -6 127 -6 127 -31 c 2,15,-1
 127 -240 l 1,16,-1
 89 -240 l 1,17,-1
 89 530 l 1,18,-1
 127 530 l 1,19,-1
 127 186 l 2,20,21
 127 25 127 25 284 25 c 0,22,23
 382 25 382 25 421.5 79 c 128,-1,24
 461 133 461 133 461 233 c 2,25,-1
 461 530 l 1,26,-1
 499 530 l 1,0,-1
EndSplineSet
EndChar

StartChar: paragraph
Encoding: 182 182 120
Width: 655
Flags: W
LayerCount: 2
Fore
SplineSet
524 -127 m 1,0,-1
 491 -127 l 1,1,-1
 491 729 l 1,2,-1
 364 729 l 1,3,-1
 364 -127 l 1,4,-1
 331 -127 l 1,5,-1
 331 338 l 1,6,7
 314 334 314 334 297.5 331.5 c 128,-1,8
 281 329 281 329 260 329 c 0,9,10
 174 329 174 329 130.5 388.5 c 128,-1,11
 87 448 87 448 87 547 c 0,12,13
 87 760 87 760 275 760 c 2,14,-1
 524 760 l 1,15,-1
 524 -127 l 1,0,-1
EndSplineSet
EndChar

StartChar: cedilla
Encoding: 184 184 122
Width: 200
Flags: W
LayerCount: 2
Fore
SplineSet
186 -144 m 0,0,1
 186 -188 186 -188 153 -214 c 128,-1,2
 120 -240 120 -240 66 -240 c 0,3,4
 32 -240 32 -240 11 -234 c 1,5,-1
 11 -204 l 1,6,7
 23 -207 23 -207 36 -208.5 c 128,-1,8
 49 -210 49 -210 67 -210 c 0,9,10
 104 -210 104 -210 128 -193.5 c 128,-1,11
 152 -177 152 -177 152 -145 c 0,12,13
 152 -114 152 -114 127 -100 c 128,-1,14
 102 -86 102 -86 52 -85 c 1,15,-1
 95 0 l 1,16,-1
 127 0 l 1,17,-1
 96 -63 l 1,18,19
 137 -66 137 -66 161.5 -86.5 c 128,-1,20
 186 -107 186 -107 186 -144 c 0,0,1
EndSplineSet
EndChar

StartChar: uni00B9
Encoding: 185 185 123
Width: 332
Flags: W
LayerCount: 2
Fore
SplineSet
203 844 m 1,0,-1
 203 416 l 1,1,-1
 167 416 l 1,2,-1
 167 695 l 2,3,4
 167 723 167 723 167.5 752.5 c 128,-1,5
 168 782 168 782 169 808 c 1,6,7
 153 798 153 798 138 788.5 c 128,-1,8
 123 779 123 779 101 768 c 2,9,-1
 53 740 l 1,10,-1
 37 767 l 1,11,-1
 172 844 l 1,12,-1
 203 844 l 1,0,-1
EndSplineSet
EndChar

StartChar: ordmasculine
Encoding: 186 186 124
Width: 357
Flags: W
LayerCount: 2
Fore
SplineSet
323 559 m 0,0,1
 323 487 323 487 286.5 440 c 128,-1,2
 250 393 250 393 179 393 c 0,3,4
 110 393 110 393 73 439.5 c 128,-1,5
 36 486 36 486 36 559 c 0,6,7
 36 636 36 636 75 680 c 128,-1,8
 114 724 114 724 182 724 c 0,9,10
 253 724 253 724 288 677 c 128,-1,11
 323 630 323 630 323 559 c 0,0,1
70 559 m 0,12,13
 70 498 70 498 97 460.5 c 128,-1,14
 124 423 124 423 179 423 c 0,15,16
 236 423 236 423 262.5 461 c 128,-1,17
 289 499 289 499 289 559 c 0,18,19
 289 616 289 616 263.5 655 c 128,-1,20
 238 694 238 694 182 694 c 0,21,22
 128 694 128 694 99 658.5 c 128,-1,23
 70 623 70 623 70 559 c 0,12,13
EndSplineSet
EndChar

StartChar: guillemotright
Encoding: 187 187 125
Width: 413
Flags: W
LayerCount: 2
Fore
SplineSet
385 271 m 1,0,-1
 229 81 l 1,1,-1
 204 98 l 1,2,-1
 341 277 l 1,3,-1
 204 456 l 1,4,-1
 229 472 l 1,5,-1
 385 284 l 1,6,-1
 385 271 l 1,0,-1
209 271 m 1,7,-1
 54 81 l 1,8,-1
 29 98 l 1,9,-1
 166 277 l 1,10,-1
 29 456 l 1,11,-1
 54 472 l 1,12,-1
 209 284 l 1,13,-1
 209 271 l 1,7,-1
EndSplineSet
EndChar

StartChar: onequarter
Encoding: 188 188 126
Width: 708
Flags: W
LayerCount: 2
Fore
SplineSet
143 0 m 1,0,-1
 528 714 l 1,1,-1
 565 714 l 1,2,-1
 180 0 l 1,3,-1
 143 0 l 1,0,-1
150 286 m 1,4,-1
 150 565 l 2,5,6
 150 593 150 593 150 622.5 c 128,-1,7
 150 652 150 652 152 678 c 1,8,9
 136 668 136 668 121 658.5 c 128,-1,10
 106 649 106 649 84 638 c 2,11,-1
 36 610 l 1,12,-1
 20 637 l 1,13,-1
 154 714 l 1,14,-1
 185 714 l 1,15,-1
 185 286 l 1,16,-1
 150 286 l 1,4,-1
592 0 m 1,17,-1
 592 124 l 1,18,-1
 390 124 l 1,19,-1
 390 149 l 1,20,-1
 590 431 l 1,21,-1
 627 431 l 1,22,-1
 627 155 l 1,23,-1
 699 155 l 1,24,-1
 699 124 l 1,25,-1
 627 124 l 1,26,-1
 627 0 l 1,27,-1
 592 0 l 1,17,-1
430 155 m 1,28,-1
 592 155 l 1,29,-1
 592 305 l 2,30,31
 592 328 592 328 592 349.5 c 128,-1,32
 592 371 592 371 593 391 c 1,33,34
 585 376 585 376 576.5 363 c 128,-1,35
 568 350 568 350 557 334 c 2,36,-1
 430 155 l 1,28,-1
EndSplineSet
EndChar

StartChar: onehalf
Encoding: 189 189 127
Width: 749
Flags: W
LayerCount: 2
Fore
SplineSet
137 0 m 1,0,-1
 522 714 l 1,1,-1
 559 714 l 1,2,-1
 174 0 l 1,3,-1
 137 0 l 1,0,-1
148 286 m 1,4,-1
 148 565 l 2,5,6
 148 593 148 593 148 622.5 c 128,-1,7
 148 652 148 652 149 678 c 1,8,9
 133 668 133 668 118 658.5 c 128,-1,10
 103 649 103 649 82 638 c 2,11,-1
 33 610 l 1,12,-1
 17 637 l 1,13,-1
 152 714 l 1,14,-1
 183 714 l 1,15,-1
 183 286 l 1,16,-1
 148 286 l 1,4,-1
443 0 m 1,17,-1
 443 28 l 1,18,-1
 565 151 l 2,19,20
 620 207 620 207 649.5 243.5 c 128,-1,21
 679 280 679 280 679 323 c 0,22,23
 679 360 679 360 655 383.5 c 128,-1,24
 631 407 631 407 586 407 c 0,25,26
 554 407 554 407 528 396.5 c 128,-1,27
 502 386 502 386 475 365 c 1,28,-1
 457 391 l 1,29,30
 485 414 485 414 517 426.5 c 128,-1,31
 549 439 549 439 586 439 c 0,32,33
 647 439 647 439 680.5 406.5 c 128,-1,34
 714 374 714 374 714 324 c 0,35,36
 714 290 714 290 699 261 c 128,-1,37
 684 232 684 232 656 202 c 128,-1,38
 628 172 628 172 589 132 c 2,39,-1
 491 33 l 1,40,-1
 724 33 l 1,41,-1
 724 0 l 1,42,-1
 443 0 l 1,17,-1
EndSplineSet
EndChar

StartChar: threequarters
Encoding: 190 190 128
Width: 763
Flags: W
LayerCount: 2
Fore
SplineSet
150 281 m 0,0,1
 115 281 115 281 82.5 288 c 128,-1,2
 50 295 50 295 24 307 c 1,3,-1
 24 342 l 1,4,5
 55 328 55 328 85.5 320.5 c 128,-1,6
 116 313 116 313 150 313 c 0,7,8
 210 313 210 313 240.5 338.5 c 128,-1,9
 271 364 271 364 271 409 c 0,10,11
 271 453 271 453 241.5 473.5 c 128,-1,12
 212 494 212 494 152 494 c 2,13,-1
 87 494 l 1,14,-1
 87 525 l 1,15,-1
 152 525 l 2,16,17
 204 525 204 525 232 548.5 c 128,-1,18
 260 572 260 572 260 615 c 0,19,20
 260 650 260 650 236 670 c 128,-1,21
 212 690 212 690 169 690 c 0,22,23
 133 690 133 690 104 679.5 c 128,-1,24
 75 669 75 669 47 652 c 1,25,-1
 31 679 l 1,26,27
 60 698 60 698 93.5 709.5 c 128,-1,28
 127 721 127 721 169 721 c 0,29,30
 228 721 228 721 262 693.5 c 128,-1,31
 296 666 296 666 296 616 c 0,32,33
 296 575 296 575 274.5 548 c 128,-1,34
 253 521 253 521 221 513 c 1,35,-1
 221 511 l 1,36,37
 262 503 262 503 284.5 477 c 128,-1,38
 307 451 307 451 307 409 c 0,39,40
 307 349 307 349 266 315 c 128,-1,41
 225 281 225 281 150 281 c 0,0,1
199 0 m 1,42,-1
 584 714 l 1,43,-1
 622 714 l 1,44,-1
 237 0 l 1,45,-1
 199 0 l 1,42,-1
647 0 m 1,46,-1
 647 124 l 1,47,-1
 445 124 l 1,48,-1
 445 149 l 1,49,-1
 645 431 l 1,50,-1
 682 431 l 1,51,-1
 682 155 l 1,52,-1
 754 155 l 1,53,-1
 754 124 l 1,54,-1
 682 124 l 1,55,-1
 682 0 l 1,56,-1
 647 0 l 1,46,-1
485 155 m 1,57,-1
 647 155 l 1,58,-1
 647 305 l 2,59,60
 647 328 647 328 647.5 349.5 c 128,-1,61
 648 371 648 371 649 391 c 1,62,63
 640 376 640 376 631 363 c 128,-1,64
 622 350 622 350 612 334 c 2,65,-1
 485 155 l 1,57,-1
EndSplineSet
EndChar

StartChar: AE
Encoding: 198 198 136
Width: 787
GlyphClass: 2
Flags: W
AnchorPoint: "Anchor-2" 405 714 basechar 0
AnchorPoint: "Anchor-0" 394 0 basechar 0
LayerCount: 2
Fore
SplineSet
764 0 m 1,0,-1
 382 0 l 1,1,-1
 382 260 l 1,2,-1
 155 260 l 1,3,-1
 43 0 l 1,4,-1
 -1 0 l 1,5,-1
 312 714 l 1,6,-1
 764 714 l 1,7,-1
 764 678 l 1,8,-1
 421 678 l 1,9,-1
 421 394 l 1,10,-1
 745 394 l 1,11,-1
 745 358 l 1,12,-1
 421 358 l 1,13,-1
 421 36 l 1,14,-1
 764 36 l 1,15,-1
 764 0 l 1,0,-1
172 296 m 1,16,-1
 382 296 l 1,17,-1
 382 678 l 1,18,-1
 337 678 l 1,19,-1
 172 296 l 1,16,-1
EndSplineSet
Substitution2: "'c2sc' Capitals to Small Capitals lookup 33 subtable" ae.sc
EndChar

StartChar: Eth
Encoding: 208 208 146
Width: 700
GlyphClass: 2
Flags: W
AnchorPoint: "Anchor-2" 350 714 basechar 0
AnchorPoint: "Anchor-0" 350 0 basechar 0
LayerCount: 2
Fore
SplineSet
288 714 m 2,0,1
 461 714 461 714 548.5 624 c 128,-1,2
 636 534 636 534 636 364 c 0,3,4
 636 185 636 185 543 92.5 c 128,-1,5
 450 0 450 0 265 0 c 2,6,-1
 103 0 l 1,7,-1
 103 337 l 1,8,-1
 20 337 l 1,9,-1
 20 373 l 1,10,-1
 103 373 l 1,11,-1
 103 714 l 1,12,-1
 288 714 l 2,0,1
277 678 m 2,13,-1
 142 678 l 1,14,-1
 142 373 l 1,15,-1
 343 373 l 1,16,-1
 343 337 l 1,17,-1
 142 337 l 1,18,-1
 142 36 l 1,19,-1
 265 36 l 2,20,21
 596 36 596 36 596 363 c 0,22,23
 596 518 596 518 519 598 c 128,-1,24
 442 678 442 678 277 678 c 2,13,-1
EndSplineSet
Substitution2: "'c2sc' Capitals to Small Capitals lookup 33 subtable" eth.sc
EndChar

StartChar: multiply
Encoding: 215 215 153
Width: 570
Flags: W
LayerCount: 2
Fore
SplineSet
477 568 m 1,0,-1
 500 545 l 1,1,-1
 309 353 l 1,2,-1
 500 161 l 1,3,-1
 477 138 l 1,4,-1
 285 329 l 1,5,-1
 94 138 l 1,6,-1
 70 161 l 1,7,-1
 261 353 l 1,8,-1
 70 544 l 1,9,-1
 94 568 l 1,10,-1
 285 377 l 1,11,-1
 477 568 l 1,0,-1
EndSplineSet
EndChar

StartChar: Oslash
Encoding: 216 216 154
Width: 759
GlyphClass: 2
Flags: W
AnchorPoint: "Anchor-2" 380 714 basechar 0
AnchorPoint: "Anchor-0" 380 0 basechar 0
LayerCount: 2
Fore
SplineSet
696 358 m 0,0,1
 696 250 696 250 661 167 c 128,-1,2
 626 84 626 84 555.5 37 c 128,-1,3
 485 -10 485 -10 379 -10 c 0,4,5
 316 -10 316 -10 266 7.5 c 128,-1,6
 216 25 216 25 178 58 c 1,7,-1
 116 -27 l 1,8,-1
 87 -7 l 1,9,-1
 152 81 l 1,10,11
 108 130 108 130 85.5 201.5 c 128,-1,12
 63 273 63 273 63 359 c 0,13,14
 63 467 63 467 99.5 549.5 c 128,-1,15
 136 632 136 632 208 678.5 c 128,-1,16
 280 725 280 725 384 725 c 0,17,18
 443 725 443 725 491.5 709 c 128,-1,19
 540 693 540 693 577 663 c 1,20,-1
 634 741 l 1,21,-1
 663 721 l 1,22,-1
 604 640 l 1,23,24
 648 593 648 593 672 521.5 c 128,-1,25
 696 450 696 450 696 358 c 0,0,1
103 359 m 0,26,27
 103 283 103 283 121 220.5 c 128,-1,28
 139 158 139 158 175 114 c 1,29,-1
 555 633 l 1,30,31
 523 660 523 660 480 674.5 c 128,-1,32
 437 689 437 689 384 689 c 0,33,34
 290 689 290 689 227.5 646.5 c 128,-1,35
 165 604 165 604 134 530 c 128,-1,36
 103 456 103 456 103 359 c 0,26,27
655 358 m 0,37,38
 655 524 655 524 580 608 c 1,39,-1
 200 88 l 1,40,41
 233 59 233 59 278 42.5 c 128,-1,42
 323 26 323 26 380 26 c 0,43,44
 474 26 474 26 535 68 c 128,-1,45
 596 110 596 110 625.5 184.5 c 128,-1,46
 655 259 655 259 655 358 c 0,37,38
EndSplineSet
Substitution2: "'c2sc' Capitals to Small Capitals lookup 33 subtable" oslash.sc
EndChar

StartChar: Thorn
Encoding: 222 222 160
Width: 580
GlyphClass: 2
Flags: W
AnchorPoint: "Anchor-2" 290 714 basechar 0
AnchorPoint: "Anchor-0" 290 0 basechar 0
LayerCount: 2
Fore
SplineSet
525 382 m 0,0,1
 525 276 525 276 456.5 222.5 c 128,-1,2
 388 169 388 169 258 169 c 2,3,-1
 141 169 l 1,4,-1
 141 0 l 1,5,-1
 102 0 l 1,6,-1
 102 714 l 1,7,-1
 141 714 l 1,8,-1
 141 584 l 1,9,-1
 281 584 l 2,10,11
 405 584 405 584 465 535 c 128,-1,12
 525 486 525 486 525 382 c 0,0,1
141 205 m 1,13,-1
 253 205 l 2,14,15
 325 205 325 205 377 221.5 c 128,-1,16
 429 238 429 238 457 276.5 c 128,-1,17
 485 315 485 315 485 381 c 0,18,19
 485 469 485 469 434.5 508.5 c 128,-1,20
 384 548 384 548 274 548 c 2,21,-1
 141 548 l 1,22,-1
 141 205 l 1,13,-1
EndSplineSet
Substitution2: "'c2sc' Capitals to Small Capitals lookup 33 subtable" thorn.sc
EndChar

StartChar: germandbls
Encoding: 223 223 161
Width: 570
GlyphClass: 2
Flags: W
AnchorPoint: "Anchor-2" 285 765 basechar 0
AnchorPoint: "Anchor-0" 285 0 basechar 0
LayerCount: 2
Fore
SplineSet
456 632 m 0,0,1
 456 595 456 595 442 571.5 c 128,-1,2
 428 548 428 548 407.5 531.5 c 128,-1,3
 387 515 387 515 366.5 500 c 128,-1,4
 346 485 346 485 332 466 c 128,-1,5
 318 447 318 447 318 418 c 0,6,7
 318 382 318 382 341.5 359.5 c 128,-1,8
 365 337 365 337 411 306 c 0,9,10
 441 286 441 286 465.5 264 c 128,-1,11
 490 242 490 242 505 212.5 c 128,-1,12
 520 183 520 183 520 138 c 0,13,14
 520 74 520 74 476.5 32 c 128,-1,15
 433 -10 433 -10 350 -10 c 0,16,17
 303 -10 303 -10 271.5 -1.5 c 128,-1,18
 240 7 240 7 214 18 c 1,19,-1
 214 57 l 1,20,21
 246 42 246 42 279 33 c 128,-1,22
 312 24 312 24 349 24 c 0,23,24
 415 24 415 24 448 54.5 c 128,-1,25
 481 85 481 85 481 137 c 0,26,27
 481 190 481 190 455.5 220 c 128,-1,28
 430 250 430 250 387 279 c 0,29,30
 356 301 356 301 331.5 320 c 128,-1,31
 307 339 307 339 293 361.5 c 128,-1,32
 279 384 279 384 279 417 c 0,33,34
 279 452 279 452 293 474 c 128,-1,35
 307 496 307 496 327.5 512 c 128,-1,36
 348 528 348 528 368 543 c 128,-1,37
 388 558 388 558 402 578.5 c 128,-1,38
 416 599 416 599 416 631 c 0,39,40
 416 678 416 678 382.5 704 c 128,-1,41
 349 730 349 730 287 730 c 0,42,43
 127 730 127 730 127 567 c 2,44,-1
 127 0 l 1,45,-1
 88 0 l 1,46,-1
 88 567 l 2,47,48
 88 664 88 664 140.5 714.5 c 128,-1,49
 193 765 193 765 287 765 c 0,50,51
 367 765 367 765 411.5 729.5 c 128,-1,52
 456 694 456 694 456 632 c 0,0,1
EndSplineSet
Substitution2: "'smcp' Lowercase to Small Capitals lookup 34 subtable" germandbls.sc
EndChar

StartChar: ae
Encoding: 230 230 168
Width: 853
GlyphClass: 2
Flags: W
AnchorPoint: "Anchor-2" 428 530 basechar 0
AnchorPoint: "Anchor-0" 426 0 basechar 0
LayerCount: 2
Fore
SplineSet
604 540 m 0,0,1
 668 540 668 540 711 507.5 c 128,-1,2
 754 475 754 475 775 419.5 c 128,-1,3
 796 364 796 364 794 294 c 2,4,-1
 794 263 l 1,5,-1
 429 263 l 1,6,7
 428 148 428 148 477.5 86.5 c 128,-1,8
 527 25 527 25 615 25 c 0,9,10
 659 25 659 25 693.5 32.5 c 128,-1,11
 728 40 728 40 773 61 c 1,12,-1
 773 23 l 1,13,14
 700 -10 700 -10 615 -10 c 0,15,16
 534 -10 534 -10 482.5 31 c 128,-1,17
 431 72 431 72 410 136 c 1,18,19
 389 70 389 70 341.5 30 c 128,-1,20
 294 -10 294 -10 211 -10 c 0,21,22
 132 -10 132 -10 90 28 c 128,-1,23
 48 66 48 66 48 133 c 0,24,25
 48 212 48 212 113 252 c 128,-1,26
 178 292 178 292 295 299 c 2,27,-1
 390 305 l 1,28,-1
 390 346 l 2,29,30
 390 431 390 431 357 467.5 c 128,-1,31
 324 504 324 504 262 504 c 0,32,33
 224 504 224 504 186.5 494.5 c 128,-1,34
 149 485 149 485 108 464 c 1,35,-1
 96 498 l 1,36,37
 135 517 135 517 177.5 528 c 128,-1,38
 220 539 220 539 264 539 c 0,39,40
 332 539 332 539 370.5 505.5 c 128,-1,41
 409 472 409 472 419 399 c 1,42,43
 442 461 442 461 488 500.5 c 128,-1,44
 534 540 534 540 604 540 c 0,0,1
604 505 m 0,45,46
 534 505 534 505 486 452 c 128,-1,47
 438 399 438 399 430 297 c 1,48,-1
 753 297 l 1,49,50
 754 390 754 390 716.5 447.5 c 128,-1,51
 679 505 679 505 604 505 c 0,45,46
389 272 m 1,52,-1
 299 268 l 2,53,54
 201 263 201 263 144.5 231 c 128,-1,55
 88 199 88 199 88 133 c 0,56,57
 88 81 88 81 120.5 52.5 c 128,-1,58
 153 24 153 24 214 24 c 0,59,60
 301 24 301 24 344.5 77 c 128,-1,61
 388 130 388 130 389 219 c 2,62,-1
 389 272 l 1,52,-1
EndSplineSet
Substitution2: "'smcp' Lowercase to Small Capitals lookup 34 subtable" ae.sc
EndChar

StartChar: eth
Encoding: 240 240 178
Width: 564
GlyphClass: 2
Flags: W
AnchorPoint: "Anchor-2" 282 759 basechar 0
AnchorPoint: "Anchor-0" 282 0 basechar 0
LayerCount: 2
Fore
SplineSet
206 759 m 1,0,1
 242 742 242 742 271.5 724 c 128,-1,2
 301 706 301 706 325 687 c 1,3,-1
 435 754 l 1,4,-1
 454 726 l 1,5,-1
 351 665 l 1,6,7
 428 588 428 588 467 488.5 c 128,-1,8
 506 389 506 389 506 273 c 0,9,10
 506 192 506 192 480.5 128 c 128,-1,11
 455 64 455 64 404.5 27 c 128,-1,12
 354 -10 354 -10 279 -10 c 0,13,14
 174 -10 174 -10 115.5 54 c 128,-1,15
 57 118 57 118 57 225 c 0,16,17
 57 300 57 300 86 354 c 128,-1,18
 115 408 115 408 165.5 437.5 c 128,-1,19
 216 467 216 467 281 467 c 0,20,21
 348 467 348 467 388 447 c 128,-1,22
 428 427 428 427 453 396 c 1,23,-1
 456 396 l 1,24,25
 441 465 441 465 406 531.5 c 128,-1,26
 371 598 371 598 319 646 c 1,27,-1
 190 569 l 1,28,-1
 172 596 l 1,29,-1
 292 668 l 1,30,31
 271 684 271 684 244.5 700.5 c 128,-1,32
 218 717 218 717 189 730 c 1,33,-1
 206 759 l 1,0,1
284 432 m 0,34,35
 201 432 201 432 148.5 377.5 c 128,-1,36
 96 323 96 323 96 224 c 0,37,38
 96 130 96 130 145 77.5 c 128,-1,39
 194 25 194 25 280 25 c 0,40,41
 369 25 369 25 417.5 89.5 c 128,-1,42
 466 154 466 154 466 278 c 0,43,44
 466 302 466 302 458 328.5 c 128,-1,45
 450 355 450 355 429.5 378.5 c 128,-1,46
 409 402 409 402 373.5 417 c 128,-1,47
 338 432 338 432 284 432 c 0,34,35
EndSplineSet
Substitution2: "'smcp' Lowercase to Small Capitals lookup 34 subtable" eth.sc
EndChar

StartChar: divide
Encoding: 247 247 185
Width: 570
Flags: W
LayerCount: 2
Fore
SplineSet
284 492 m 0,0,1
 268 492 268 492 260.5 502 c 128,-1,2
 253 512 253 512 253 529 c 256,3,4
 253 546 253 546 260.5 556 c 128,-1,5
 268 566 268 566 284 566 c 0,6,7
 303 566 303 566 310 556 c 128,-1,8
 317 546 317 546 317 529 c 256,9,10
 317 512 317 512 310 502 c 128,-1,11
 303 492 303 492 284 492 c 0,0,1
54 336 m 1,12,-1
 54 370 l 1,13,-1
 516 370 l 1,14,-1
 516 336 l 1,15,-1
 54 336 l 1,12,-1
284 139 m 0,16,17
 268 139 268 139 260.5 149.5 c 128,-1,18
 253 160 253 160 253 176 c 256,19,20
 253 192 253 192 260.5 202.5 c 128,-1,21
 268 213 268 213 284 213 c 0,22,23
 303 213 303 213 310 202.5 c 128,-1,24
 317 192 317 192 317 176 c 256,25,26
 317 160 317 160 310 149.5 c 128,-1,27
 303 139 303 139 284 139 c 0,16,17
EndSplineSet
EndChar

StartChar: oslash
Encoding: 248 248 186
Width: 581
GlyphClass: 2
Flags: W
AnchorPoint: "Anchor-2" 291 530 basechar 0
AnchorPoint: "Anchor-0" 291 0 basechar 0
LayerCount: 2
Fore
SplineSet
522 265 m 0,0,1
 522 185 522 185 496 123 c 128,-1,2
 470 61 470 61 418.5 25.5 c 128,-1,3
 367 -10 367 -10 289 -10 c 0,4,5
 240 -10 240 -10 202.5 5 c 128,-1,6
 165 20 165 20 137 48 c 1,7,-1
 76 -28 l 1,8,-1
 49 -8 l 1,9,-1
 113 73 l 1,10,11
 58 148 58 148 58 265 c 0,12,13
 58 392 58 392 120.5 466 c 128,-1,14
 183 540 183 540 294 540 c 0,15,16
 340 540 340 540 376.5 526.5 c 128,-1,17
 413 513 413 513 440 488 c 1,18,-1
 494 557 l 1,19,-1
 521 537 l 1,20,-1
 464 465 l 1,21,22
 493 428 493 428 507.5 377 c 128,-1,23
 522 326 522 326 522 265 c 0,0,1
98 265 m 0,24,25
 98 166 98 166 137 104 c 1,26,-1
 417 460 l 1,27,28
 395 481 395 481 364.5 493 c 128,-1,29
 334 505 334 505 294 505 c 0,30,31
 199 505 199 505 148.5 441.5 c 128,-1,32
 98 378 98 378 98 265 c 0,24,25
482 265 m 0,33,34
 482 315 482 315 472 358 c 128,-1,35
 462 401 462 401 440 433 c 1,36,-1
 159 76 l 1,37,38
 182 52 182 52 214.5 38.5 c 128,-1,39
 247 25 247 25 289 25 c 0,40,41
 356 25 356 25 398.5 55.5 c 128,-1,42
 441 86 441 86 461.5 140 c 128,-1,43
 482 194 482 194 482 265 c 0,33,34
EndSplineSet
Substitution2: "'smcp' Lowercase to Small Capitals lookup 34 subtable" oslash.sc
EndChar

StartChar: thorn
Encoding: 254 254 192
Width: 590
GlyphClass: 2
Flags: W
AnchorPoint: "Anchor-2" 295 760 basechar 0
AnchorPoint: "Anchor-0" 295 -234 basechar 0
LayerCount: 2
Fore
SplineSet
533 269 m 0,0,1
 533 135 533 135 474 62.5 c 128,-1,2
 415 -10 415 -10 311 -10 c 0,3,4
 235 -10 235 -10 190.5 24 c 128,-1,5
 146 58 146 58 128 106 c 1,6,-1
 126 106 l 1,7,8
 128 77 128 77 128 45.5 c 128,-1,9
 128 14 128 14 128 -15 c 2,10,-1
 128 -234 l 1,11,-1
 90 -234 l 1,12,-1
 90 760 l 1,13,-1
 128 760 l 1,14,-1
 128 527 l 2,15,16
 128 505 128 505 127.5 472.5 c 128,-1,17
 127 440 127 440 126 418 c 1,18,-1
 129 418 l 1,19,20
 147 467 147 467 193 503.5 c 128,-1,21
 239 540 239 540 318 540 c 0,22,23
 422 540 422 540 477.5 471 c 128,-1,24
 533 402 533 402 533 269 c 0,0,1
493 269 m 0,25,26
 493 505 493 505 315 505 c 0,27,28
 222 505 222 505 176 443.5 c 128,-1,29
 130 382 130 382 129 270 c 2,30,-1
 129 263 l 2,31,32
 129 142 129 142 175.5 83.5 c 128,-1,33
 222 25 222 25 308 25 c 0,34,35
 396 25 396 25 444.5 86.5 c 128,-1,36
 493 148 493 148 493 269 c 0,25,26
EndSplineSet
Substitution2: "'smcp' Lowercase to Small Capitals lookup 34 subtable" thorn.sc
EndChar

StartChar: dcroat
Encoding: 273 273 211
Width: 589
GlyphClass: 2
Flags: W
AnchorPoint: "Anchor-2" 295 760 basechar 0
AnchorPoint: "Anchor-0" 295 0 basechar 0
LayerCount: 2
Fore
SplineSet
281 -10 m 0,0,1
 170 -10 170 -10 114 58 c 128,-1,2
 58 126 58 126 58 256 c 0,3,4
 58 394 58 394 118 466.5 c 128,-1,5
 178 539 178 539 288 539 c 0,6,7
 358 539 358 539 401 506 c 128,-1,8
 444 473 444 473 463 424 c 1,9,-1
 466 424 l 1,10,11
 464 453 464 453 463.5 483.5 c 128,-1,12
 463 514 463 514 463 543 c 2,13,-1
 463 625 l 1,14,-1
 227 625 l 1,15,-1
 227 658 l 1,16,-1
 463 658 l 1,17,-1
 463 760 l 1,18,-1
 501 760 l 1,19,-1
 501 658 l 1,20,-1
 576 658 l 1,21,-1
 576 625 l 1,22,-1
 501 625 l 1,23,-1
 501 0 l 1,24,-1
 469 0 l 1,25,-1
 465 105 l 1,26,-1
 463 105 l 1,27,28
 444 58 444 58 400.5 24 c 128,-1,29
 357 -10 357 -10 281 -10 c 0,0,1
284 25 m 0,30,31
 381 25 381 25 421.5 86.5 c 128,-1,32
 462 148 462 148 462 260 c 2,33,-1
 462 266 l 2,34,35
 462 382 462 382 420.5 443 c 128,-1,36
 379 504 379 504 290 504 c 0,37,38
 197 504 197 504 147.5 441.5 c 128,-1,39
 98 379 98 379 98 256 c 0,40,41
 98 25 98 25 284 25 c 0,30,31
EndSplineSet
Substitution2: "'smcp' Lowercase to Small Capitals lookup 34 subtable" dcroat.sc
EndChar

StartChar: eogonek
Encoding: 281 281 219
Width: 545
GlyphClass: 2
Flags: W
AnchorPoint: "Anchor-3" 525 530 basechar 0
AnchorPoint: "Anchor-2" 273 530 basechar 0
AnchorPoint: "Anchor-0" 276 -218 basechar 0
LayerCount: 2
Fore
SplineSet
358 -128 m 0,0,1
 358 -186 358 -186 413 -186 c 0,2,3
 428 -186 428 -186 440.5 -183.5 c 128,-1,4
 453 -181 453 -181 461 -179 c 1,5,-1
 461 -209 l 1,6,7
 452 -213 452 -213 439 -215.5 c 128,-1,8
 426 -218 426 -218 409 -218 c 0,9,10
 371 -218 371 -218 347 -196.5 c 128,-1,11
 323 -175 323 -175 323 -133 c 0,12,13
 323 -69 323 -69 397 0 c 1,14,15
 354 -10 354 -10 299 -10 c 0,16,17
 218 -10 218 -10 164.5 24 c 128,-1,18
 111 58 111 58 84.5 119 c 128,-1,19
 58 180 58 180 58 260 c 0,20,21
 58 337 58 337 84 400.5 c 128,-1,22
 110 464 110 464 161 502 c 128,-1,23
 212 540 212 540 288 540 c 0,24,25
 356 540 356 540 399.5 507.5 c 128,-1,26
 443 475 443 475 464.5 419.5 c 128,-1,27
 486 364 486 364 486 294 c 2,28,-1
 486 263 l 1,29,-1
 98 263 l 1,30,31
 97 148 97 148 149.5 86.5 c 128,-1,32
 202 25 202 25 300 25 c 0,33,34
 349 25 349 25 384 32.5 c 128,-1,35
 419 40 419 40 465 61 c 1,36,-1
 465 23 l 1,37,38
 459 20 459 20 454 18 c 0,39,40
 409 -21 409 -21 383.5 -56.5 c 128,-1,41
 358 -92 358 -92 358 -128 c 0,0,1
288 505 m 256,42,43
 208 505 208 505 158 451.5 c 128,-1,44
 108 398 108 398 99 297 c 1,45,-1
 446 297 l 1,46,47
 446 390 446 390 407 447.5 c 128,-1,48
 368 505 368 505 288 505 c 256,42,43
EndSplineSet
Substitution2: "'smcp' Lowercase to Small Capitals lookup 34 subtable" eogonek.sc
Substitution2: "'locl' Localized Forms in Latin lookup 9 subtable" eogonek.loclNAV
Ligature2: "'ccmp' Glyph Composition/Decomposition lookup 6 subtable" e uni0328
EndChar

StartChar: Hbar
Encoding: 294 294 232
Width: 713
GlyphClass: 2
Flags: W
AnchorPoint: "Anchor-2" 357 714 basechar 0
AnchorPoint: "Anchor-0" 357 0 basechar 0
LayerCount: 2
Fore
SplineSet
102 0 m 1,0,-1
 102 544 l 1,1,-1
 0 544 l 1,2,-1
 0 578 l 1,3,-1
 102 578 l 1,4,-1
 102 714 l 1,5,-1
 141 714 l 1,6,-1
 141 578 l 1,7,-1
 572 578 l 1,8,-1
 572 714 l 1,9,-1
 611 714 l 1,10,-1
 611 578 l 1,11,-1
 713 578 l 1,12,-1
 713 544 l 1,13,-1
 611 544 l 1,14,-1
 611 0 l 1,15,-1
 572 0 l 1,16,-1
 572 357 l 1,17,-1
 141 357 l 1,18,-1
 141 0 l 1,19,-1
 102 0 l 1,0,-1
141 393 m 1,20,-1
 572 393 l 1,21,-1
 572 544 l 1,22,-1
 141 544 l 1,23,-1
 141 393 l 1,20,-1
EndSplineSet
Substitution2: "'c2sc' Capitals to Small Capitals lookup 33 subtable" hbar.sc
EndChar

StartChar: hbar
Encoding: 295 295 233
Width: 582
GlyphClass: 2
Flags: W
AnchorPoint: "Anchor-2" 255 760 basechar 0
AnchorPoint: "Anchor-0" 291 0 basechar 0
LayerCount: 2
Fore
SplineSet
128 760 m 1,0,-1
 128 658 l 1,1,-1
 363 658 l 1,2,-1
 363 625 l 1,3,-1
 128 625 l 1,4,-1
 128 500 l 2,5,6
 128 478 128 478 127 460.5 c 128,-1,7
 126 443 126 443 125 422 c 1,8,-1
 128 422 l 1,9,10
 145 468 145 468 191.5 502 c 128,-1,11
 238 536 238 536 316 536 c 0,12,13
 404 536 404 536 451.5 489 c 128,-1,14
 499 442 499 442 499 343 c 2,15,-1
 499 0 l 1,16,-1
 460 0 l 1,17,-1
 460 341 l 2,18,19
 460 424 460 424 422 462.5 c 128,-1,20
 384 501 384 501 313 501 c 0,21,22
 226 501 226 501 177 449.5 c 128,-1,23
 128 398 128 398 128 293 c 2,24,-1
 128 0 l 1,25,-1
 89 0 l 1,26,-1
 89 625 l 1,27,-1
 15 625 l 1,28,-1
 15 658 l 1,29,-1
 89 658 l 1,30,-1
 89 760 l 1,31,-1
 128 760 l 1,0,-1
EndSplineSet
Substitution2: "'smcp' Lowercase to Small Capitals lookup 34 subtable" hbar.sc
EndChar

StartChar: kgreenlandic
Encoding: 312 312 249
Width: 470
GlyphClass: 2
Flags: W
AnchorPoint: "Anchor-2" 235 530 basechar 0
AnchorPoint: "Anchor-0" 235 0 basechar 0
LayerCount: 2
Fore
SplineSet
453 530 m 1,0,-1
 249 301 l 1,1,-1
 472 0 l 1,2,-1
 426 0 l 1,3,-1
 222 275 l 1,4,-1
 129 175 l 1,5,-1
 129 0 l 1,6,-1
 89 0 l 1,7,-1
 89 530 l 1,8,-1
 129 530 l 1,9,-1
 129 387 l 2,10,11
 129 341 129 341 128.5 299 c 128,-1,12
 128 257 128 257 127 216 c 1,13,14
 142 234 142 234 153.5 247.5 c 128,-1,15
 165 261 165 261 180 277 c 2,16,-1
 405 530 l 1,17,-1
 453 530 l 1,0,-1
EndSplineSet
EndChar

StartChar: Lslash
Encoding: 321 321 258
Width: 510
GlyphClass: 2
Flags: W
AnchorPoint: "Anchor-2" 121 714 basechar 0
AnchorPoint: "Anchor-0" 286 0 basechar 0
LayerCount: 2
Fore
SplineSet
102 0 m 1,0,-1
 102 276 l 1,1,-1
 30 230 l 1,2,-1
 11 259 l 1,3,-1
 102 317 l 1,4,-1
 102 714 l 1,5,-1
 141 714 l 1,6,-1
 141 341 l 1,7,-1
 305 445 l 1,8,-1
 324 416 l 1,9,-1
 141 300 l 1,10,-1
 141 36 l 1,11,-1
 489 36 l 1,12,-1
 489 0 l 1,13,-1
 102 0 l 1,0,-1
EndSplineSet
Substitution2: "'c2sc' Capitals to Small Capitals lookup 33 subtable" lslash.sc
EndChar

StartChar: lslash
Encoding: 322 322 259
Width: 217
GlyphClass: 2
Flags: W
AnchorPoint: "Anchor-2" 109 760 basechar 0
AnchorPoint: "Anchor-0" 109 0 basechar 0
LayerCount: 2
Fore
SplineSet
91 0 m 1,0,-1
 91 328 l 1,1,-1
 25 283 l 1,2,-1
 6 312 l 1,3,-1
 91 368 l 1,4,-1
 91 760 l 1,5,-1
 129 760 l 1,6,-1
 129 392 l 1,7,-1
 207 444 l 1,8,-1
 224 416 l 1,9,-1
 129 353 l 1,10,-1
 129 0 l 1,11,-1
 91 0 l 1,0,-1
EndSplineSet
Substitution2: "'smcp' Lowercase to Small Capitals lookup 34 subtable" lslash.sc
EndChar

StartChar: Eng
Encoding: 330 330 267
Width: 711
GlyphClass: 2
Flags: W
AnchorPoint: "Anchor-2" 355 714 basechar 0
AnchorPoint: "Anchor-0" 355 -177 basechar 0
LayerCount: 2
Fore
SplineSet
451 -177 m 0,0,1
 428 -177 428 -177 406 -173 c 128,-1,2
 384 -169 384 -169 372 -164 c 1,3,-1
 372 -129 l 1,4,5
 405 -140 405 -140 450 -140 c 0,6,7
 508 -140 508 -140 539 -105.5 c 128,-1,8
 570 -71 570 -71 570 8 c 1,9,-1
 139 642 l 1,10,-1
 137 642 l 1,11,12
 138 602 138 602 138.5 562 c 128,-1,13
 139 522 139 522 139 479 c 2,14,-1
 139 0 l 1,15,-1
 102 0 l 1,16,-1
 102 714 l 1,17,-1
 139 714 l 1,18,-1
 570 77 l 1,19,-1
 572 77 l 1,20,21
 571 114 571 114 570.5 156.5 c 128,-1,22
 570 199 570 199 570 238 c 2,23,-1
 570 714 l 1,24,-1
 608 714 l 1,25,-1
 608 4 l 2,26,27
 608 -83 608 -83 568 -130 c 128,-1,28
 528 -177 528 -177 451 -177 c 0,0,1
EndSplineSet
Substitution2: "'c2sc' Capitals to Small Capitals lookup 33 subtable" eng.sc
AlternateSubs2: "'aalt' Access All Alternates lookup 1 subtable" Eng.alt1 Eng.alt2 Eng.alt3
EndChar

StartChar: eng
Encoding: 331 331 268
Width: 582
GlyphClass: 2
Flags: W
AnchorPoint: "Anchor-2" 291 530 basechar 0
AnchorPoint: "Anchor-0" 291 -240 basechar 0
LayerCount: 2
Fore
SplineSet
386 -240 m 0,0,1
 366 -240 366 -240 350.5 -237 c 128,-1,2
 335 -234 335 -234 323 -230 c 1,3,-1
 323 -194 l 1,4,5
 338 -201 338 -201 353 -203 c 128,-1,6
 368 -205 368 -205 384 -205 c 0,7,8
 460 -205 460 -205 460 -109 c 2,9,-1
 460 345 l 2,10,11
 460 428 460 428 422 466.5 c 128,-1,12
 384 505 384 505 313 505 c 0,13,14
 227 505 227 505 177.5 453.5 c 128,-1,15
 128 402 128 402 128 297 c 2,16,-1
 128 0 l 1,17,-1
 89 0 l 1,18,-1
 89 530 l 1,19,-1
 120 530 l 1,20,-1
 126 426 l 1,21,-1
 129 426 l 1,22,23
 148 471 148 471 193 505.5 c 128,-1,24
 238 540 238 540 316 540 c 0,25,26
 404 540 404 540 451.5 493 c 128,-1,27
 499 446 499 446 499 347 c 2,28,-1
 499 -112 l 2,29,30
 499 -176 499 -176 467.5 -208 c 128,-1,31
 436 -240 436 -240 386 -240 c 0,0,1
EndSplineSet
Substitution2: "'smcp' Lowercase to Small Capitals lookup 34 subtable" eng.sc
EndChar

StartChar: OE
Encoding: 338 338 275
Width: 905
GlyphClass: 2
Flags: W
AnchorPoint: "Anchor-2" 453 714 basechar 0
AnchorPoint: "Anchor-0" 453 0 basechar 0
LayerCount: 2
Fore
SplineSet
380 719 m 0,0,1
 406 719 406 719 425 717.5 c 128,-1,2
 444 716 444 716 469 714 c 2,3,-1
 843 714 l 1,4,-1
 843 678 l 1,5,-1
 499 678 l 1,6,-1
 499 394 l 1,7,-1
 824 394 l 1,8,-1
 824 358 l 1,9,-1
 499 358 l 1,10,-1
 499 36 l 1,11,-1
 843 36 l 1,12,-1
 843 0 l 1,13,-1
 462 0 l 2,14,15
 445 -2 445 -2 424.5 -3 c 128,-1,16
 404 -4 404 -4 379 -4 c 0,17,18
 274 -4 274 -4 203.5 41.5 c 128,-1,19
 133 87 133 87 98 169 c 128,-1,20
 63 251 63 251 63 359 c 256,21,22
 63 467 63 467 99.5 548 c 128,-1,23
 136 629 136 629 207 674 c 128,-1,24
 278 719 278 719 380 719 c 0,0,1
382 683 m 0,25,26
 288 683 288 683 226 642 c 128,-1,27
 164 601 164 601 133.5 528.5 c 128,-1,28
 103 456 103 456 103 359 c 0,29,30
 103 260 103 260 133 186 c 128,-1,31
 163 112 163 112 224.5 71.5 c 128,-1,32
 286 31 286 31 379 31 c 0,33,34
 404 31 404 31 424.5 32.5 c 128,-1,35
 445 34 445 34 460 38 c 1,36,-1
 460 676 l 1,37,38
 446 678 446 678 427 680.5 c 128,-1,39
 408 683 408 683 382 683 c 0,25,26
EndSplineSet
Substitution2: "'c2sc' Capitals to Small Capitals lookup 33 subtable" oe.sc
EndChar

StartChar: oe
Encoding: 339 339 276
Width: 963
GlyphClass: 2
Flags: W
AnchorPoint: "Anchor-2" 482 530 basechar 0
AnchorPoint: "Anchor-0" 482 0 basechar 0
LayerCount: 2
Fore
SplineSet
706 539 m 0,0,1
 774 539 774 539 817.5 507 c 128,-1,2
 861 475 861 475 882.5 419.5 c 128,-1,3
 904 364 904 364 904 294 c 2,4,-1
 904 263 l 1,5,-1
 518 263 l 1,6,7
 517 148 517 148 568.5 86.5 c 128,-1,8
 620 25 620 25 718 25 c 0,9,10
 768 25 768 25 803 32.5 c 128,-1,11
 838 40 838 40 883 61 c 1,12,-1
 883 23 l 1,13,14
 844 6 844 6 806 -2 c 128,-1,15
 768 -10 768 -10 718 -10 c 0,16,17
 626 -10 626 -10 573 34 c 128,-1,18
 520 78 520 78 499 151 c 1,19,20
 478 78 478 78 426 34 c 128,-1,21
 374 -10 374 -10 288 -10 c 0,22,23
 213 -10 213 -10 161.5 25 c 128,-1,24
 110 60 110 60 84 122 c 128,-1,25
 58 184 58 184 58 265 c 0,26,27
 58 392 58 392 120 465.5 c 128,-1,28
 182 539 182 539 293 539 c 0,29,30
 380 539 380 539 430 493.5 c 128,-1,31
 480 448 480 448 500 375 c 1,32,33
 522 447 522 447 573 493 c 128,-1,34
 624 539 624 539 706 539 c 0,0,1
293 505 m 0,35,36
 198 505 198 505 148 442 c 128,-1,37
 98 379 98 379 98 265 c 0,38,39
 98 156 98 156 144.5 90.5 c 128,-1,40
 191 25 191 25 288 25 c 0,41,42
 354 25 354 25 396.5 55 c 128,-1,43
 439 85 439 85 459.5 139 c 128,-1,44
 480 193 480 193 480 264 c 0,45,46
 480 333 480 333 461 387.5 c 128,-1,47
 442 442 442 442 401 473.5 c 128,-1,48
 360 505 360 505 293 505 c 0,35,36
706 505 m 0,49,50
 627 505 627 505 577 452 c 128,-1,51
 527 399 527 399 519 297 c 1,52,-1
 863 297 l 1,53,54
 864 390 864 390 825 447.5 c 128,-1,55
 786 505 786 505 706 505 c 0,49,50
EndSplineSet
Substitution2: "'smcp' Lowercase to Small Capitals lookup 34 subtable" oe.sc
EndChar

StartChar: Tbar
Encoding: 358 358 295
Width: 515
GlyphClass: 2
Flags: W
AnchorPoint: "Anchor-2" 258 714 basechar 0
AnchorPoint: "Anchor-0" 258 0 basechar 0
LayerCount: 2
Fore
SplineSet
238 0 m 1,0,-1
 238 349 l 1,1,-1
 56 349 l 1,2,-1
 56 384 l 1,3,-1
 238 384 l 1,4,-1
 238 678 l 1,5,-1
 4 678 l 1,6,-1
 4 714 l 1,7,-1
 512 714 l 1,8,-1
 512 678 l 1,9,-1
 277 678 l 1,10,-1
 277 384 l 1,11,-1
 457 384 l 1,12,-1
 457 349 l 1,13,-1
 277 349 l 1,14,-1
 277 0 l 1,15,-1
 238 0 l 1,0,-1
EndSplineSet
Substitution2: "'c2sc' Capitals to Small Capitals lookup 33 subtable" tbar.sc
EndChar

StartChar: tbar
Encoding: 359 359 296
Width: 328
GlyphClass: 2
Flags: W
AnchorPoint: "Anchor-3" 306 659 basechar 0
AnchorPoint: "Anchor-2" 118 659 basechar 0
AnchorPoint: "Anchor-1" 164 265 basechar 0
AnchorPoint: "Anchor-0" 196 0 basechar 0
LayerCount: 2
Fore
SplineSet
223 25 m 0,0,1
 246 25 246 25 265.5 28.5 c 128,-1,2
 285 32 285 32 301 37 c 1,3,-1
 301 4 l 1,4,5
 284 -2 284 -2 265 -6 c 128,-1,6
 246 -10 246 -10 220 -10 c 0,7,8
 151 -10 151 -10 121 29 c 128,-1,9
 91 68 91 68 91 143 c 2,10,-1
 91 284 l 1,11,-1
 19 284 l 1,12,-1
 19 317 l 1,13,-1
 91 317 l 1,14,-1
 91 496 l 1,15,-1
 11 496 l 1,16,-1
 11 522 l 1,17,-1
 91 531 l 1,18,-1
 102 659 l 1,19,-1
 130 659 l 1,20,-1
 130 530 l 1,21,-1
 298 530 l 1,22,-1
 298 496 l 1,23,-1
 130 496 l 1,24,-1
 130 317 l 1,25,-1
 281 317 l 1,26,-1
 281 284 l 1,27,-1
 130 284 l 1,28,-1
 130 146 l 2,29,30
 130 88 130 88 150.5 56.5 c 128,-1,31
 171 25 171 25 223 25 c 0,0,1
EndSplineSet
Substitution2: "'smcp' Lowercase to Small Capitals lookup 34 subtable" tbar.sc
EndChar

StartChar: Uogonek
Encoding: 370 370 307
Width: 716
GlyphClass: 2
Flags: W
AnchorPoint: "Anchor-3" 696 714 basechar 0
AnchorPoint: "Anchor-2" 358 714 basechar 0
AnchorPoint: "Anchor-0" 358 -218 basechar 0
LayerCount: 2
Fore
SplineSet
438 -119 m 0,0,1
 438 -154 438 -154 452 -170 c 128,-1,2
 466 -186 466 -186 493 -186 c 0,3,4
 508 -186 508 -186 520.5 -183.5 c 128,-1,5
 533 -181 533 -181 541 -179 c 1,6,-1
 541 -209 l 1,7,8
 532 -213 532 -213 519 -215.5 c 128,-1,9
 506 -218 506 -218 489 -218 c 0,10,11
 451 -218 451 -218 427.5 -196 c 128,-1,12
 404 -174 404 -174 404 -124 c 0,13,14
 404 -88 404 -88 420 -55.5 c 128,-1,15
 436 -23 436 -23 461 5 c 1,16,17
 414 -10 414 -10 356 -10 c 0,18,19
 231 -10 231 -10 162.5 58 c 128,-1,20
 94 126 94 126 94 254 c 2,21,-1
 94 714 l 1,22,-1
 133 714 l 1,23,-1
 133 255 l 2,24,25
 133 142 133 142 191.5 84 c 128,-1,26
 250 26 250 26 358 26 c 0,27,28
 463 26 463 26 523.5 82.5 c 128,-1,29
 584 139 584 139 584 246 c 2,30,-1
 584 714 l 1,31,-1
 622 714 l 1,32,-1
 622 252 l 2,33,34
 622 176 622 176 596 121.5 c 128,-1,35
 570 67 570 67 523 35 c 1,36,37
 493 4 493 4 465.5 -34 c 128,-1,38
 438 -72 438 -72 438 -119 c 0,0,1
EndSplineSet
Substitution2: "'c2sc' Capitals to Small Capitals lookup 33 subtable" uogonek.sc
Substitution2: "'locl' Localized Forms in Latin lookup 9 subtable" Uogonek.loclNAV
Ligature2: "'ccmp' Glyph Composition/Decomposition lookup 6 subtable" U uni0328
EndChar

StartChar: longs
Encoding: 383 383 320
Width: 300
GlyphClass: 2
Flags: W
AnchorPoint: "Anchor-2" 208 765 basechar 0
AnchorPoint: "Anchor-0" 150 0 basechar 0
LayerCount: 2
Fore
SplineSet
244 730 m 0,0,1
 128 730 128 730 128 581 c 2,2,-1
 128 0 l 1,3,-1
 90 0 l 1,4,-1
 90 583 l 2,5,6
 90 669 90 669 130 717 c 128,-1,7
 170 765 170 765 244 765 c 0,8,9
 266 765 266 765 284.5 762 c 128,-1,10
 303 759 303 759 321 754 c 1,11,-1
 314 719 l 1,12,13
 298 724 298 724 282 727 c 128,-1,14
 266 730 266 730 244 730 c 0,0,1
EndSplineSet
EndChar

StartChar: florin
Encoding: 402 402 321
Width: 570
GlyphClass: 2
Flags: W
AnchorPoint: "Anchor-2" 373 724 basechar 0
AnchorPoint: "Anchor-0" 285 -240 basechar 0
LayerCount: 2
Fore
SplineSet
403 724 m 0,0,1
 426 724 426 724 447 720.5 c 128,-1,2
 468 717 468 717 488 711 c 1,3,-1
 479 676 l 1,4,5
 462 682 462 682 443 685.5 c 128,-1,6
 424 689 424 689 401 689 c 0,7,8
 343 689 343 689 316 654 c 128,-1,9
 289 619 289 619 289 538 c 2,10,-1
 289 454 l 1,11,-1
 427 454 l 1,12,-1
 427 420 l 1,13,-1
 289 420 l 1,14,-1
 289 -91 l 2,15,16
 289 -161 289 -161 256.5 -200.5 c 128,-1,17
 224 -240 224 -240 161 -240 c 0,18,19
 138 -240 138 -240 121.5 -237 c 128,-1,20
 105 -234 105 -234 93 -231 c 1,21,-1
 93 -195 l 1,22,23
 109 -200 109 -200 125 -202.5 c 128,-1,24
 141 -205 141 -205 159 -205 c 0,25,26
 250 -205 250 -205 250 -87 c 2,27,-1
 250 420 l 1,28,-1
 152 420 l 1,29,-1
 152 446 l 1,30,-1
 250 455 l 1,31,-1
 250 540 l 2,32,33
 250 724 250 724 403 724 c 0,0,1
EndSplineSet
EndChar

StartChar: Aringacute
Encoding: 506 506 322
Width: 589
GlyphClass: 2
Flags: W
AnchorPoint: "Anchor-2" 294 964 basechar 0
AnchorPoint: "Anchor-0" 294 0 basechar 0
LayerCount: 2
Fore
SplineSet
277 823 m 1,0,-1
 277 830 l 1,1,2
 307 858 307 858 337.5 894.5 c 128,-1,3
 368 931 368 931 388 964 c 1,4,-1
 433 964 l 1,5,-1
 433 956 l 1,6,7
 410 924 410 924 377 889 c 128,-1,8
 344 854 344 854 306 823 c 1,9,-1
 277 823 l 1,0,-1
-6 0 m 1,10,-1
 274 584 l 1,11,12
 238 591 238 591 215.5 617 c 128,-1,13
 193 643 193 643 193 687 c 0,14,15
 193 732 193 732 222.5 760.5 c 128,-1,16
 252 789 252 789 298 789 c 256,17,18
 344 789 344 789 373 760.5 c 128,-1,19
 402 732 402 732 402 686 c 0,20,21
 402 644 402 644 380 618.5 c 128,-1,22
 358 593 358 593 322 584 c 1,23,-1
 594 0 l 1,24,-1
 551 0 l 1,25,-1
 447 225 l 1,26,-1
 143 225 l 1,27,-1
 36 0 l 1,28,-1
 -6 0 l 1,10,-1
297 608 m 0,29,30
 332 608 332 608 353 628 c 128,-1,31
 374 648 374 648 374 686 c 0,32,33
 374 720 374 720 353 741 c 128,-1,34
 332 762 332 762 297 762 c 256,35,36
 262 762 262 762 241.5 741 c 128,-1,37
 221 720 221 720 221 686 c 0,38,39
 221 649 221 649 242.5 628.5 c 128,-1,40
 264 608 264 608 297 608 c 0,29,30
159 261 m 1,41,-1
 432 261 l 1,42,-1
 326 494 l 2,43,44
 312 524 312 524 297 561 c 1,45,46
 284 524 284 524 270 495 c 2,47,-1
 159 261 l 1,41,-1
EndSplineSet
Substitution2: "'c2sc' Capitals to Small Capitals lookup 33 subtable" aringacute.sc
EndChar

StartChar: aringacute
Encoding: 507 507 323
Width: 521
GlyphClass: 2
Flags: W
AnchorPoint: "Anchor-2" 261 952 basechar 0
AnchorPoint: "Anchor-0" 261 0 basechar 0
LayerCount: 2
Fore
SplineSet
388 952 m 1,0,-1
 388 945 l 1,1,2
 364 914 364 914 326.5 879 c 128,-1,3
 289 844 289 844 254 816 c 1,4,-1
 224 816 l 1,5,-1
 224 823 l 1,6,7
 252 849 252 849 285 885 c 128,-1,8
 318 921 318 921 337 952 c 1,9,-1
 388 952 l 1,0,-1
270 784 m 0,10,11
 312 784 312 784 342 755 c 128,-1,12
 372 726 372 726 372 683 c 0,13,14
 372 637 372 637 342.5 609 c 128,-1,15
 313 581 313 581 270 581 c 0,16,17
 228 581 228 581 197.5 608.5 c 128,-1,18
 167 636 167 636 167 683 c 0,19,20
 167 726 167 726 197 755 c 128,-1,21
 227 784 227 784 270 784 c 0,10,11
270 754 m 0,22,23
 238 754 238 754 217.5 733.5 c 128,-1,24
 197 713 197 713 197 683 c 0,25,26
 197 652 197 652 217.5 631.5 c 128,-1,27
 238 611 238 611 270 611 c 256,28,29
 302 611 302 611 322 631.5 c 128,-1,30
 342 652 342 652 342 683 c 0,31,32
 342 713 342 713 320.5 733.5 c 128,-1,33
 299 754 299 754 270 754 c 0,22,23
269 539 m 0,34,35
 354 539 354 539 396.5 494.5 c 128,-1,36
 439 450 439 450 439 353 c 2,37,-1
 439 0 l 1,38,-1
 408 0 l 1,39,-1
 401 98 l 1,40,-1
 399 98 l 1,41,42
 375 52 375 52 331.5 21 c 128,-1,43
 288 -10 288 -10 209 -10 c 0,44,45
 131 -10 131 -10 89.5 28 c 128,-1,46
 48 66 48 66 48 133 c 0,47,48
 48 212 48 212 113.5 252.5 c 128,-1,49
 179 293 179 293 300 299 c 2,50,-1
 400 305 l 1,51,-1
 400 345 l 2,52,53
 400 430 400 430 367 467 c 128,-1,54
 334 504 334 504 268 504 c 0,55,56
 228 504 228 504 190 494 c 128,-1,57
 152 484 152 484 111 464 c 1,58,-1
 99 498 l 1,59,60
 137 516 137 516 180 527.5 c 128,-1,61
 223 539 223 539 269 539 c 0,34,35
400 272 m 1,62,-1
 304 268 l 2,63,64
 202 263 202 263 145 231 c 128,-1,65
 88 199 88 199 88 133 c 0,66,67
 88 81 88 81 121 52.5 c 128,-1,68
 154 24 154 24 213 24 c 0,69,70
 307 24 307 24 353 77 c 128,-1,71
 399 130 399 130 400 219 c 2,72,-1
 400 272 l 1,62,-1
EndSplineSet
Substitution2: "'smcp' Lowercase to Small Capitals lookup 34 subtable" aringacute.sc
EndChar

StartChar: circumflex
Encoding: 710 710 330
Width: 349
Flags: W
LayerCount: 2
Fore
SplineSet
193 764 m 1,0,1
 205 743 205 743 225.5 715.5 c 128,-1,2
 246 688 246 688 268 660.5 c 128,-1,3
 290 633 290 633 309 613 c 1,4,-1
 309 606 l 1,5,-1
 280 606 l 1,6,7
 253 632 253 632 225.5 664 c 128,-1,8
 198 696 198 696 175 724 c 1,9,10
 153 696 153 696 125 664 c 128,-1,11
 97 632 97 632 69 606 c 1,12,-1
 40 606 l 1,13,-1
 40 613 l 1,14,15
 58 634 58 634 81 661 c 128,-1,16
 104 688 104 688 124.5 715.5 c 128,-1,17
 145 743 145 743 157 764 c 1,18,-1
 193 764 l 1,0,1
EndSplineSet
EndChar

StartChar: caron
Encoding: 711 711 331
Width: 349
Flags: W
LayerCount: 2
Fore
SplineSet
156 606 m 1,0,1
 144 627 144 627 123.5 654.5 c 128,-1,2
 103 682 103 682 80.5 709 c 128,-1,3
 58 736 58 736 40 756 c 1,4,-1
 40 764 l 1,5,-1
 69 764 l 1,6,7
 97 738 97 738 124.5 706 c 128,-1,8
 152 674 152 674 174 645 c 1,9,10
 196 674 196 674 224.5 706 c 128,-1,11
 253 738 253 738 280 764 c 1,12,-1
 309 764 l 1,13,-1
 309 756 l 1,14,15
 290 736 290 736 267.5 709 c 128,-1,16
 245 682 245 682 224.5 654.5 c 128,-1,17
 204 627 204 627 192 606 c 1,18,-1
 156 606 l 1,0,1
EndSplineSet
EndChar

StartChar: macron
Encoding: 713 713 332
Width: 344
Flags: W
LayerCount: 2
Fore
SplineSet
304 646 m 1,0,-1
 304 612 l 1,1,-1
 40 612 l 1,2,-1
 40 646 l 1,3,-1
 304 646 l 1,0,-1
EndSplineSet
EndChar

StartChar: breve
Encoding: 728 728 333
Width: 338
Flags: W
LayerCount: 2
Fore
SplineSet
298 722 m 1,0,1
 292 666 292 666 259 636 c 128,-1,2
 226 606 226 606 168 606 c 256,3,4
 110 606 110 606 77 636 c 128,-1,5
 44 666 44 666 40 722 c 1,6,-1
 71 722 l 1,7,8
 79 640 79 640 169 640 c 0,9,10
 216 640 216 640 239 661.5 c 128,-1,11
 262 683 262 683 267 722 c 1,12,-1
 298 722 l 1,0,1
EndSplineSet
EndChar

StartChar: dotaccent
Encoding: 729 729 334
Width: 142
Flags: W
LayerCount: 2
Fore
SplineSet
70 724 m 0,0,1
 89 724 89 724 95.5 714 c 128,-1,2
 102 704 102 704 102 688 c 256,3,4
 102 672 102 672 95.5 662 c 128,-1,5
 89 652 89 652 70 652 c 0,6,7
 54 652 54 652 47 662 c 128,-1,8
 40 672 40 672 40 688 c 256,9,10
 40 704 40 704 47 714 c 128,-1,11
 54 724 54 724 70 724 c 0,0,1
EndSplineSet
EndChar

StartChar: ring
Encoding: 730 730 335
Width: 285
Flags: W
LayerCount: 2
Fore
SplineSet
143 610 m 0,0,1
 100 610 100 610 70 637.5 c 128,-1,2
 40 665 40 665 40 711 c 0,3,4
 40 755 40 755 70 783.5 c 128,-1,5
 100 812 100 812 143 812 c 0,6,7
 185 812 185 812 215 783 c 128,-1,8
 245 754 245 754 245 711 c 0,9,10
 245 666 245 666 215 638 c 128,-1,11
 185 610 185 610 143 610 c 0,0,1
143 639 m 0,12,13
 174 639 174 639 194.5 660 c 128,-1,14
 215 681 215 681 215 711 c 0,15,16
 215 742 215 742 193.5 762.5 c 128,-1,17
 172 783 172 783 143 783 c 0,18,19
 112 783 112 783 91 762.5 c 128,-1,20
 70 742 70 742 70 711 c 0,21,22
 70 681 70 681 90 660 c 128,-1,23
 110 639 110 639 143 639 c 0,12,13
EndSplineSet
EndChar

StartChar: ogonek
Encoding: 731 731 336
Width: 219
Flags: W
LayerCount: 2
Fore
SplineSet
75 -128 m 0,0,1
 75 -186 75 -186 131 -186 c 0,2,3
 145 -186 145 -186 158 -183.5 c 128,-1,4
 171 -181 171 -181 179 -179 c 1,5,-1
 179 -209 l 1,6,7
 169 -213 169 -213 155.5 -215.5 c 128,-1,8
 142 -218 142 -218 126 -218 c 0,9,10
 88 -218 88 -218 64 -196.5 c 128,-1,11
 40 -175 40 -175 40 -133 c 0,12,13
 40 -96 40 -96 65 -59.5 c 128,-1,14
 90 -23 90 -23 138 12 c 1,15,-1
 162 0 l 1,16,17
 128 -28 128 -28 101.5 -59.5 c 128,-1,18
 75 -91 75 -91 75 -128 c 0,0,1
EndSplineSet
EndChar

StartChar: tilde
Encoding: 732 732 337
Width: 414
Flags: W
LayerCount: 2
Fore
SplineSet
40 616 m 1,0,1
 44 667 44 667 68.5 693.5 c 128,-1,2
 93 720 93 720 133 720 c 0,3,4
 157 720 157 720 176 709 c 128,-1,5
 195 698 195 698 211.5 684 c 128,-1,6
 228 670 228 670 244.5 659 c 128,-1,7
 261 648 261 648 280 648 c 0,8,9
 302 648 302 648 320 662.5 c 128,-1,10
 338 677 338 677 343 720 c 1,11,-1
 374 720 l 1,12,13
 370 669 370 669 344.5 642 c 128,-1,14
 319 615 319 615 279 615 c 0,15,16
 254 615 254 615 235.5 625.5 c 128,-1,17
 217 636 217 636 201 650.5 c 128,-1,18
 185 665 185 665 168.5 675.5 c 128,-1,19
 152 686 152 686 131 686 c 256,20,21
 110 686 110 686 92.5 671.5 c 128,-1,22
 75 657 75 657 70 616 c 1,23,-1
 40 616 l 1,0,1
EndSplineSet
EndChar

StartChar: hungarumlaut
Encoding: 733 733 338
Width: 391
Flags: W
LayerCount: 2
Fore
SplineSet
351 766 m 1,0,-1
 351 758 l 1,1,2
 338 736 338 736 317.5 708.5 c 128,-1,3
 297 681 297 681 274.5 654 c 128,-1,4
 252 627 252 627 230 606 c 1,5,-1
 203 606 l 1,6,-1
 203 613 l 1,7,8
 220 632 220 632 240 659.5 c 128,-1,9
 260 687 260 687 278 715.5 c 128,-1,10
 296 744 296 744 308 766 c 1,11,-1
 351 766 l 1,0,-1
188 766 m 1,12,-1
 188 758 l 1,13,14
 174 736 174 736 154 708.5 c 128,-1,15
 134 681 134 681 111 654 c 128,-1,16
 88 627 88 627 67 606 c 1,17,-1
 40 606 l 1,18,-1
 40 613 l 1,19,20
 57 632 57 632 77 659.5 c 128,-1,21
 97 687 97 687 115.5 715.5 c 128,-1,22
 134 744 134 744 145 766 c 1,23,-1
 188 766 l 1,12,-1
EndSplineSet
EndChar

StartChar: tonos
Encoding: 900 900 339
Width: 577
Flags: W
AnchorPoint: "Anchor-10" 302 530 mark 0
AnchorPoint: "Anchor-6" 302 530 mark 0
AnchorPoint: "Anchor-2" 302 530 mark 0
LayerCount: 2
Fore
SplineSet
261 606 m 1,0,-1
 261 614 l 1,1,2
 276 652 276 652 291.5 706 c 128,-1,3
 307 760 307 760 313 807 c 1,4,-1
 355 807 l 1,5,-1
 355 797 l 1,6,7
 350 768 350 768 338.5 733.5 c 128,-1,8
 327 699 327 699 313.5 665.5 c 128,-1,9
 300 632 300 632 287 606 c 1,10,-1
 261 606 l 1,0,-1
EndSplineSet
EndChar

StartChar: dieresistonos
Encoding: 901 901 340
Width: 577
Flags: W
AnchorPoint: "Anchor-10" 287 530 mark 0
AnchorPoint: "Anchor-6" 287 530 mark 0
AnchorPoint: "Anchor-2" 287 530 mark 0
LayerCount: 2
Fore
SplineSet
355 839 m 1,0,-1
 355 830 l 1,1,2
 346 796 346 796 327 751 c 128,-1,3
 308 706 308 706 288 671 c 1,4,-1
 264 671 l 1,5,-1
 264 679 l 1,6,7
 279 713 279 713 292 757.5 c 128,-1,8
 305 802 305 802 311 839 c 1,9,-1
 355 839 l 1,0,-1
183 713 m 0,10,11
 200 713 200 713 206 703 c 128,-1,12
 212 693 212 693 212 679 c 0,13,14
 212 663 212 663 206 653.5 c 128,-1,15
 200 644 200 644 183 644 c 0,16,17
 169 644 169 644 162.5 653.5 c 128,-1,18
 156 663 156 663 156 679 c 0,19,20
 156 693 156 693 162.5 703 c 128,-1,21
 169 713 169 713 183 713 c 0,10,11
391 713 m 0,22,23
 408 713 408 713 414 703 c 128,-1,24
 420 693 420 693 420 679 c 0,25,26
 420 663 420 663 414 653.5 c 128,-1,27
 408 644 408 644 391 644 c 0,28,29
 376 644 376 644 369.5 653.5 c 128,-1,30
 363 663 363 663 363 679 c 0,31,32
 363 693 363 693 369.5 703 c 128,-1,33
 376 713 376 713 391 713 c 0,22,23
EndSplineSet
EndChar

StartChar: Gamma
Encoding: 915 915 352
Width: 496
GlyphClass: 2
Flags: W
AnchorPoint: "Anchor-2" 290 714 basechar 0
AnchorPoint: "Anchor-0" 248 0 basechar 0
LayerCount: 2
Fore
SplineSet
490 714 m 1,0,-1
 490 678 l 1,1,-1
 141 678 l 1,2,-1
 141 0 l 1,3,-1
 102 0 l 1,4,-1
 102 714 l 1,5,-1
 490 714 l 1,0,-1
EndSplineSet
EndChar

StartChar: uni0394
Encoding: 916 916 353
Width: 568
GlyphClass: 2
Flags: W
AnchorPoint: "Anchor-2" 285 714 basechar 0
AnchorPoint: "Anchor-0" 285 0 basechar 0
LayerCount: 2
Fore
SplineSet
303 714 m 1,0,-1
 561 21 l 1,1,-1
 561 0 l 1,2,-1
 7 0 l 1,3,-1
 7 22 l 1,4,-1
 265 714 l 1,5,-1
 303 714 l 1,0,-1
514 36 m 1,6,-1
 327 543 l 2,7,8
 314 579 314 579 302 613.5 c 128,-1,9
 290 648 290 648 283 669 c 1,10,11
 276 647 276 647 266 615.5 c 128,-1,12
 256 584 256 584 243 549 c 2,13,-1
 53 36 l 1,14,-1
 514 36 l 1,6,-1
EndSplineSet
EndChar

StartChar: Theta
Encoding: 920 920 357
Width: 759
GlyphClass: 2
Flags: W
AnchorPoint: "Anchor-3" 739 714 basechar 0
AnchorPoint: "Anchor-2" 380 714 basechar 0
AnchorPoint: "Anchor-1" 380 357 basechar 0
AnchorPoint: "Anchor-0" 380 0 basechar 0
LayerCount: 2
Fore
SplineSet
696 358 m 0,0,1
 696 250 696 250 661 167 c 128,-1,2
 626 84 626 84 555.5 37 c 128,-1,3
 485 -10 485 -10 379 -10 c 0,4,5
 274 -10 274 -10 203.5 37 c 128,-1,6
 133 84 133 84 98 167.5 c 128,-1,7
 63 251 63 251 63 359 c 256,8,9
 63 467 63 467 99.5 549.5 c 128,-1,10
 136 632 136 632 208 678.5 c 128,-1,11
 280 725 280 725 384 725 c 0,12,13
 534 725 534 725 615 627.5 c 128,-1,14
 696 530 696 530 696 358 c 0,0,1
103 359 m 0,15,16
 103 261 103 261 133 186 c 128,-1,17
 163 111 163 111 224.5 68.5 c 128,-1,18
 286 26 286 26 380 26 c 256,19,20
 474 26 474 26 535 68 c 128,-1,21
 596 110 596 110 625.5 184.5 c 128,-1,22
 655 259 655 259 655 358 c 0,23,24
 655 515 655 515 585.5 602 c 128,-1,25
 516 689 516 689 384 689 c 0,26,27
 290 689 290 689 227.5 646.5 c 128,-1,28
 165 604 165 604 134 530 c 128,-1,29
 103 456 103 456 103 359 c 0,15,16
545 379 m 1,30,-1
 545 343 l 1,31,-1
 214 343 l 1,32,-1
 214 379 l 1,33,-1
 545 379 l 1,30,-1
EndSplineSet
EndChar

StartChar: Lambda
Encoding: 923 923 360
Width: 572
GlyphClass: 2
Flags: W
AnchorPoint: "Anchor-2" 286 714 basechar 0
AnchorPoint: "Anchor-0" 286 0 basechar 0
LayerCount: 2
Fore
SplineSet
305 714 m 1,0,-1
 572 0 l 1,1,-1
 530 0 l 1,2,-1
 326 546 l 2,3,4
 314 578 314 578 303.5 609 c 128,-1,5
 293 640 293 640 285 665 c 1,6,7
 278 640 278 640 268 611.5 c 128,-1,8
 258 583 258 583 245 547 c 2,9,-1
 42 0 l 1,10,-1
 0 0 l 1,11,-1
 266 714 l 1,12,-1
 305 714 l 1,0,-1
EndSplineSet
EndChar

StartChar: Xi
Encoding: 926 926 363
Width: 525
GlyphClass: 2
Flags: W
AnchorPoint: "Anchor-2" 263 714 basechar 0
AnchorPoint: "Anchor-0" 263 0 basechar 0
LayerCount: 2
Fore
SplineSet
36 678 m 1,0,-1
 36 714 l 1,1,-1
 489 714 l 1,2,-1
 489 678 l 1,3,-1
 36 678 l 1,0,-1
76 357 m 1,4,-1
 76 393 l 1,5,-1
 449 393 l 1,6,-1
 449 357 l 1,7,-1
 76 357 l 1,4,-1
16 0 m 1,8,-1
 16 36 l 1,9,-1
 509 36 l 1,10,-1
 509 0 l 1,11,-1
 16 0 l 1,8,-1
EndSplineSet
EndChar

StartChar: Pi
Encoding: 928 928 365
Width: 709
GlyphClass: 2
Flags: W
AnchorPoint: "Anchor-2" 355 714 basechar 0
AnchorPoint: "Anchor-0" 355 0 basechar 0
LayerCount: 2
Fore
SplineSet
102 0 m 1,0,-1
 102 714 l 1,1,-1
 608 714 l 1,2,-1
 608 0 l 1,3,-1
 569 0 l 1,4,-1
 569 678 l 1,5,-1
 141 678 l 1,6,-1
 141 0 l 1,7,-1
 102 0 l 1,0,-1
EndSplineSet
EndChar

StartChar: Sigma
Encoding: 931 931 367
Width: 546
GlyphClass: 2
Flags: W
AnchorPoint: "Anchor-2" 273 714 basechar 0
AnchorPoint: "Anchor-0" 273 0 basechar 0
LayerCount: 2
Fore
SplineSet
28 0 m 1,0,-1
 28 32 l 1,1,-1
 300 372 l 1,2,-1
 34 684 l 1,3,-1
 34 714 l 1,4,-1
 504 714 l 1,5,-1
 504 677 l 1,6,-1
 87 677 l 1,7,-1
 348 374 l 1,8,-1
 78 37 l 1,9,-1
 533 37 l 1,10,-1
 533 0 l 1,11,-1
 28 0 l 1,0,-1
EndSplineSet
EndChar

StartChar: Phi
Encoding: 934 934 370
Width: 751
GlyphClass: 2
Flags: W
AnchorPoint: "Anchor-2" 376 714 basechar 0
AnchorPoint: "Anchor-0" 376 0 basechar 0
LayerCount: 2
Fore
SplineSet
395 724 m 1,0,-1
 395 637 l 1,1,2
 537 635 537 635 617 572.5 c 128,-1,3
 697 510 697 510 697 376 c 0,4,5
 697 244 697 244 616.5 173 c 128,-1,6
 536 102 536 102 395 99 c 1,7,-1
 395 -10 l 1,8,-1
 356 -10 l 1,9,-1
 356 99 l 1,10,11
 214 102 214 102 134 171 c 128,-1,12
 54 240 54 240 54 372 c 0,13,14
 54 496 54 496 131 564.5 c 128,-1,15
 208 633 208 633 356 637 c 1,16,-1
 356 724 l 1,17,-1
 395 724 l 1,0,-1
356 601 m 1,18,19
 229 599 229 599 161.5 542.5 c 128,-1,20
 94 486 94 486 94 372 c 0,21,22
 94 252 94 252 163 194.5 c 128,-1,23
 232 137 232 137 356 134 c 1,24,-1
 356 601 l 1,18,19
395 601 m 1,25,-1
 395 134 l 1,26,27
 518 137 518 137 587.5 196.5 c 128,-1,28
 657 256 657 256 657 377 c 0,29,30
 657 492 657 492 591.5 545.5 c 128,-1,31
 526 599 526 599 395 601 c 1,25,-1
EndSplineSet
EndChar

StartChar: Psi
Encoding: 936 936 372
Width: 753
GlyphClass: 2
Flags: W
AnchorPoint: "Anchor-2" 376 714 basechar 0
AnchorPoint: "Anchor-0" 376 0 basechar 0
LayerCount: 2
Fore
SplineSet
678 714 m 1,0,-1
 678 477 l 2,1,2
 678 384 678 384 644.5 329 c 128,-1,3
 611 274 611 274 546.5 249 c 128,-1,4
 482 224 482 224 389 222 c 1,5,-1
 389 0 l 1,6,-1
 351 0 l 1,7,-1
 351 222 l 1,8,9
 256 224 256 224 192 248.5 c 128,-1,10
 128 273 128 273 95 328.5 c 128,-1,11
 62 384 62 384 62 478 c 2,12,-1
 62 714 l 1,13,-1
 101 714 l 1,14,-1
 101 480 l 2,15,16
 101 361 101 361 160.5 310.5 c 128,-1,17
 220 260 220 260 351 257 c 1,18,-1
 351 714 l 1,19,-1
 389 714 l 1,20,-1
 389 257 l 1,21,22
 520 260 520 260 579.5 310 c 128,-1,23
 639 360 639 360 639 480 c 2,24,-1
 639 714 l 1,25,-1
 678 714 l 1,0,-1
EndSplineSet
EndChar

StartChar: uni03A9
Encoding: 937 937 373
Width: 773
GlyphClass: 2
Flags: W
AnchorPoint: "Anchor-2" 387 714 basechar 0
AnchorPoint: "Anchor-0" 387 0 basechar 0
LayerCount: 2
Fore
SplineSet
385 689 m 0,0,1
 302 689 302 689 239 652 c 128,-1,2
 176 615 176 615 141 547.5 c 128,-1,3
 106 480 106 480 106 388 c 0,4,5
 106 300 106 300 132 235.5 c 128,-1,6
 158 171 158 171 204.5 122.5 c 128,-1,7
 251 74 251 74 314 33 c 1,8,-1
 314 0 l 1,9,-1
 40 0 l 1,10,-1
 40 36 l 1,11,-1
 257 36 l 1,12,13
 203 72 203 72 159.5 120 c 128,-1,14
 116 168 116 168 91 234 c 128,-1,15
 66 300 66 300 66 389 c 0,16,17
 66 489 66 489 106 564.5 c 128,-1,18
 146 640 146 640 218 682.5 c 128,-1,19
 290 725 290 725 385 725 c 0,20,21
 482 725 482 725 554.5 685 c 128,-1,22
 627 645 627 645 667 570 c 128,-1,23
 707 495 707 495 707 389 c 0,24,25
 707 300 707 300 682.5 233.5 c 128,-1,26
 658 167 658 167 615 118.5 c 128,-1,27
 572 70 572 70 516 36 c 1,28,-1
 732 36 l 1,29,-1
 732 0 l 1,30,-1
 458 0 l 1,31,-1
 458 33 l 1,32,33
 561 94 561 94 613.5 176.5 c 128,-1,34
 666 259 666 259 666 388 c 0,35,36
 666 483 666 483 631 550.5 c 128,-1,37
 596 618 596 618 533 653.5 c 128,-1,38
 470 689 470 689 385 689 c 0,0,1
EndSplineSet
EndChar

StartChar: alpha
Encoding: 945 945 381
Width: 583
GlyphClass: 2
Flags: W
AnchorPoint: "Anchor-2" 293 530 basechar 0
AnchorPoint: "Anchor-0" 291 0 basechar 0
LayerCount: 2
Fore
SplineSet
278 -10 m 0,0,1
 170 -10 170 -10 114 60 c 128,-1,2
 58 130 58 130 58 263 c 256,3,4
 58 396 58 396 118 468 c 128,-1,5
 178 540 178 540 285 540 c 0,6,7
 416 540 416 540 456 435 c 1,8,-1
 459 435 l 1,9,10
 459 460 459 460 465.5 484.5 c 128,-1,11
 472 509 472 509 480 530 c 1,12,-1
 513 530 l 1,13,14
 505 496 505 496 500 452 c 128,-1,15
 495 408 495 408 495 344 c 2,16,-1
 495 119 l 2,17,18
 495 65 495 65 507 45 c 128,-1,19
 519 25 519 25 544 25 c 0,20,21
 562 25 562 25 579 30 c 1,22,-1
 579 -2 l 1,23,24
 572 -5 572 -5 560.5 -7.5 c 128,-1,25
 549 -10 549 -10 538 -10 c 0,26,27
 495 -10 495 -10 477.5 16 c 128,-1,28
 460 42 460 42 458 103 c 1,29,-1
 455 103 l 1,30,31
 436 56 436 56 394 23 c 128,-1,32
 352 -10 352 -10 278 -10 c 0,0,1
281 25 m 0,33,34
 374 25 374 25 415 87.5 c 128,-1,35
 456 150 456 150 456 259 c 2,36,-1
 456 278 l 2,37,38
 456 398 456 398 413.5 451.5 c 128,-1,39
 371 505 371 505 287 505 c 0,40,41
 196 505 196 505 147 442 c 128,-1,42
 98 379 98 379 98 263 c 256,43,44
 98 147 98 147 143.5 86 c 128,-1,45
 189 25 189 25 281 25 c 0,33,34
EndSplineSet
EndChar

StartChar: beta
Encoding: 946 946 382
Width: 602
GlyphClass: 2
Flags: W
AnchorPoint: "Anchor-3" 534 765 basechar 0
AnchorPoint: "Anchor-2" 310 765 basechar 0
AnchorPoint: "Anchor-0" 321 0 basechar 0
LayerCount: 2
Fore
SplineSet
318 765 m 0,0,1
 412 765 412 765 467.5 717 c 128,-1,2
 523 669 523 669 523 580 c 0,3,4
 523 511 523 511 487.5 463.5 c 128,-1,5
 452 416 452 416 388 404 c 1,6,-1
 388 402 l 1,7,8
 464 391 464 391 507.5 343 c 128,-1,9
 551 295 551 295 551 208 c 0,10,11
 551 110 551 110 488 52.5 c 128,-1,12
 425 -5 425 -5 314 -5 c 0,13,14
 262 -5 262 -5 217 8 c 128,-1,15
 172 21 172 21 128 48 c 1,16,-1
 128 -240 l 1,17,-1
 90 -240 l 1,18,-1
 90 539 l 2,19,20
 90 644 90 644 150 704.5 c 128,-1,21
 210 765 210 765 318 765 c 0,0,1
317 730 m 0,22,23
 228 730 228 730 178 680 c 128,-1,24
 128 630 128 630 128 535 c 2,25,-1
 128 85 l 1,26,27
 171 58 171 58 215 43.5 c 128,-1,28
 259 29 259 29 312 29 c 0,29,30
 407 29 407 29 459.5 77 c 128,-1,31
 512 125 512 125 512 209 c 0,32,33
 512 291 512 291 465 337 c 128,-1,34
 418 383 418 383 314 383 c 2,35,-1
 256 383 l 1,36,-1
 256 418 l 1,37,-1
 312 418 l 2,38,39
 392 418 392 418 437.5 458.5 c 128,-1,40
 483 499 483 499 483 579 c 0,41,42
 483 650 483 650 440.5 690 c 128,-1,43
 398 730 398 730 317 730 c 0,22,23
EndSplineSet
EndChar

StartChar: gamma
Encoding: 947 947 383
Width: 469
GlyphClass: 2
Flags: W
AnchorPoint: "Anchor-3" 451 530 basechar 0
AnchorPoint: "Anchor-2" 235 530 basechar 0
AnchorPoint: "Anchor-0" 235 -240 basechar 0
LayerCount: 2
Fore
SplineSet
457 530 m 1,0,-1
 266 36 l 2,1,2
 239 -34 239 -34 226 -106 c 128,-1,3
 213 -178 213 -178 212 -240 c 1,4,-1
 172 -240 l 1,5,6
 172 -200 172 -200 178.5 -154 c 128,-1,7
 185 -108 185 -108 195.5 -64 c 128,-1,8
 206 -20 206 -20 217 13 c 1,9,-1
 1 530 l 1,10,-1
 42 530 l 1,11,-1
 194 165 l 2,12,13
 206 136 206 136 216.5 109.5 c 128,-1,14
 227 83 227 83 235 56 c 1,15,-1
 238 56 l 1,16,17
 246 81 246 81 256 108.5 c 128,-1,18
 266 136 266 136 276 163 c 2,19,-1
 416 530 l 1,20,-1
 457 530 l 1,0,-1
EndSplineSet
EndChar

StartChar: delta
Encoding: 948 948 384
Width: 575
GlyphClass: 2
Flags: W
AnchorPoint: "Anchor-2" 288 766 basechar 0
AnchorPoint: "Anchor-0" 288 0 basechar 0
LayerCount: 2
Fore
SplineSet
312 766 m 0,0,1
 358 766 358 766 403 755 c 128,-1,2
 448 744 448 744 496 719 c 1,3,-1
 478 687 l 1,4,5
 436 710 436 710 396.5 721 c 128,-1,6
 357 732 357 732 311 732 c 0,7,8
 247 732 247 732 214.5 704 c 128,-1,9
 182 676 182 676 182 630 c 0,10,11
 182 596 182 596 197.5 572.5 c 128,-1,12
 213 549 213 549 243.5 527.5 c 128,-1,13
 274 506 274 506 321 480 c 0,14,15
 376 448 376 448 420.5 414.5 c 128,-1,16
 465 381 465 381 491 335.5 c 128,-1,17
 517 290 517 290 517 224 c 0,18,19
 517 118 517 118 457.5 54 c 128,-1,20
 398 -10 398 -10 288 -10 c 0,21,22
 183 -10 183 -10 120 49 c 128,-1,23
 57 108 57 108 57 212 c 0,24,25
 57 302 57 302 110.5 367 c 128,-1,26
 164 432 164 432 277 466 c 1,27,28
 234 491 234 491 203.5 513.5 c 128,-1,29
 173 536 173 536 157.5 563.5 c 128,-1,30
 142 591 142 591 142 630 c 0,31,32
 142 693 142 693 190 729.5 c 128,-1,33
 238 766 238 766 312 766 c 0,0,1
311 444 m 1,34,35
 247 428 247 428 199 398.5 c 128,-1,36
 151 369 151 369 124 323.5 c 128,-1,37
 97 278 97 278 97 211 c 0,38,39
 97 124 97 124 149 74.5 c 128,-1,40
 201 25 201 25 288 25 c 0,41,42
 379 25 379 25 428 77.5 c 128,-1,43
 477 130 477 130 477 224 c 0,44,45
 477 303 477 303 431.5 354.5 c 128,-1,46
 386 406 386 406 311 444 c 1,34,35
EndSplineSet
EndChar

StartChar: epsilon
Encoding: 949 949 385
Width: 445
GlyphClass: 2
Flags: W
AnchorPoint: "Anchor-2" 228 530 basechar 0
AnchorPoint: "Anchor-0" 223 0 basechar 0
LayerCount: 2
Fore
SplineSet
324 298 m 1,0,-1
 324 264 l 1,1,-1
 261 264 l 2,2,3
 177 264 177 264 131.5 234.5 c 128,-1,4
 86 205 86 205 86 141 c 0,5,6
 86 88 86 88 126 56.5 c 128,-1,7
 166 25 166 25 245 25 c 0,8,9
 292 25 292 25 331 34 c 128,-1,10
 370 43 370 43 407 57 c 1,11,-1
 407 21 l 1,12,13
 380 9 380 9 338 -0.5 c 128,-1,14
 296 -10 296 -10 244 -10 c 0,15,16
 143 -10 143 -10 94.5 31.5 c 128,-1,17
 46 73 46 73 46 140 c 0,18,19
 46 251 46 251 164 280 c 1,20,-1
 164 283 l 1,21,22
 109 299 109 299 86.5 329 c 128,-1,23
 64 359 64 359 64 402 c 0,24,25
 64 451 64 451 89.5 481.5 c 128,-1,26
 115 512 115 512 156.5 526 c 128,-1,27
 198 540 198 540 247 540 c 0,28,29
 298 540 298 540 334 531.5 c 128,-1,30
 370 523 370 523 407 508 c 1,31,-1
 393 475 l 1,32,33
 363 488 363 488 326 496.5 c 128,-1,34
 289 505 289 505 248 505 c 0,35,36
 103 505 103 505 103 400 c 0,37,38
 103 298 103 298 270 298 c 2,39,-1
 324 298 l 1,0,-1
EndSplineSet
EndChar

StartChar: zeta
Encoding: 950 950 386
Width: 462
GlyphClass: 2
Flags: W
AnchorPoint: "Anchor-2" 232 760 basechar 0
AnchorPoint: "Anchor-0" 232 -197 basechar 0
LayerCount: 2
Fore
SplineSet
428 -69 m 0,0,1
 428 -102 428 -102 414 -134 c 128,-1,2
 400 -166 400 -166 374 -197 c 1,3,-1
 332 -197 l 1,4,5
 359 -163 359 -163 374.5 -131.5 c 128,-1,6
 390 -100 390 -100 389 -74 c 0,7,8
 388 -34 388 -34 359 -17 c 128,-1,9
 330 0 330 0 260 11 c 0,10,11
 156 28 156 28 107 79.5 c 128,-1,12
 58 131 58 131 58 224 c 0,13,14
 58 293 58 293 78.5 351.5 c 128,-1,15
 99 410 99 410 139.5 466.5 c 128,-1,16
 180 523 180 523 241 586 c 128,-1,17
 302 649 302 649 383 727 c 1,18,19
 358 726 358 726 328 725.5 c 128,-1,20
 298 725 298 725 264 725 c 2,21,-1
 91 725 l 1,22,-1
 91 760 l 1,23,-1
 434 760 l 1,24,-1
 434 729 l 1,25,26
 340 640 340 640 275.5 572.5 c 128,-1,27
 211 505 211 505 172 449 c 128,-1,28
 133 393 133 393 115.5 339.5 c 128,-1,29
 98 286 98 286 98 225 c 0,30,31
 98 142 98 142 143 100.5 c 128,-1,32
 188 59 188 59 280 44 c 0,33,34
 352 31 352 31 390 9 c 128,-1,35
 428 -13 428 -13 428 -69 c 0,0,1
EndSplineSet
EndChar

StartChar: eta
Encoding: 951 951 387
Width: 582
GlyphClass: 2
Flags: W
AnchorPoint: "Anchor-2" 295 530 basechar 0
AnchorPoint: "Anchor-0" 291 -240 basechar 0
LayerCount: 2
Fore
SplineSet
316 540 m 0,0,1
 404 540 404 540 451.5 493 c 128,-1,2
 499 446 499 446 499 347 c 2,3,-1
 499 -240 l 1,4,-1
 460 -240 l 1,5,-1
 460 345 l 2,6,7
 460 428 460 428 422 466.5 c 128,-1,8
 384 505 384 505 313 505 c 0,9,10
 227 505 227 505 177.5 453.5 c 128,-1,11
 128 402 128 402 128 297 c 2,12,-1
 128 0 l 1,13,-1
 89 0 l 1,14,-1
 89 530 l 1,15,-1
 120 530 l 1,16,-1
 126 426 l 1,17,-1
 129 426 l 1,18,19
 148 471 148 471 193.5 505.5 c 128,-1,20
 239 540 239 540 316 540 c 0,0,1
EndSplineSet
EndChar

StartChar: theta
Encoding: 952 952 388
Width: 563
GlyphClass: 2
Flags: W
AnchorPoint: "Anchor-3" 499 773 basechar 0
AnchorPoint: "Anchor-2" 282 773 basechar 0
AnchorPoint: "Anchor-0" 282 0 basechar 0
LayerCount: 2
Fore
SplineSet
507 391 m 0,0,1
 507 188 507 188 449.5 89 c 128,-1,2
 392 -10 392 -10 280 -10 c 0,3,4
 170 -10 170 -10 113 88.5 c 128,-1,5
 56 187 56 187 56 389 c 0,6,7
 56 581 56 581 113.5 677 c 128,-1,8
 171 773 171 773 282 773 c 0,9,10
 507 773 507 773 507 391 c 0,0,1
282 738 m 256,11,12
 101 738 101 738 95 410 c 1,13,-1
 467 410 l 1,14,15
 463 738 463 738 282 738 c 256,11,12
280 25 m 0,16,17
 374 25 374 25 420 112.5 c 128,-1,18
 466 200 466 200 468 376 c 1,19,-1
 95 376 l 1,20,21
 100 25 100 25 280 25 c 0,16,17
EndSplineSet
EndChar

StartChar: iota
Encoding: 953 953 389
Width: 297
GlyphClass: 2
Flags: W
AnchorPoint: "Anchor-2" 101 530 basechar 0
AnchorPoint: "Anchor-0" 180 0 basechar 0
LayerCount: 2
Fore
SplineSet
119 530 m 1,0,-1
 119 146 l 2,1,2
 119 81 119 81 143.5 53 c 128,-1,3
 168 25 168 25 219 25 c 0,4,5
 236 25 236 25 252 27 c 128,-1,6
 268 29 268 29 280 32 c 1,7,-1
 280 -1 l 1,8,9
 269 -5 269 -5 251 -7.5 c 128,-1,10
 233 -10 233 -10 215 -10 c 0,11,12
 150 -10 150 -10 115 25 c 128,-1,13
 80 60 80 60 80 140 c 2,14,-1
 80 530 l 1,15,-1
 119 530 l 1,0,-1
EndSplineSet
EndChar

StartChar: lambda
Encoding: 955 955 391
Width: 493
GlyphClass: 2
Flags: W
AnchorPoint: "Anchor-2" 246 766 basechar 0
AnchorPoint: "Anchor-0" 246 0 basechar 0
LayerCount: 2
Fore
SplineSet
-6 0 m 1,0,-1
 224 535 l 1,1,-1
 190 637 l 2,2,3
 172 690 172 690 150.5 710.5 c 128,-1,4
 129 731 129 731 94 731 c 0,5,6
 80 731 80 731 68.5 728.5 c 128,-1,7
 57 726 57 726 47 724 c 1,8,-1
 47 759 l 1,9,10
 58 762 58 762 70.5 764 c 128,-1,11
 83 766 83 766 101 766 c 0,12,13
 151 766 151 766 177.5 740 c 128,-1,14
 204 714 204 714 227 647 c 2,15,-1
 425 75 l 2,16,17
 435 47 435 47 446 36.5 c 128,-1,18
 457 26 457 26 472 26 c 0,19,20
 480 26 480 26 487 27 c 128,-1,21
 494 28 494 28 498 30 c 1,22,-1
 498 -2 l 1,23,24
 486 -8 486 -8 464 -8 c 0,25,26
 435 -8 435 -8 418 8.5 c 128,-1,27
 401 25 401 25 390 58 c 2,28,-1
 274 396 l 2,29,30
 265 422 265 422 256.5 445.5 c 128,-1,31
 248 469 248 469 243 490 c 1,32,-1
 240 490 l 1,33,34
 233 468 233 468 224.5 446 c 128,-1,35
 216 424 216 424 207 402 c 2,36,-1
 36 0 l 1,37,-1
 -6 0 l 1,0,-1
EndSplineSet
EndChar

StartChar: nu
Encoding: 957 957 393
Width: 504
GlyphClass: 2
Flags: W
AnchorPoint: "Anchor-2" 252 530 basechar 0
AnchorPoint: "Anchor-0" 252 0 basechar 0
LayerCount: 2
Fore
SplineSet
-1 530 m 1,0,-1
 41 530 l 1,1,-1
 199 103 l 2,2,3
 204 89 204 89 210 71 c 128,-1,4
 216 53 216 53 221 39 c 1,5,-1
 223 39 l 1,6,7
 322 128 322 128 375.5 248 c 128,-1,8
 429 368 429 368 429 530 c 1,9,-1
 467 530 l 1,10,11
 467 359 467 359 409.5 232 c 128,-1,12
 352 105 352 105 235 0 c 1,13,-1
 198 0 l 1,14,-1
 -1 530 l 1,0,-1
EndSplineSet
EndChar

StartChar: xi
Encoding: 958 958 394
Width: 454
GlyphClass: 2
Flags: W
AnchorPoint: "Anchor-2" 227 760 basechar 0
AnchorPoint: "Anchor-0" 227 -197 basechar 0
LayerCount: 2
Fore
SplineSet
58 209 m 0,0,1
 58 289 58 289 103.5 335.5 c 128,-1,2
 149 382 149 382 217 399 c 1,3,-1
 217 402 l 1,4,5
 158 414 158 414 124 449 c 128,-1,6
 90 484 90 484 90 547 c 0,7,8
 90 600 90 600 112.5 636 c 128,-1,9
 135 672 135 672 172 694.5 c 128,-1,10
 209 717 209 717 253 728 c 1,11,12
 230 726 230 726 204.5 725.5 c 128,-1,13
 179 725 179 725 137 725 c 2,14,-1
 90 725 l 1,15,-1
 90 760 l 1,16,-1
 412 760 l 1,17,-1
 412 726 l 1,18,-1
 380 726 l 2,19,20
 335 726 335 726 291 716.5 c 128,-1,21
 247 707 247 707 210 686 c 128,-1,22
 173 665 173 665 151 630.5 c 128,-1,23
 129 596 129 596 129 547 c 0,24,25
 129 480 129 480 176 449.5 c 128,-1,26
 223 419 223 419 318 419 c 2,27,-1
 388 419 l 1,28,-1
 388 385 l 1,29,-1
 318 385 l 2,30,31
 255 385 255 385 205 365.5 c 128,-1,32
 155 346 155 346 126.5 307.5 c 128,-1,33
 98 269 98 269 98 211 c 0,34,35
 98 155 98 155 119.5 123.5 c 128,-1,36
 141 92 141 92 180.5 75 c 128,-1,37
 220 58 220 58 275 47 c 0,38,39
 354 30 354 30 389 6.5 c 128,-1,40
 424 -17 424 -17 424 -69 c 0,41,42
 424 -100 424 -100 410 -131.5 c 128,-1,43
 396 -163 396 -163 373 -197 c 1,44,-1
 332 -197 l 1,45,46
 387 -119 387 -119 387 -74 c 0,47,48
 387 -50 387 -50 376.5 -34.5 c 128,-1,49
 366 -19 366 -19 337 -7.5 c 128,-1,50
 308 4 308 4 253 15 c 0,51,52
 159 33 159 33 108.5 76 c 128,-1,53
 58 119 58 119 58 209 c 0,0,1
EndSplineSet
EndChar

StartChar: pi
Encoding: 960 960 396
Width: 599
GlyphClass: 2
Flags: W
AnchorPoint: "Anchor-2" 300 530 basechar 0
AnchorPoint: "Anchor-0" 300 0 basechar 0
LayerCount: 2
Fore
SplineSet
523 25 m 0,0,1
 538 25 538 25 547.5 27 c 128,-1,2
 557 29 557 29 564 31 c 1,3,-1
 564 -3 l 1,4,5
 556 -5 556 -5 544 -7.5 c 128,-1,6
 532 -10 532 -10 516 -10 c 0,7,8
 425 -10 425 -10 425 97 c 2,9,-1
 425 496 l 1,10,-1
 158 496 l 1,11,-1
 158 0 l 1,12,-1
 119 0 l 1,13,-1
 119 496 l 1,14,-1
 12 496 l 1,15,-1
 12 522 l 1,16,-1
 95 530 l 1,17,-1
 572 530 l 1,18,-1
 572 496 l 1,19,-1
 463 496 l 1,20,-1
 463 105 l 2,21,22
 463 25 463 25 523 25 c 0,0,1
EndSplineSet
EndChar

StartChar: rho
Encoding: 961 961 397
Width: 578
GlyphClass: 2
Flags: W
AnchorPoint: "Anchor-2" 289 530 basechar 0
AnchorPoint: "Anchor-0" 289 -240 basechar 0
LayerCount: 2
Fore
SplineSet
520 266 m 0,0,1
 520 134 520 134 462 62 c 128,-1,2
 404 -10 404 -10 295 -10 c 0,3,4
 240 -10 240 -10 198 5.5 c 128,-1,5
 156 21 156 21 127 44 c 1,6,-1
 124 44 l 1,7,8
 126 14 126 14 126.5 -12 c 128,-1,9
 127 -38 127 -38 127 -70 c 2,10,-1
 127 -240 l 1,11,-1
 88 -240 l 1,12,-1
 88 282 l 2,13,14
 88 409 88 409 143 474.5 c 128,-1,15
 198 540 198 540 305 540 c 0,16,17
 411 540 411 540 465.5 470.5 c 128,-1,18
 520 401 520 401 520 266 c 0,0,1
304 504 m 256,19,20
 212 504 212 504 169.5 445.5 c 128,-1,21
 127 387 127 387 127 276 c 2,22,-1
 127 83 l 1,23,24
 158 56 158 56 201.5 40.5 c 128,-1,25
 245 25 245 25 296 25 c 0,26,27
 384 25 384 25 432 86 c 128,-1,28
 480 147 480 147 480 266 c 0,29,30
 480 383 480 383 438 443.5 c 128,-1,31
 396 504 396 504 304 504 c 256,19,20
EndSplineSet
EndChar

StartChar: sigma1
Encoding: 962 962 398
Width: 473
GlyphClass: 2
Flags: W
AnchorPoint: "Anchor-2" 236 530 basechar 0
AnchorPoint: "Anchor-0" 236 -197 basechar 0
LayerCount: 2
Fore
SplineSet
307 540 m 0,0,1
 344 540 344 540 376 534 c 128,-1,2
 408 528 408 528 435 517 c 1,3,-1
 426 482 l 1,4,5
 398 492 398 492 367.5 498 c 128,-1,6
 337 504 337 504 305 504 c 0,7,8
 202 504 202 504 150 442 c 128,-1,9
 98 380 98 380 98 265 c 0,10,11
 98 173 98 173 138 120.5 c 128,-1,12
 178 68 178 68 281 47 c 0,13,14
 353 32 353 32 389.5 9.5 c 128,-1,15
 426 -13 426 -13 426 -68 c 0,16,17
 426 -105 426 -105 409.5 -137 c 128,-1,18
 393 -169 393 -169 372 -197 c 1,19,-1
 332 -197 l 1,20,21
 358 -161 358 -161 373 -130.5 c 128,-1,22
 388 -100 388 -100 388 -72 c 0,23,24
 388 -33 388 -33 359 -16 c 128,-1,25
 330 1 330 1 258 15 c 0,26,27
 154 34 154 34 106 96.5 c 128,-1,28
 58 159 58 159 58 265 c 0,29,30
 58 397 58 397 123 468.5 c 128,-1,31
 188 540 188 540 307 540 c 0,0,1
EndSplineSet
EndChar

StartChar: sigma
Encoding: 963 963 399
Width: 579
GlyphClass: 2
Flags: W
AnchorPoint: "Anchor-2" 290 530 basechar 0
AnchorPoint: "Anchor-0" 290 0 basechar 0
LayerCount: 2
Fore
SplineSet
517 251 m 0,0,1
 517 132 517 132 456.5 61 c 128,-1,2
 396 -10 396 -10 283 -10 c 0,3,4
 210 -10 210 -10 159.5 22.5 c 128,-1,5
 109 55 109 55 83.5 113.5 c 128,-1,6
 58 172 58 172 58 250 c 0,7,8
 58 384 58 384 128.5 457 c 128,-1,9
 199 530 199 530 344 530 c 2,10,-1
 555 530 l 1,11,-1
 555 495 l 1,12,-1
 430 495 l 1,13,14
 471 442 471 442 494 384.5 c 128,-1,15
 517 327 517 327 517 251 c 0,0,1
98 250 m 0,16,17
 98 184 98 184 118.5 133.5 c 128,-1,18
 139 83 139 83 180.5 54 c 128,-1,19
 222 25 222 25 285 25 c 0,20,21
 380 25 380 25 429 85.5 c 128,-1,22
 478 146 478 146 478 250 c 0,23,24
 478 326 478 326 454 384 c 128,-1,25
 430 442 430 442 387 495 c 1,26,-1
 344 495 l 2,27,28
 216 495 216 495 157 431.5 c 128,-1,29
 98 368 98 368 98 250 c 0,16,17
EndSplineSet
EndChar

StartChar: tau
Encoding: 964 964 400
Width: 437
GlyphClass: 2
Flags: W
AnchorPoint: "Anchor-2" 218 530 basechar 0
AnchorPoint: "Anchor-0" 218 0 basechar 0
LayerCount: 2
Fore
SplineSet
403 530 m 1,0,-1
 403 495 l 1,1,-1
 194 495 l 1,2,-1
 194 156 l 2,3,4
 194 90 194 90 217.5 57 c 128,-1,5
 241 24 241 24 301 24 c 0,6,7
 320 24 320 24 341 27.5 c 128,-1,8
 362 31 362 31 379 36 c 1,9,-1
 379 3 l 1,10,11
 365 -2 365 -2 342.5 -5.5 c 128,-1,12
 320 -9 320 -9 296 -9 c 0,13,14
 222 -9 222 -9 189 31.5 c 128,-1,15
 156 72 156 72 156 150 c 2,16,-1
 156 495 l 1,17,-1
 10 495 l 1,18,-1
 10 521 l 1,19,-1
 83 530 l 1,20,-1
 403 530 l 1,0,-1
EndSplineSet
EndChar

StartChar: upsilon
Encoding: 965 965 401
Width: 590
GlyphClass: 2
Flags: W
AnchorPoint: "Anchor-2" 295 530 basechar 0
AnchorPoint: "Anchor-0" 295 0 basechar 0
LayerCount: 2
Fore
SplineSet
290 -10 m 0,0,1
 186 -10 186 -10 133.5 52 c 128,-1,2
 81 114 81 114 81 233 c 2,3,-1
 81 530 l 1,4,-1
 120 530 l 1,5,-1
 120 237 l 2,6,7
 120 128 120 128 164 76.5 c 128,-1,8
 208 25 208 25 293 25 c 0,9,10
 387 25 387 25 435.5 91.5 c 128,-1,11
 484 158 484 158 484 293 c 0,12,13
 484 354 484 354 477 413 c 128,-1,14
 470 472 470 472 453 530 c 1,15,-1
 494 530 l 1,16,17
 523 418 523 418 523 292 c 0,18,19
 523 -10 523 -10 290 -10 c 0,0,1
EndSplineSet
EndChar

StartChar: phi
Encoding: 966 966 402
Width: 665
GlyphClass: 2
Flags: W
AnchorPoint: "Anchor-2" 333 530 basechar 0
AnchorPoint: "Anchor-0" 333 -240 basechar 0
LayerCount: 2
Fore
SplineSet
159 536 m 1,0,-1
 190 516 l 1,1,2
 147 465 147 465 122.5 407.5 c 128,-1,3
 98 350 98 350 98 270 c 0,4,5
 98 155 98 155 150 92 c 128,-1,6
 202 29 202 29 309 24 c 1,7,-1
 309 367 l 2,8,9
 309 450 309 450 341.5 495 c 128,-1,10
 374 540 374 540 441 540 c 0,11,12
 521 540 521 540 564 471 c 128,-1,13
 607 402 607 402 607 285 c 0,14,15
 607 200 607 200 576 134.5 c 128,-1,16
 545 69 545 69 487 31 c 128,-1,17
 429 -7 429 -7 348 -11 c 1,18,-1
 348 -240 l 1,19,-1
 309 -240 l 1,20,-1
 309 -11 l 1,21,22
 182 -5 182 -5 120 69.5 c 128,-1,23
 58 144 58 144 58 269 c 0,24,25
 58 354 58 354 85.5 418 c 128,-1,26
 113 482 113 482 159 536 c 1,0,-1
441 505 m 0,27,28
 390 505 390 505 368.5 468.5 c 128,-1,29
 347 432 347 432 347 368 c 2,30,-1
 347 24 l 1,31,32
 416 26 416 26 465 59 c 128,-1,33
 514 92 514 92 540.5 150 c 128,-1,34
 567 208 567 208 567 284 c 0,35,36
 567 386 567 386 534 445.5 c 128,-1,37
 501 505 501 505 441 505 c 0,27,28
EndSplineSet
EndChar

StartChar: chi
Encoding: 967 967 403
Width: 504
GlyphClass: 2
Flags: W
AnchorPoint: "Anchor-3" 484 530 basechar 0
AnchorPoint: "Anchor-2" 252 530 basechar 0
AnchorPoint: "Anchor-0" 252 -240 basechar 0
LayerCount: 2
Fore
SplineSet
61 537 m 0,0,1
 93 537 93 537 111.5 517.5 c 128,-1,2
 130 498 130 498 144 462 c 2,3,-1
 249 196 l 1,4,-1
 421 530 l 1,5,-1
 462 530 l 1,6,-1
 270 158 l 1,7,-1
 376 -113 l 2,8,9
 397 -167 397 -167 413.5 -186 c 128,-1,10
 430 -205 430 -205 459 -205 c 0,11,12
 470 -205 470 -205 478 -203.5 c 128,-1,13
 486 -202 486 -202 494 -201 c 1,14,-1
 494 -234 l 1,15,16
 486 -236 486 -236 476.5 -238 c 128,-1,17
 467 -240 467 -240 454 -240 c 0,18,19
 410 -240 410 -240 387 -214.5 c 128,-1,20
 364 -189 364 -189 343 -135 c 2,21,-1
 243 123 l 1,22,-1
 56 -240 l 1,23,-1
 14 -240 l 1,24,-1
 223 162 l 1,25,-1
 110 444 l 2,26,27
 97 476 97 476 84 489.5 c 128,-1,28
 71 503 71 503 52 503 c 0,29,30
 42 503 42 503 33 501 c 128,-1,31
 24 499 24 499 16 496 c 1,32,-1
 16 529 l 1,33,34
 24 532 24 532 35 534.5 c 128,-1,35
 46 537 46 537 61 537 c 0,0,1
EndSplineSet
EndChar

StartChar: psi
Encoding: 968 968 404
Width: 710
GlyphClass: 2
Flags: W
AnchorPoint: "Anchor-2" 356 759 basechar 0
AnchorPoint: "Anchor-0" 356 -240 basechar 0
LayerCount: 2
Fore
SplineSet
374 759 m 1,0,-1
 374 29 l 1,1,2
 493 34 493 34 549 104 c 128,-1,3
 605 174 605 174 605 298 c 0,4,5
 605 364 605 364 596.5 418 c 128,-1,6
 588 472 588 472 572 530 c 1,7,-1
 612 530 l 1,8,9
 627 475 627 475 635.5 420.5 c 128,-1,10
 644 366 644 366 644 299 c 0,11,12
 644 162 644 162 579 81.5 c 128,-1,13
 514 1 514 1 374 -6 c 1,14,-1
 374 -240 l 1,15,-1
 336 -240 l 1,16,-1
 336 -6 l 1,17,18
 206 -2 206 -2 143.5 69 c 128,-1,19
 81 140 81 140 81 268 c 2,20,-1
 81 530 l 1,21,-1
 119 530 l 1,22,-1
 119 269 l 2,23,24
 119 156 119 156 172.5 95 c 128,-1,25
 226 34 226 34 336 29 c 1,26,-1
 336 759 l 1,27,-1
 374 759 l 1,0,-1
EndSplineSet
EndChar

StartChar: omega
Encoding: 969 969 405
Width: 721
GlyphClass: 2
Flags: W
AnchorPoint: "Anchor-2" 360 530 basechar 0
AnchorPoint: "Anchor-0" 361 0 basechar 0
LayerCount: 2
Fore
SplineSet
600 530 m 1,0,1
 629 465 629 465 646 398.5 c 128,-1,2
 663 332 663 332 663 253 c 0,3,4
 663 182 663 182 646.5 122.5 c 128,-1,5
 630 63 630 63 592.5 26.5 c 128,-1,6
 555 -10 555 -10 491 -10 c 0,7,8
 437 -10 437 -10 405.5 17 c 128,-1,9
 374 44 374 44 361 90 c 1,10,-1
 359 90 l 1,11,12
 347 44 347 44 313 17 c 128,-1,13
 279 -10 279 -10 228 -10 c 0,14,15
 148 -10 148 -10 103 56.5 c 128,-1,16
 58 123 58 123 58 253 c 0,17,18
 58 333 58 333 74 398 c 128,-1,19
 90 463 90 463 121 530 c 1,20,-1
 160 530 l 1,21,22
 129 461 129 461 113 395.5 c 128,-1,23
 97 330 97 330 97 253 c 0,24,25
 97 138 97 138 131.5 81.5 c 128,-1,26
 166 25 166 25 231 25 c 0,27,28
 286 25 286 25 314 64 c 128,-1,29
 342 103 342 103 342 175 c 2,30,-1
 342 339 l 1,31,-1
 380 339 l 1,32,-1
 380 175 l 2,33,34
 380 25 380 25 489 25 c 0,35,36
 557 25 557 25 590.5 84.5 c 128,-1,37
 624 144 624 144 624 253 c 0,38,39
 624 330 624 330 607.5 396 c 128,-1,40
 591 462 591 462 560 530 c 1,41,-1
 600 530 l 1,0,1
EndSplineSet
EndChar

StartChar: afii10051
Encoding: 1026 1026 412
Width: 684
GlyphClass: 2
Flags: W
AnchorPoint: "Anchor-2" 342 714 basechar 0
AnchorPoint: "Anchor-0" 342 0 basechar 0
LayerCount: 2
Fore
SplineSet
436 -10 m 0,0,1
 413 -10 413 -10 396.5 -8 c 128,-1,2
 380 -6 380 -6 370 -2 c 1,3,-1
 370 35 l 1,4,5
 397 26 397 26 436 26 c 0,6,7
 494 26 494 26 527 65 c 128,-1,8
 560 104 560 104 560 172 c 2,9,-1
 560 248 l 2,10,11
 560 323 560 323 526 357 c 128,-1,12
 492 391 492 391 412 391 c 2,13,-1
 206 391 l 1,14,-1
 206 0 l 1,15,-1
 167 0 l 1,16,-1
 167 678 l 1,17,-1
 4 678 l 1,18,-1
 4 714 l 1,19,-1
 468 714 l 1,20,-1
 468 678 l 1,21,-1
 206 678 l 1,22,-1
 206 427 l 1,23,-1
 421 427 l 2,24,25
 599 427 599 427 599 251 c 2,26,-1
 599 173 l 2,27,28
 599 90 599 90 555.5 40 c 128,-1,29
 512 -10 512 -10 436 -10 c 0,0,1
EndSplineSet
EndChar

StartChar: afii10053
Encoding: 1028 1028 414
Width: 615
GlyphClass: 2
Flags: W
AnchorPoint: "Anchor-2" 308 714 basechar 0
AnchorPoint: "Anchor-0" 308 0 basechar 0
LayerCount: 2
Fore
SplineSet
405 688 m 0,0,1
 314 688 314 688 248 649.5 c 128,-1,2
 182 611 182 611 145.5 543 c 128,-1,3
 109 475 109 475 104 386 c 1,4,-1
 494 386 l 1,5,-1
 494 350 l 1,6,-1
 103 350 l 1,7,8
 104 251 104 251 136.5 178.5 c 128,-1,9
 169 106 169 106 232.5 66 c 128,-1,10
 296 26 296 26 390 26 c 0,11,12
 446 26 446 26 491 34 c 128,-1,13
 536 42 536 42 573 55 c 1,14,-1
 573 21 l 1,15,16
 538 8 538 8 492 -1 c 128,-1,17
 446 -10 446 -10 388 -10 c 0,18,19
 280 -10 280 -10 208 36.5 c 128,-1,20
 136 83 136 83 99.5 166 c 128,-1,21
 63 249 63 249 63 360 c 0,22,23
 63 465 63 465 103.5 547.5 c 128,-1,24
 144 630 144 630 221 677 c 128,-1,25
 298 724 298 724 406 724 c 0,26,27
 458 724 458 724 503 714.5 c 128,-1,28
 548 705 548 705 589 686 c 1,29,-1
 574 650 l 1,30,31
 533 672 533 672 490.5 680 c 128,-1,32
 448 688 448 688 405 688 c 0,0,1
EndSplineSet
EndChar

StartChar: afii10058
Encoding: 1033 1033 419
Width: 930
GlyphClass: 2
Flags: W
AnchorPoint: "Anchor-2" 465 714 basechar 0
AnchorPoint: "Anchor-0" 465 0 basechar 0
LayerCount: 2
Fore
SplineSet
51 -11 m 0,0,1
 17 -11 17 -11 -3 -1 c 1,2,-1
 -3 35 l 1,3,4
 8 30 8 30 20 27 c 128,-1,5
 32 24 32 24 49 24 c 0,6,7
 84 24 84 24 106 51 c 128,-1,8
 128 78 128 78 141.5 126 c 128,-1,9
 155 174 155 174 166 236 c 0,10,11
 182 320 182 320 194 405.5 c 128,-1,12
 206 491 206 491 215.5 570.5 c 128,-1,13
 225 650 225 650 232 714 c 1,14,-1
 512 714 l 1,15,-1
 512 397 l 1,16,-1
 636 397 l 2,17,18
 754 397 754 397 816 353 c 128,-1,19
 878 309 878 309 878 204 c 0,20,21
 878 104 878 104 819 52 c 128,-1,22
 760 0 760 0 648 0 c 2,23,-1
 473 0 l 1,24,-1
 473 678 l 1,25,-1
 266 678 l 1,26,27
 259 612 259 612 249.5 534.5 c 128,-1,28
 240 457 240 457 229 377.5 c 128,-1,29
 218 298 218 298 204 227 c 0,30,31
 191 158 191 158 174 104 c 128,-1,32
 157 50 157 50 128 19.5 c 128,-1,33
 99 -11 99 -11 51 -11 c 0,0,1
512 36 m 1,34,-1
 640 36 l 2,35,36
 740 36 740 36 789 76 c 128,-1,37
 838 116 838 116 838 204 c 0,38,39
 838 266 838 266 813 300 c 128,-1,40
 788 334 788 334 741.5 347.5 c 128,-1,41
 695 361 695 361 630 361 c 2,42,-1
 512 361 l 1,43,-1
 512 36 l 1,34,-1
EndSplineSet
EndChar

StartChar: afii10059
Encoding: 1034 1034 420
Width: 957
GlyphClass: 2
Flags: W
AnchorPoint: "Anchor-2" 479 714 basechar 0
AnchorPoint: "Anchor-0" 479 0 basechar 0
LayerCount: 2
Fore
SplineSet
102 0 m 1,0,-1
 102 714 l 1,1,-1
 141 714 l 1,2,-1
 141 397 l 1,3,-1
 501 397 l 1,4,-1
 501 714 l 1,5,-1
 540 714 l 1,6,-1
 540 397 l 1,7,-1
 664 397 l 2,8,9
 781 397 781 397 843.5 353 c 128,-1,10
 906 309 906 309 906 204 c 0,11,12
 906 104 906 104 847 52 c 128,-1,13
 788 0 788 0 676 0 c 2,14,-1
 501 0 l 1,15,-1
 501 361 l 1,16,-1
 141 361 l 1,17,-1
 141 0 l 1,18,-1
 102 0 l 1,0,-1
540 36 m 1,19,-1
 668 36 l 2,20,21
 768 36 768 36 816.5 76 c 128,-1,22
 865 116 865 116 865 204 c 0,23,24
 865 266 865 266 840.5 300 c 128,-1,25
 816 334 816 334 769.5 347.5 c 128,-1,26
 723 361 723 361 658 361 c 2,27,-1
 540 361 l 1,28,-1
 540 36 l 1,19,-1
EndSplineSet
EndChar

StartChar: afii10060
Encoding: 1035 1035 421
Width: 686
GlyphClass: 2
Flags: W
AnchorPoint: "Anchor-2" 343 714 basechar 0
AnchorPoint: "Anchor-0" 343 0 basechar 0
LayerCount: 2
Fore
SplineSet
477 714 m 1,0,-1
 477 678 l 1,1,-1
 206 678 l 1,2,-1
 206 427 l 1,3,-1
 434 427 l 2,4,5
 520 427 520 427 560 386.5 c 128,-1,6
 600 346 600 346 600 254 c 2,7,-1
 600 0 l 1,8,-1
 561 0 l 1,9,-1
 561 250 l 2,10,11
 561 325 561 325 530.5 358 c 128,-1,12
 500 391 500 391 426 391 c 2,13,-1
 206 391 l 1,14,-1
 206 0 l 1,15,-1
 167 0 l 1,16,-1
 167 678 l 1,17,-1
 4 678 l 1,18,-1
 4 714 l 1,19,-1
 477 714 l 1,0,-1
EndSplineSet
EndChar

StartChar: afii10145
Encoding: 1039 1039 424
Width: 709
GlyphClass: 2
Flags: W
AnchorPoint: "Anchor-2" 355 714 basechar 0
AnchorPoint: "Anchor-0" 355 -178 basechar 0
LayerCount: 2
Fore
SplineSet
607 0 m 1,0,-1
 375 0 l 1,1,-1
 375 -178 l 1,2,-1
 335 -178 l 1,3,-1
 335 0 l 1,4,-1
 102 0 l 1,5,-1
 102 714 l 1,6,-1
 141 714 l 1,7,-1
 141 36 l 1,8,-1
 568 36 l 1,9,-1
 568 714 l 1,10,-1
 607 714 l 1,11,-1
 607 0 l 1,0,-1
EndSplineSet
EndChar

StartChar: afii10018
Encoding: 1041 1041 426
Width: 590
GlyphClass: 2
Flags: W
AnchorPoint: "Anchor-2" 295 714 basechar 0
AnchorPoint: "Anchor-0" 295 0 basechar 0
LayerCount: 2
Fore
SplineSet
102 0 m 1,0,-1
 102 714 l 1,1,-1
 494 714 l 1,2,-1
 494 678 l 1,3,-1
 141 678 l 1,4,-1
 141 397 l 1,5,-1
 282 397 l 2,6,7
 400 397 400 397 461.5 353 c 128,-1,8
 523 309 523 309 523 204 c 0,9,10
 523 103 523 103 464.5 51.5 c 128,-1,11
 406 0 406 0 293 0 c 2,12,-1
 102 0 l 1,0,-1
141 36 m 1,13,-1
 286 36 l 2,14,15
 386 36 386 36 434 76 c 128,-1,16
 482 116 482 116 482 204 c 0,17,18
 482 266 482 266 458 300 c 128,-1,19
 434 334 434 334 388 347.5 c 128,-1,20
 342 361 342 361 276 361 c 2,21,-1
 141 361 l 1,22,-1
 141 36 l 1,13,-1
EndSplineSet
EndChar

StartChar: afii10021
Encoding: 1044 1044 429
Width: 642
GlyphClass: 2
Flags: W
AnchorPoint: "Anchor-2" 321 714 basechar 0
AnchorPoint: "Anchor-0" 321 -178 basechar 0
LayerCount: 2
Fore
SplineSet
543 714 m 1,0,-1
 543 36 l 1,1,-1
 611 36 l 1,2,-1
 611 -178 l 1,3,-1
 573 -178 l 1,4,-1
 573 0 l 1,5,-1
 46 0 l 1,6,-1
 46 -178 l 1,7,-1
 8 -178 l 1,8,-1
 8 36 l 1,9,-1
 58 36 l 1,10,11
 96 101 96 101 128 184.5 c 128,-1,12
 160 268 160 268 185 359.5 c 128,-1,13
 210 451 210 451 225 542 c 128,-1,14
 240 633 240 633 243 714 c 1,15,-1
 543 714 l 1,0,-1
504 678 m 1,16,-1
 279 678 l 1,17,18
 275 602 275 602 260 516 c 128,-1,19
 245 430 245 430 221 343.5 c 128,-1,20
 197 257 197 257 166.5 178 c 128,-1,21
 136 99 136 99 101 36 c 1,22,-1
 504 36 l 1,23,-1
 504 678 l 1,16,-1
EndSplineSet
EndChar

StartChar: afii10024
Encoding: 1046 1046 431
Width: 760
GlyphClass: 2
Flags: W
AnchorPoint: "Anchor-2" 380 714 basechar 0
AnchorPoint: "Anchor-0" 380 0 basechar 0
LayerCount: 2
Fore
SplineSet
316 365 m 1,0,-1
 22 714 l 1,1,-1
 70 714 l 1,2,-1
 360 368 l 1,3,-1
 360 714 l 1,4,-1
 398 714 l 1,5,-1
 398 368 l 1,6,-1
 690 714 l 1,7,-1
 737 714 l 1,8,-1
 442 366 l 1,9,-1
 751 0 l 1,10,-1
 703 0 l 1,11,-1
 398 362 l 1,12,-1
 398 0 l 1,13,-1
 360 0 l 1,14,-1
 360 362 l 1,15,-1
 56 0 l 1,16,-1
 8 0 l 1,17,-1
 316 365 l 1,0,-1
EndSplineSet
EndChar

StartChar: afii10025
Encoding: 1047 1047 432
Width: 551
GlyphClass: 2
Flags: W
AnchorPoint: "Anchor-2" 274 714 basechar 0
AnchorPoint: "Anchor-0" 276 0 basechar 0
LayerCount: 2
Fore
SplineSet
482 545 m 0,0,1
 482 469 482 469 443 428.5 c 128,-1,2
 404 388 404 388 344 374 c 1,3,-1
 344 371 l 1,4,5
 417 356 417 356 456 314 c 128,-1,6
 495 272 495 272 495 196 c 0,7,8
 495 102 495 102 430.5 46 c 128,-1,9
 366 -10 366 -10 245 -10 c 0,10,11
 185 -10 185 -10 132 1.5 c 128,-1,12
 79 13 79 13 40 33 c 1,13,-1
 40 74 l 1,14,15
 80 52 80 52 135.5 38.5 c 128,-1,16
 191 25 191 25 245 25 c 0,17,18
 346 25 346 25 400 70 c 128,-1,19
 454 115 454 115 454 196 c 0,20,21
 454 278 454 278 398.5 316 c 128,-1,22
 343 354 343 354 232 354 c 2,23,-1
 125 354 l 1,24,-1
 125 389 l 1,25,-1
 238 389 l 2,26,27
 341 389 341 389 391 429 c 128,-1,28
 441 469 441 469 441 543 c 0,29,30
 441 611 441 611 394.5 650 c 128,-1,31
 348 689 348 689 270 689 c 0,32,33
 204 689 204 689 158.5 669.5 c 128,-1,34
 113 650 113 650 70 621 c 1,35,-1
 49 649 l 1,36,37
 92 681 92 681 145 702.5 c 128,-1,38
 198 724 198 724 270 724 c 0,39,40
 369 724 369 724 425.5 674.5 c 128,-1,41
 482 625 482 625 482 545 c 0,0,1
EndSplineSet
EndChar

StartChar: afii10026
Encoding: 1048 1048 433
Width: 708
GlyphClass: 2
Flags: W
AnchorPoint: "Anchor-2" 357 714 basechar 0
AnchorPoint: "Anchor-0" 355 0 basechar 0
LayerCount: 2
Fore
SplineSet
102 714 m 1,0,-1
 140 714 l 1,1,-1
 140 173 l 2,2,3
 140 143 140 143 139.5 117.5 c 128,-1,4
 139 92 139 92 138 66 c 1,5,-1
 140 66 l 1,6,-1
 568 714 l 1,7,-1
 606 714 l 1,8,-1
 606 0 l 1,9,-1
 568 0 l 1,10,-1
 568 531 l 2,11,12
 568 567 568 567 568.5 595.5 c 128,-1,13
 569 624 569 624 570 649 c 1,14,-1
 568 649 l 1,15,-1
 141 0 l 1,16,-1
 102 0 l 1,17,-1
 102 714 l 1,0,-1
EndSplineSet
EndChar

StartChar: afii10028
Encoding: 1050 1050 435
Width: 559
GlyphClass: 2
Flags: W
AnchorPoint: "Anchor-2" 285 714 basechar 0
AnchorPoint: "Anchor-0" 280 0 basechar 0
LayerCount: 2
Fore
SplineSet
554 0 m 1,0,-1
 502 0 l 1,1,-1
 141 364 l 1,2,-1
 141 0 l 1,3,-1
 102 0 l 1,4,-1
 102 714 l 1,5,-1
 141 714 l 1,6,-1
 141 368 l 1,7,-1
 492 714 l 1,8,-1
 544 714 l 1,9,-1
 190 367 l 1,10,-1
 554 0 l 1,0,-1
EndSplineSet
EndChar

StartChar: afii10029
Encoding: 1051 1051 436
Width: 674
GlyphClass: 2
Flags: W
AnchorPoint: "Anchor-2" 337 714 basechar 0
AnchorPoint: "Anchor-0" 337 0 basechar 0
LayerCount: 2
Fore
SplineSet
572 0 m 1,0,-1
 533 0 l 1,1,-1
 533 678 l 1,2,-1
 266 678 l 1,3,4
 259 612 259 612 249.5 534.5 c 128,-1,5
 240 457 240 457 229 377.5 c 128,-1,6
 218 298 218 298 204 227 c 0,7,8
 191 158 191 158 174 104 c 128,-1,9
 157 50 157 50 128 19.5 c 128,-1,10
 99 -11 99 -11 51 -11 c 0,11,12
 17 -11 17 -11 -3 -1 c 1,13,-1
 -3 35 l 1,14,15
 8 30 8 30 20 27 c 128,-1,16
 32 24 32 24 49 24 c 0,17,18
 84 24 84 24 106 51 c 128,-1,19
 128 78 128 78 141.5 126 c 128,-1,20
 155 174 155 174 166 236 c 0,21,22
 181 319 181 319 193.5 405 c 128,-1,23
 206 491 206 491 215.5 570.5 c 128,-1,24
 225 650 225 650 232 714 c 1,25,-1
 572 714 l 1,26,-1
 572 0 l 1,0,-1
EndSplineSet
EndChar

StartChar: afii10037
Encoding: 1059 1059 444
Width: 578
GlyphClass: 2
Flags: W
AnchorPoint: "Anchor-2" 292 714 basechar 0
AnchorPoint: "Anchor-0" 289 0 basechar 0
LayerCount: 2
Fore
SplineSet
576 714 m 1,0,-1
 319 152 l 2,1,2
 297 105 297 105 272 68.5 c 128,-1,3
 247 32 247 32 211.5 11 c 128,-1,4
 176 -10 176 -10 124 -10 c 0,5,6
 95 -10 95 -10 74.5 -5.5 c 128,-1,7
 54 -1 54 -1 40 5 c 1,8,-1
 40 45 l 1,9,10
 74 27 74 27 122 27 c 0,11,12
 166 27 166 27 195 45.5 c 128,-1,13
 224 64 224 64 245.5 98 c 128,-1,14
 267 132 267 132 288 180 c 1,15,-1
 8 714 l 1,16,-1
 51 714 l 1,17,-1
 278 279 l 2,18,19
 287 260 287 260 293.5 246 c 128,-1,20
 300 232 300 232 308 214 c 1,21,-1
 309 214 l 1,22,23
 315 230 315 230 322 246 c 128,-1,24
 329 262 329 262 335 276 c 2,25,-1
 534 714 l 1,26,-1
 576 714 l 1,0,-1
EndSplineSet
EndChar

StartChar: afii10040
Encoding: 1062 1062 447
Width: 713
GlyphClass: 2
Flags: W
AnchorPoint: "Anchor-2" 357 714 basechar 0
AnchorPoint: "Anchor-0" 357 -178 basechar 0
LayerCount: 2
Fore
SplineSet
680 36 m 1,0,-1
 680 -178 l 1,1,-1
 643 -178 l 1,2,-1
 643 0 l 1,3,-1
 102 0 l 1,4,-1
 102 714 l 1,5,-1
 141 714 l 1,6,-1
 141 36 l 1,7,-1
 569 36 l 1,8,-1
 569 714 l 1,9,-1
 608 714 l 1,10,-1
 608 36 l 1,11,-1
 680 36 l 1,0,-1
EndSplineSet
EndChar

StartChar: afii10041
Encoding: 1063 1063 448
Width: 662
GlyphClass: 2
Flags: W
AnchorPoint: "Anchor-2" 329 714 basechar 0
AnchorPoint: "Anchor-0" 331 0 basechar 0
LayerCount: 2
Fore
SplineSet
560 0 m 1,0,-1
 521 0 l 1,1,-1
 521 315 l 1,2,3
 470 292 470 292 417 277.5 c 128,-1,4
 364 263 364 263 295 263 c 0,5,6
 192 263 192 263 141.5 308.5 c 128,-1,7
 91 354 91 354 91 440 c 2,8,-1
 91 714 l 1,9,-1
 130 714 l 1,10,-1
 130 447 l 2,11,12
 130 376 130 376 168.5 337.5 c 128,-1,13
 207 299 207 299 297 299 c 0,14,15
 363 299 363 299 415.5 312.5 c 128,-1,16
 468 326 468 326 521 349 c 1,17,-1
 521 714 l 1,18,-1
 560 714 l 1,19,-1
 560 0 l 1,0,-1
EndSplineSet
EndChar

StartChar: afii10042
Encoding: 1064 1064 449
Width: 997
GlyphClass: 2
Flags: W
AnchorPoint: "Anchor-2" 499 714 basechar 0
AnchorPoint: "Anchor-0" 499 0 basechar 0
LayerCount: 2
Fore
SplineSet
896 0 m 1,0,-1
 102 0 l 1,1,-1
 102 714 l 1,2,-1
 141 714 l 1,3,-1
 141 36 l 1,4,-1
 479 36 l 1,5,-1
 479 714 l 1,6,-1
 518 714 l 1,7,-1
 518 36 l 1,8,-1
 857 36 l 1,9,-1
 857 714 l 1,10,-1
 896 714 l 1,11,-1
 896 0 l 1,0,-1
EndSplineSet
EndChar

StartChar: afii10043
Encoding: 1065 1065 450
Width: 1008
GlyphClass: 2
Flags: W
AnchorPoint: "Anchor-2" 504 714 basechar 0
AnchorPoint: "Anchor-0" 504 0 basechar 0
LayerCount: 2
Fore
SplineSet
973 36 m 1,0,-1
 973 -178 l 1,1,-1
 935 -178 l 1,2,-1
 935 0 l 1,3,-1
 102 0 l 1,4,-1
 102 714 l 1,5,-1
 141 714 l 1,6,-1
 141 36 l 1,7,-1
 478 36 l 1,8,-1
 478 714 l 1,9,-1
 517 714 l 1,10,-1
 517 36 l 1,11,-1
 854 36 l 1,12,-1
 854 714 l 1,13,-1
 893 714 l 1,14,-1
 893 36 l 1,15,-1
 973 36 l 1,0,-1
EndSplineSet
EndChar

StartChar: afii10044
Encoding: 1066 1066 451
Width: 648
GlyphClass: 2
Flags: W
AnchorPoint: "Anchor-2" 324 714 basechar 0
AnchorPoint: "Anchor-0" 324 0 basechar 0
LayerCount: 2
Fore
SplineSet
173 0 m 1,0,-1
 173 678 l 1,1,-1
 4 678 l 1,2,-1
 4 714 l 1,3,-1
 212 714 l 1,4,-1
 212 397 l 1,5,-1
 354 397 l 2,6,7
 470 397 470 397 532 353 c 128,-1,8
 594 309 594 309 594 204 c 0,9,10
 594 104 594 104 535.5 52 c 128,-1,11
 477 0 477 0 366 0 c 2,12,-1
 173 0 l 1,0,-1
212 36 m 1,13,-1
 358 36 l 2,14,15
 457 36 457 36 505.5 76 c 128,-1,16
 554 116 554 116 554 204 c 0,17,18
 554 266 554 266 529.5 300 c 128,-1,19
 505 334 505 334 458.5 347.5 c 128,-1,20
 412 361 412 361 348 361 c 2,21,-1
 212 361 l 1,22,-1
 212 36 l 1,13,-1
EndSplineSet
EndChar

StartChar: afii10045
Encoding: 1067 1067 452
Width: 786
GlyphClass: 2
Flags: W
AnchorPoint: "Anchor-2" 394 714 basechar 0
AnchorPoint: "Anchor-0" 393 0 basechar 0
LayerCount: 2
Fore
SplineSet
102 0 m 1,0,-1
 102 714 l 1,1,-1
 141 714 l 1,2,-1
 141 397 l 1,3,-1
 283 397 l 2,4,5
 398 397 398 397 460 353 c 128,-1,6
 522 309 522 309 522 204 c 0,7,8
 522 104 522 104 464 52 c 128,-1,9
 406 0 406 0 294 0 c 2,10,-1
 102 0 l 1,0,-1
620 0 m 1,11,-1
 620 714 l 1,12,-1
 659 714 l 1,13,-1
 659 0 l 1,14,-1
 620 0 l 1,11,-1
141 35 m 1,15,-1
 286 35 l 2,16,17
 385 35 385 35 433.5 75.5 c 128,-1,18
 482 116 482 116 482 204 c 0,19,20
 482 266 482 266 457.5 300 c 128,-1,21
 433 334 433 334 387 347.5 c 128,-1,22
 341 361 341 361 277 361 c 2,23,-1
 141 361 l 1,24,-1
 141 35 l 1,15,-1
EndSplineSet
EndChar

StartChar: afii10046
Encoding: 1068 1068 453
Width: 582
GlyphClass: 2
Flags: W
AnchorPoint: "Anchor-2" 292 714 basechar 0
AnchorPoint: "Anchor-0" 292 0 basechar 0
LayerCount: 2
Fore
SplineSet
102 0 m 1,0,-1
 102 714 l 1,1,-1
 141 714 l 1,2,-1
 141 397 l 1,3,-1
 288 397 l 2,4,5
 404 397 404 397 466 353 c 128,-1,6
 528 309 528 309 528 204 c 0,7,8
 528 104 528 104 469 52 c 128,-1,9
 410 0 410 0 299 0 c 2,10,-1
 102 0 l 1,0,-1
141 36 m 1,11,-1
 291 36 l 2,12,13
 390 36 390 36 439 76 c 128,-1,14
 488 116 488 116 488 204 c 0,15,16
 488 266 488 266 463 300 c 128,-1,17
 438 334 438 334 392 347.5 c 128,-1,18
 346 361 346 361 281 361 c 2,19,-1
 141 361 l 1,20,-1
 141 36 l 1,11,-1
EndSplineSet
EndChar

StartChar: afii10047
Encoding: 1069 1069 454
Width: 614
GlyphClass: 2
Flags: W
AnchorPoint: "Anchor-2" 291 714 basechar 0
AnchorPoint: "Anchor-0" 307 0 basechar 0
LayerCount: 2
Fore
SplineSet
229 688 m 0,0,1
 184 688 184 688 138 679 c 128,-1,2
 92 670 92 670 51 651 c 1,3,-1
 36 686 l 1,4,5
 77 704 77 704 127 714 c 128,-1,6
 177 724 177 724 229 724 c 0,7,8
 392 724 392 724 472 629 c 128,-1,9
 552 534 552 534 552 364 c 0,10,11
 552 253 552 253 512.5 168.5 c 128,-1,12
 473 84 473 84 398 37 c 128,-1,13
 323 -10 323 -10 215 -10 c 0,14,15
 155 -10 155 -10 109.5 -2 c 128,-1,16
 64 6 64 6 30 19 c 1,17,-1
 30 56 l 1,18,19
 67 43 67 43 111.5 34.5 c 128,-1,20
 156 26 156 26 212 26 c 0,21,22
 307 26 307 26 373 66.5 c 128,-1,23
 439 107 439 107 474.5 180 c 128,-1,24
 510 253 510 253 511 352 c 1,25,-1
 121 352 l 1,26,-1
 121 388 l 1,27,-1
 511 388 l 1,28,29
 506 528 506 528 436 608 c 128,-1,30
 366 688 366 688 229 688 c 0,0,1
EndSplineSet
EndChar

StartChar: afii10048
Encoding: 1070 1070 455
Width: 1022
GlyphClass: 2
Flags: W
AnchorPoint: "Anchor-2" 511 714 basechar 0
AnchorPoint: "Anchor-0" 511 0 basechar 0
LayerCount: 2
Fore
SplineSet
959 358 m 0,0,1
 959 251 959 251 926.5 168 c 128,-1,2
 894 85 894 85 826 37.5 c 128,-1,3
 758 -10 758 -10 654 -10 c 0,4,5
 552 -10 552 -10 486 37 c 128,-1,6
 420 84 420 84 387 166.5 c 128,-1,7
 354 249 354 249 352 356 c 1,8,-1
 141 356 l 1,9,-1
 141 0 l 1,10,-1
 102 0 l 1,11,-1
 102 714 l 1,12,-1
 141 714 l 1,13,-1
 141 392 l 1,14,-1
 352 392 l 1,15,16
 356 491 356 491 391 566 c 128,-1,17
 426 641 426 641 492.5 683 c 128,-1,18
 559 725 559 725 656 725 c 0,19,20
 757 725 757 725 824.5 678.5 c 128,-1,21
 892 632 892 632 925.5 549.5 c 128,-1,22
 959 467 959 467 959 358 c 0,0,1
393 369 m 0,23,24
 393 268 393 268 420.5 191 c 128,-1,25
 448 114 448 114 506 70 c 128,-1,26
 564 26 564 26 655 26 c 256,27,28
 746 26 746 26 804.5 68.5 c 128,-1,29
 863 111 863 111 890.5 186 c 128,-1,30
 918 261 918 261 918 358 c 0,31,32
 918 454 918 454 890.5 528.5 c 128,-1,33
 863 603 863 603 805.5 646 c 128,-1,34
 748 689 748 689 656 689 c 0,35,36
 566 689 566 689 508 648.5 c 128,-1,37
 450 608 450 608 421.5 536 c 128,-1,38
 393 464 393 464 393 369 c 0,23,24
EndSplineSet
EndChar

StartChar: afii10049
Encoding: 1071 1071 456
Width: 590
GlyphClass: 2
Flags: W
AnchorPoint: "Anchor-2" 295 714 basechar 0
AnchorPoint: "Anchor-0" 295 0 basechar 0
LayerCount: 2
Fore
SplineSet
263 315 m 1,0,-1
 73 0 l 1,1,-1
 25 0 l 1,2,-1
 221 322 l 1,3,4
 153 336 153 336 108.5 379 c 128,-1,5
 64 422 64 422 64 511 c 0,6,7
 64 615 64 615 130.5 664.5 c 128,-1,8
 197 714 197 714 321 714 c 2,9,-1
 488 714 l 1,10,-1
 488 0 l 1,11,-1
 449 0 l 1,12,-1
 449 315 l 1,13,-1
 263 315 l 1,0,-1
449 678 m 1,14,-1
 326 678 l 2,15,16
 217 678 217 678 160.5 639 c 128,-1,17
 104 600 104 600 104 511 c 0,18,19
 104 428 104 428 154.5 389 c 128,-1,20
 205 350 205 350 298 350 c 2,21,-1
 449 350 l 1,22,-1
 449 678 l 1,14,-1
EndSplineSet
EndChar

StartChar: afii10066
Encoding: 1073 1073 458
Width: 567
GlyphClass: 2
Flags: W
AnchorPoint: "Anchor-2" 284 763 basechar 0
AnchorPoint: "Anchor-0" 284 0 basechar 0
LayerCount: 2
Fore
SplineSet
59 318 m 0,0,1
 59 460 59 460 90 545.5 c 128,-1,2
 121 631 121 631 179 671 c 1,3,4
 227 711 227 711 303.5 731 c 128,-1,5
 380 751 380 751 490 763 c 1,6,-1
 495 728 l 1,7,8
 380 714 380 714 308.5 695 c 128,-1,9
 237 676 237 676 198 644 c 0,10,11
 109 575 109 575 100 372 c 1,12,-1
 102 372 l 1,13,14
 131 427 131 427 184 460 c 128,-1,15
 237 493 237 493 306 493 c 0,16,17
 405 493 405 493 457.5 431.5 c 128,-1,18
 510 370 510 370 510 252 c 0,19,20
 510 175 510 175 486 116 c 128,-1,21
 462 57 462 57 413 23.5 c 128,-1,22
 364 -10 364 -10 287 -10 c 0,23,24
 224 -10 224 -10 180.5 16 c 128,-1,25
 137 42 137 42 110 88 c 128,-1,26
 83 134 83 134 71 193 c 128,-1,27
 59 252 59 252 59 318 c 0,0,1
290 25 m 0,28,29
 384 25 384 25 427 87.5 c 128,-1,30
 470 150 470 150 470 250 c 0,31,32
 470 354 470 354 426.5 406 c 128,-1,33
 383 458 383 458 303 458 c 0,34,35
 234 458 234 458 184 422 c 128,-1,36
 134 386 134 386 99 322 c 1,37,38
 99 266 99 266 107.5 213 c 128,-1,39
 116 160 116 160 137.5 117.5 c 128,-1,40
 159 75 159 75 196 50 c 128,-1,41
 233 25 233 25 290 25 c 0,28,29
EndSplineSet
Substitution2: "'locl' Localized Forms in Cyrillic lookup 17 subtable" afii10066.loclSRB
EndChar

StartChar: afii10067
Encoding: 1074 1074 459
Width: 563
GlyphClass: 2
Flags: W
AnchorPoint: "Anchor-2" 282 530 basechar 0
AnchorPoint: "Anchor-0" 282 0 basechar 0
LayerCount: 2
Fore
SplineSet
478 402 m 0,0,1
 478 352 478 352 452.5 322.5 c 128,-1,2
 427 293 427 293 386 283 c 1,3,-1
 386 280 l 1,4,5
 438 272 438 272 469 240 c 128,-1,6
 500 208 500 208 500 149 c 0,7,8
 500 79 500 79 455 39.5 c 128,-1,9
 410 0 410 0 315 0 c 2,10,-1
 90 0 l 1,11,-1
 90 530 l 1,12,-1
 308 530 l 2,13,14
 396 530 396 530 437 495.5 c 128,-1,15
 478 461 478 461 478 402 c 0,0,1
438 400 m 0,16,17
 438 444 438 444 408 469.5 c 128,-1,18
 378 495 378 495 304 495 c 2,19,-1
 128 495 l 1,20,-1
 128 297 l 1,21,-1
 301 297 l 2,22,23
 373 297 373 297 405.5 323 c 128,-1,24
 438 349 438 349 438 400 c 0,16,17
460 149 m 0,25,26
 460 209 460 209 420 235.5 c 128,-1,27
 380 262 380 262 303 262 c 2,28,-1
 128 262 l 1,29,-1
 128 34 l 1,30,-1
 307 34 l 2,31,32
 460 34 460 34 460 149 c 0,25,26
EndSplineSet
EndChar

StartChar: afii10068
Encoding: 1075 1075 460
Width: 418
GlyphClass: 2
Flags: W
AnchorPoint: "Anchor-2" 216 530 basechar 0
AnchorPoint: "Anchor-0" 209 0 basechar 0
LayerCount: 2
Fore
SplineSet
398 530 m 1,0,-1
 398 495 l 1,1,-1
 128 495 l 1,2,-1
 128 0 l 1,3,-1
 90 0 l 1,4,-1
 90 530 l 1,5,-1
 398 530 l 1,0,-1
EndSplineSet
EndChar

StartChar: afii10069
Encoding: 1076 1076 461
Width: 536
GlyphClass: 2
Flags: W
AnchorPoint: "Anchor-2" 269 530 basechar 0
AnchorPoint: "Anchor-0" 269 -178 basechar 0
LayerCount: 2
Fore
SplineSet
442 530 m 1,0,-1
 442 35 l 1,1,-1
 512 35 l 1,2,-1
 512 -178 l 1,3,-1
 474 -178 l 1,4,-1
 474 0 l 1,5,-1
 58 0 l 1,6,-1
 58 -178 l 1,7,-1
 21 -178 l 1,8,-1
 21 35 l 1,9,-1
 54 35 l 1,10,11
 120 127 120 127 155 252.5 c 128,-1,12
 190 378 190 378 192 530 c 1,13,-1
 442 530 l 1,0,-1
404 496 m 1,14,-1
 228 496 l 1,15,16
 218 219 218 219 98 35 c 1,17,-1
 404 35 l 1,18,-1
 404 496 l 1,14,-1
EndSplineSet
EndChar

StartChar: afii10072
Encoding: 1078 1078 463
Width: 642
GlyphClass: 2
Flags: W
AnchorPoint: "Anchor-2" 320 530 basechar 0
AnchorPoint: "Anchor-0" 321 0 basechar 0
LayerCount: 2
Fore
SplineSet
616 530 m 1,0,-1
 382 270 l 1,1,-1
 633 0 l 1,2,-1
 585 0 l 1,3,-1
 338 268 l 1,4,-1
 338 0 l 1,5,-1
 301 0 l 1,6,-1
 301 268 l 1,7,-1
 55 0 l 1,8,-1
 7 0 l 1,9,-1
 258 270 l 1,10,-1
 23 530 l 1,11,-1
 70 530 l 1,12,-1
 301 272 l 1,13,-1
 301 530 l 1,14,-1
 338 530 l 1,15,-1
 338 272 l 1,16,-1
 569 530 l 1,17,-1
 616 530 l 1,0,-1
EndSplineSet
EndChar

StartChar: afii10073
Encoding: 1079 1079 464
Width: 441
GlyphClass: 2
Flags: W
AnchorPoint: "Anchor-2" 219 530 basechar 0
AnchorPoint: "Anchor-0" 221 0 basechar 0
LayerCount: 2
Fore
SplineSet
205 540 m 0,0,1
 284 540 284 540 327 504 c 128,-1,2
 370 468 370 468 370 404 c 0,3,4
 370 359 370 359 346 328.5 c 128,-1,5
 322 298 322 298 279 285 c 1,6,-1
 279 283 l 1,7,8
 337 270 337 270 363.5 235 c 128,-1,9
 390 200 390 200 390 150 c 0,10,11
 390 74 390 74 336 32 c 128,-1,12
 282 -10 282 -10 194 -10 c 0,13,14
 142 -10 142 -10 100 0 c 128,-1,15
 58 10 58 10 31 25 c 1,16,-1
 31 65 l 1,17,18
 104 25 104 25 193 25 c 0,19,20
 262 25 262 25 306.5 57 c 128,-1,21
 351 89 351 89 351 151 c 0,22,23
 351 212 351 212 309.5 238 c 128,-1,24
 268 264 268 264 191 264 c 2,25,-1
 120 264 l 1,26,-1
 120 298 l 1,27,-1
 189 298 l 2,28,29
 254 298 254 298 293 323.5 c 128,-1,30
 332 349 332 349 332 403 c 0,31,32
 332 452 332 452 299 478.5 c 128,-1,33
 266 505 266 505 204 505 c 0,34,35
 160 505 160 505 126 494.5 c 128,-1,36
 92 484 92 484 57 468 c 1,37,-1
 43 501 l 1,38,39
 78 518 78 518 117 529 c 128,-1,40
 156 540 156 540 205 540 c 0,0,1
EndSplineSet
EndChar

StartChar: afii10074
Encoding: 1080 1080 465
Width: 588
GlyphClass: 2
Flags: W
AnchorPoint: "Anchor-2" 296 530 basechar 0
AnchorPoint: "Anchor-0" 294 0 basechar 0
LayerCount: 2
Fore
SplineSet
127 530 m 1,0,-1
 127 133 l 2,1,2
 127 110 127 110 126.5 90 c 128,-1,3
 126 70 126 70 125 47 c 1,4,-1
 451 530 l 1,5,-1
 498 530 l 1,6,-1
 498 0 l 1,7,-1
 461 0 l 1,8,-1
 461 404 l 2,9,10
 461 425 461 425 461 444 c 128,-1,11
 461 463 461 463 462 485 c 1,12,-1
 135 0 l 1,13,-1
 90 0 l 1,14,-1
 90 530 l 1,15,-1
 127 530 l 1,0,-1
EndSplineSet
EndChar

StartChar: afii10076
Encoding: 1082 1082 467
Width: 440
GlyphClass: 2
Flags: W
AnchorPoint: "Anchor-2" 223 530 basechar 0
AnchorPoint: "Anchor-0" 220 0 basechar 0
LayerCount: 2
Fore
SplineSet
371 530 m 1,0,-1
 418 530 l 1,1,-1
 174 272 l 1,2,-1
 430 0 l 1,3,-1
 381 0 l 1,4,-1
 128 268 l 1,5,-1
 128 0 l 1,6,-1
 90 0 l 1,7,-1
 90 530 l 1,8,-1
 128 530 l 1,9,-1
 128 272 l 1,10,-1
 371 530 l 1,0,-1
EndSplineSet
EndChar

StartChar: afii10077
Encoding: 1083 1083 468
Width: 536
GlyphClass: 2
Flags: W
AnchorPoint: "Anchor-2" 268 530 basechar 0
AnchorPoint: "Anchor-0" 268 0 basechar 0
LayerCount: 2
Fore
SplineSet
446 0 m 1,0,-1
 407 0 l 1,1,-1
 407 495 l 1,2,-1
 214 495 l 1,3,4
 202 328 202 328 184 216.5 c 128,-1,5
 166 105 166 105 132.5 50 c 128,-1,6
 99 -5 99 -5 40 -5 c 0,7,8
 27 -5 27 -5 18.5 -3.5 c 128,-1,9
 10 -2 10 -2 5 -1 c 1,10,-1
 5 33 l 1,11,12
 14 29 14 29 36 29 c 0,13,14
 102 29 102 29 132 150.5 c 128,-1,15
 162 272 162 272 179 530 c 1,16,-1
 446 530 l 1,17,-1
 446 0 l 1,0,-1
EndSplineSet
EndChar

StartChar: afii10078
Encoding: 1084 1084 469
Width: 655
GlyphClass: 2
Flags: W
AnchorPoint: "Anchor-2" 328 530 basechar 0
AnchorPoint: "Anchor-0" 328 0 basechar 0
LayerCount: 2
Fore
SplineSet
590 530 m 1,0,-1
 590 0 l 1,1,-1
 553 0 l 1,2,-1
 553 393 l 2,3,4
 553 414 553 414 553.5 433 c 128,-1,5
 554 452 554 452 555 474 c 1,6,-1
 553 474 l 1,7,-1
 355 0 l 1,8,-1
 321 0 l 1,9,-1
 124 475 l 1,10,-1
 122 475 l 1,11,12
 123 452 123 452 123 433 c 128,-1,13
 123 414 123 414 123 390 c 2,14,-1
 123 0 l 1,15,-1
 87 0 l 1,16,-1
 87 530 l 1,17,-1
 141 530 l 1,18,-1
 338 50 l 1,19,-1
 537 530 l 1,20,-1
 590 530 l 1,0,-1
EndSplineSet
EndChar

StartChar: afii10079
Encoding: 1085 1085 470
Width: 604
GlyphClass: 2
Flags: W
AnchorPoint: "Anchor-2" 302 530 basechar 0
AnchorPoint: "Anchor-0" 302 0 basechar 0
LayerCount: 2
Fore
SplineSet
128 530 m 1,0,-1
 128 294 l 1,1,-1
 475 294 l 1,2,-1
 475 530 l 1,3,-1
 514 530 l 1,4,-1
 514 0 l 1,5,-1
 475 0 l 1,6,-1
 475 259 l 1,7,-1
 128 259 l 1,8,-1
 128 0 l 1,9,-1
 90 0 l 1,10,-1
 90 530 l 1,11,-1
 128 530 l 1,0,-1
EndSplineSet
EndChar

StartChar: afii10081
Encoding: 1087 1087 472
Width: 595
GlyphClass: 2
Flags: W
AnchorPoint: "Anchor-2" 298 530 basechar 0
AnchorPoint: "Anchor-0" 298 0 basechar 0
LayerCount: 2
Fore
SplineSet
505 530 m 1,0,-1
 505 0 l 1,1,-1
 466 0 l 1,2,-1
 466 494 l 1,3,-1
 128 494 l 1,4,-1
 128 0 l 1,5,-1
 90 0 l 1,6,-1
 90 530 l 1,7,-1
 505 530 l 1,0,-1
EndSplineSet
EndChar

StartChar: afii10084
Encoding: 1090 1090 475
Width: 438
GlyphClass: 2
Flags: W
AnchorPoint: "Anchor-2" 219 530 basechar 0
AnchorPoint: "Anchor-0" 219 0 basechar 0
LayerCount: 2
Fore
SplineSet
418 495 m 1,0,-1
 238 495 l 1,1,-1
 238 0 l 1,2,-1
 199 0 l 1,3,-1
 199 495 l 1,4,-1
 19 495 l 1,5,-1
 19 530 l 1,6,-1
 418 530 l 1,7,-1
 418 495 l 1,0,-1
EndSplineSet
EndChar

